<?xml version="1.0" encoding="UTF-8"?>
<svg width="1200pt" height="1200pt" version="1.1" viewBox="0 0 1200 1200" xmlns="http://www.w3.org/2000/svg">
 <g>
  <path d="m637.5 787.5h-75c-10.359 0-18.75 8.3906-18.75 18.75s8.3906 18.75 18.75 18.75h75c10.359 0 18.75-8.3906 18.75-18.75s-8.3906-18.75-18.75-18.75z"/>
  <path d="m1068.7 662.65c-40.828-92.625-108.26-137.65-206.16-137.65-68.812 0-100.73 17.812-128.88 33.516-22.758 12.703-40.711 22.734-77.367 22.734h-112.5c-36.656 0-54.609-10.031-77.367-22.734-28.148-15.727-60.07-33.516-128.88-33.516-97.875 0-165.3 45.023-206.16 137.65-38.438 87.188-56.344 222.19-56.344 424.85 0 59.93 52.57 112.5 112.5 112.5 97.43 0 142.76-88.43 179.11-159.82 14.039 6.3047 29.555 9.8203 45.891 9.8203 55.641 0 101.95-40.617 110.91-93.75h153.19c8.9531 53.133 55.266 93.75 110.91 93.75 16.336 0 31.875-3.5391 45.891-9.8203 36.352 71.391 81.656 159.82 179.11 159.82 59.93 0 112.5-52.57 112.5-112.5 0-202.66-17.906-337.66-56.344-424.85zm-656.16 349.85c-41.344 0-75-33.656-75-75s33.656-75 75-75 75 33.656 75 75-33.656 75-75 75zm300-75c0-41.344 33.656-75 75-75s75 33.656 75 75-33.656 75-75 75-75-33.656-75-75zm300 225c-74.766 0-112.62-74.391-146.04-140.04-0.5625-1.125-1.125-2.2031-1.6875-3.3047 21.68-20.508 35.227-49.523 35.227-81.656 0-62.039-50.461-112.5-112.5-112.5-55.641 0-101.95 40.617-110.91 93.75h-153.19c-8.9531-53.133-55.266-93.75-110.91-93.75-62.039 0-112.5 50.461-112.5 112.5 0 32.133 13.547 61.125 35.227 81.656-0.5625 1.1016-1.125 2.2031-1.6875 3.3047-33.398 65.648-71.273 140.04-146.04 140.04-39.258 0-75-35.742-75-75 0-197.27 16.898-327.47 53.156-409.73 35.156-79.711 88.148-115.27 171.84-115.27 59.062 0 85.266 14.625 110.6 28.781 24.211 13.5 49.219 27.469 95.648 27.469h112.5c46.406 0 71.438-13.969 95.648-27.469 25.336-14.156 51.539-28.781 110.6-28.781 83.695 0 136.69 35.555 171.84 115.27 36.281 82.266 53.156 212.46 53.156 409.73 0 39.258-35.742 75-75 75z"/>
  <path d="m393.75 693.75h-37.5v-37.5c0-10.359-8.3906-18.75-18.75-18.75s-18.75 8.3906-18.75 18.75v37.5h-37.5c-10.359 0-18.75 8.3906-18.75 18.75s8.3906 18.75 18.75 18.75h37.5v37.5c0 10.359 8.3906 18.75 18.75 18.75s18.75-8.3906 18.75-18.75v-37.5h37.5c10.359 0 18.75-8.3906 18.75-18.75s-8.3906-18.75-18.75-18.75z"/>
  <path d="m918.75 693.75h-37.5v-37.5c0-10.359-8.3906-18.75-18.75-18.75s-18.75 8.3906-18.75 18.75v37.5h-37.5c-10.359 0-18.75 8.3906-18.75 18.75s8.3906 18.75 18.75 18.75h37.5v37.5c0 10.359 8.3906 18.75 18.75 18.75s18.75-8.3906 18.75-18.75v-37.5h37.5c10.359 0 18.75-8.3906 18.75-18.75s-8.3906-18.75-18.75-18.75z"/>
  <path d="m543.75 431.25c0 31.008 25.242 56.25 56.25 56.25s56.25-25.242 56.25-56.25-25.242-56.25-56.25-56.25-56.25 25.242-56.25 56.25zm75 0c0 10.336-8.4141 18.75-18.75 18.75s-18.75-8.4141-18.75-18.75 8.4141-18.75 18.75-18.75 18.75 8.4141 18.75 18.75z"/>
  <path d="m732.59 354.91c15.023 0 29.156-5.8594 39.773-16.477s16.477-24.75 16.477-39.773c0-15.023-5.8594-29.156-16.477-39.773-45.961-45.961-107.18-71.297-172.36-71.297s-126.38 25.312-172.36 71.297c-10.617 10.617-16.477 24.75-16.477 39.773 0 15.023 5.8594 29.156 16.477 39.773s24.75 16.477 39.773 16.477c15.023 0 29.156-5.8594 39.773-16.477 24.797-24.797 57.75-38.438 92.812-38.438s68.016 13.664 92.812 38.438c10.617 10.617 24.75 16.477 39.773 16.477zm-251.91-42.984c-3.5391 3.5391-8.25 5.4844-13.266 5.4844-5.0156 0-9.7266-1.9453-13.266-5.4844-3.5391-3.5391-5.4844-8.25-5.4844-13.266 0-5.0156 1.9453-9.7266 5.4844-13.266 38.883-38.883 90.68-60.305 145.83-60.305 55.148 0 106.95 21.422 145.85 60.305 3.5391 3.5391 5.4844 8.25 5.4844 13.266 0 5.0156-1.9453 9.7266-5.4844 13.266-3.5391 3.5391-8.25 5.4844-13.266 5.4844s-9.7266-1.9453-13.266-5.4844c-31.875-31.875-74.25-49.43-119.32-49.43-45.07 0-87.445 17.555-119.32 49.43z"/>
  <path d="m334.83 222.33c15.023 0 29.156-5.8594 39.773-16.477 60.211-60.211 140.25-93.352 225.4-93.352s165.19 33.164 225.4 93.352c10.617 10.617 24.75 16.477 39.773 16.477s29.156-5.8594 39.773-16.477c10.617-10.617 16.477-24.75 16.477-39.773s-5.8594-29.156-16.477-39.773c-81.445-81.445-189.75-126.3-304.95-126.3s-223.5 44.859-304.95 126.3c-10.617 10.617-16.477 24.75-16.477 39.773s5.8594 29.156 16.477 39.773c10.617 10.617 24.75 16.477 39.773 16.477zm-13.242-69.492c74.367-74.367 173.25-115.34 278.41-115.34s204.05 40.969 278.41 115.34c3.5391 3.5391 5.4844 8.25 5.4844 13.266 0 5.0156-1.9453 9.7266-5.4844 13.266-3.5391 3.5391-8.25 5.4844-13.266 5.4844-5.0156 0-9.7031-1.9453-13.266-5.4844-67.289-67.289-156.75-104.34-251.91-104.34s-184.62 37.055-251.91 104.34c-3.5391 3.5391-8.25 5.4844-13.266 5.4844-5.0156 0-9.7266-1.9453-13.266-5.4844-3.5391-3.5391-5.4844-8.25-5.4844-13.266 0-5.0156 1.9453-9.7266 5.4844-13.266z"/>
 </g>
</svg>
