<?xml version="1.0" encoding="UTF-8"?>
<svg width="1200pt" height="1200pt" version="1.1" viewBox="0 0 1200 1200" xmlns="http://www.w3.org/2000/svg">
 <g>
  <path d="m206.25 600h787.5c10.359 0 18.75-8.3906 18.75-18.75v-450c0-10.359-8.3906-18.75-18.75-18.75h-787.5c-10.359 0-18.75 8.3906-18.75 18.75v450c0 10.359 8.3906 18.75 18.75 18.75zm18.75-450h750v412.5h-750z"/>
  <path d="m168.75 675h356.25v112.5h-93.75c-10.359 0-18.75 8.3906-18.75 18.75s8.3906 18.75 18.75 18.75h337.5c10.359 0 18.75-8.3906 18.75-18.75s-8.3906-18.75-18.75-18.75h-93.75v-112.5h356.25c31.008 0 56.25-25.242 56.25-56.25v-525c0-31.008-25.242-56.25-56.25-56.25h-862.5c-31.008 0-56.25 25.242-56.25 56.25v525c0 31.008 25.242 56.25 56.25 56.25zm468.75 112.5h-75v-112.5h75zm-487.5-693.75c0-10.336 8.4141-18.75 18.75-18.75h862.5c10.336 0 18.75 8.4141 18.75 18.75v525c0 10.336-8.4141 18.75-18.75 18.75h-862.5c-10.336 0-18.75-8.4141-18.75-18.75z"/>
  <path d="m318.75 862.5c-47.977 0-74.133 23.508-85.453 37.5h-17.906c-11.203-14.109-36.984-37.5-84.867-37.5-39.258 0-91.312 16.922-116.34 97.57-14.906 48.023-14.906 101.65-14.906 127.43v0.72656c0 40.945 33.328 74.273 74.273 74.273 30.492 0 58.312-19.102 69.281-47.531l3.6094-8.7891c0.9375 0.046874 1.875 0.070312 2.8359 0.070312 24.445 0 45.281-15.68 53.016-37.5h43.945c7.7344 21.82 28.57 37.5 53.016 37.5 1.1953 0 2.3672-0.046875 3.5391-0.11719l3.6328 8.8359c11.133 28.875 38.016 47.531 68.555 47.531 40.945 0 74.273-33.328 74.273-74.273v-1.6875c0-25.852 0-79.664-14.812-127.34-24.844-79.922-76.641-96.703-115.71-96.703zm-169.48 206.25c-10.336 0-18.75-8.4141-18.75-18.75s8.4141-18.75 18.75-18.75c10.336 0 18.75 8.4141 18.75 18.75s-8.4141 18.75-18.75 18.75zm150 0c-10.336 0-18.75-8.4141-18.75-18.75s8.4141-18.75 18.75-18.75c10.336 0 18.75 8.4141 18.75 18.75s-8.4141 18.75-18.75 18.75zm112.5 19.477c0 20.273-16.5 36.773-36.773 36.773-14.93 0-28.125-9.2812-33.633-23.648-0.046876-0.14062-0.11719-0.28125-0.16406-0.44531l-3.9141-9.4922c11.203-10.289 18.234-25.031 18.234-41.414 0-31.008-25.242-56.25-56.25-56.25-24.445 0-45.281 15.68-53.016 37.5h-43.945c-7.7344-21.82-28.57-37.5-53.016-37.5-31.008 0-56.25 25.242-56.25 56.25 0 16.617 7.2422 31.57 18.75 41.883l-3.7031 9.0234c-0.070312 0.14062-0.11719 0.28125-0.16406 0.44531-5.3906 14.156-19.195 23.648-34.359 23.648-20.273 0-36.773-16.5-36.773-36.773v-0.72656c0-23.93 0-73.711 13.219-116.32 14.859-47.906 41.203-71.18 80.531-71.18 42 0 57 24.961 58.289 27.258 3.0938 6.5625 9.4453 10.242 16.711 10.242h37.5c7.0078 0 13.406-3.8906 16.641-10.102 0.14062-0.28125 15.445-27.398 59.086-27.398 39.07 0 65.203 23.016 79.898 70.336 13.125 42.234 13.125 92.203 13.125 116.2v1.6875z"/>
  <path d="m1184.5 959.2c-24.844-79.922-76.641-96.703-115.71-96.703-47.977 0-74.133 23.508-85.453 37.5h-17.906c-11.203-14.109-36.984-37.5-84.867-37.5-39.258 0-91.312 16.922-116.34 97.57-14.906 48.023-14.906 101.65-14.906 127.43v0.72656c0 40.945 33.328 74.273 74.273 74.273 30.492 0 58.312-19.102 69.281-47.531l3.6094-8.7891c0.9375 0.046874 1.875 0.070312 2.8359 0.070312 24.445 0 45.281-15.68 53.016-37.5h43.945c7.7344 21.82 28.57 37.5 53.016 37.5 1.1953 0 2.3672-0.046875 3.5391-0.11719l3.6328 8.8359c11.133 28.875 38.016 47.531 68.555 47.531 40.945 0 74.273-33.328 74.273-74.273v-1.6875c0-25.852 0-79.664-14.812-127.34zm-285.19 109.55c-10.336 0-18.75-8.4141-18.75-18.75s8.4141-18.75 18.75-18.75c10.336 0 18.75 8.4141 18.75 18.75s-8.4141 18.75-18.75 18.75zm150 0c-10.336 0-18.75-8.4141-18.75-18.75s8.4141-18.75 18.75-18.75c10.336 0 18.75 8.4141 18.75 18.75s-8.4141 18.75-18.75 18.75zm112.5 19.477c0 20.273-16.5 36.773-36.773 36.773-14.93 0-28.125-9.2812-33.633-23.648-0.046876-0.14062-0.11719-0.28125-0.16406-0.44531l-3.9141-9.4922c11.203-10.289 18.234-25.031 18.234-41.414 0-31.008-25.242-56.25-56.25-56.25-24.445 0-45.281 15.68-53.016 37.5h-43.945c-7.7344-21.82-28.57-37.5-53.016-37.5-31.008 0-56.25 25.242-56.25 56.25 0 16.617 7.2422 31.57 18.75 41.883l-3.7031 9.0234c-0.070312 0.14062-0.11719 0.28125-0.16406 0.44531-5.3906 14.156-19.195 23.648-34.359 23.648-20.273 0-36.773-16.5-36.773-36.773v-0.72656c0-23.93 0-73.711 13.219-116.32 14.859-47.906 41.203-71.18 80.531-71.18 42 0 57 24.961 58.289 27.258 3.0938 6.5625 9.4453 10.242 16.711 10.242h37.5c7.0078 0 13.406-3.8906 16.641-10.102 0.14062-0.28125 15.445-27.398 59.086-27.398 39.07 0 65.203 23.016 79.898 70.336 13.125 42.234 13.125 92.203 13.125 116.2v1.6875z"/>
  <path d="m1087.5 956.25c0 10.355-8.3945 18.75-18.75 18.75s-18.75-8.3945-18.75-18.75 8.3945-18.75 18.75-18.75 18.75 8.3945 18.75 18.75"/>
  <path d="m900 956.25c0 10.355-8.3945 18.75-18.75 18.75s-18.75-8.3945-18.75-18.75 8.3945-18.75 18.75-18.75 18.75 8.3945 18.75 18.75"/>
  <path d="m337.5 956.25c0 10.355-8.3945 18.75-18.75 18.75s-18.75-8.3945-18.75-18.75 8.3945-18.75 18.75-18.75 18.75 8.3945 18.75 18.75"/>
  <path d="m150 956.25c0 10.355-8.3945 18.75-18.75 18.75s-18.75-8.3945-18.75-18.75 8.3945-18.75 18.75-18.75 18.75 8.3945 18.75 18.75"/>
 </g>
</svg>
