<?xml version="1.0" encoding="UTF-8"?>
<svg width="1200pt" height="1200pt" version="1.1" viewBox="0 0 1200 1200" xmlns="http://www.w3.org/2000/svg">
 <g>
  <path d="m600 562.5c41.367 0 75-33.633 75-75 0-130.38-10.852-218.25-34.148-276.49-26.508-66.281-70.547-98.508-134.6-98.508-45.211 0-67.57 12.914-85.523 23.273-14.297 8.25-24.633 14.227-45.727 14.227h-75c-21.07 0-31.406-5.9766-45.727-14.227-17.953-10.383-40.312-23.273-85.523-23.273-64.055 0-108.09 32.227-134.6 98.508-23.297 58.242-34.148 146.11-34.148 276.49 0 41.367 33.633 75 75 75 63.352 0 98.18-55.992 123.59-98.578 8.2266 3.1172 17.133 4.8281 26.414 4.8281 34.875 0 64.289-23.93 72.633-56.25h79.758c8.3438 32.32 37.734 56.25 72.633 56.25 9.3047 0 18.188-1.7109 26.414-4.8281 25.383 42.562 60.234 98.578 123.59 98.578zm-525-37.5c-20.672 0-37.5-16.828-37.5-37.5 0-280.1 52.477-337.5 131.25-337.5 35.18 0 50.531 8.8594 66.773 18.258 15.633 9.0234 33.328 19.242 64.477 19.242h75c31.125 0 48.844-10.219 64.477-19.242 16.266-9.375 31.617-18.258 66.773-18.258 78.773 0 131.25 57.398 131.25 337.5 0 20.672-16.828 37.5-37.5 37.5-43.359 0-68.555-41.977-92.859-82.758 11.109-13.078 17.859-30.023 17.859-48.492 0-41.367-33.633-75-75-75-34.875 0-64.289 23.93-72.633 56.25h-79.758c-8.3438-32.32-37.734-56.25-72.633-56.25-41.367 0-75 33.633-75 75 0 18.469 6.7266 35.414 17.859 48.492-24.281 40.781-49.477 82.758-92.859 82.758zm150-93.75c-20.672 0-37.5-16.828-37.5-37.5s16.828-37.5 37.5-37.5 37.5 16.828 37.5 37.5-16.828 37.5-37.5 37.5zm187.5-37.5c0-20.672 16.828-37.5 37.5-37.5s37.5 16.828 37.5 37.5-16.828 37.5-37.5 37.5-37.5-16.828-37.5-37.5z"/>
  <path d="m468.75 262.5h18.75v18.75c0 10.359 8.3906 18.75 18.75 18.75s18.75-8.3906 18.75-18.75v-18.75h18.75c10.359 0 18.75-8.3906 18.75-18.75s-8.3906-18.75-18.75-18.75h-18.75v-18.75c0-10.359-8.3906-18.75-18.75-18.75s-18.75 8.3906-18.75 18.75v18.75h-18.75c-10.359 0-18.75 8.3906-18.75 18.75s8.3906 18.75 18.75 18.75z"/>
  <path d="m150 281.25c0 10.359 8.3906 18.75 18.75 18.75s18.75-8.3906 18.75-18.75v-18.75h18.75c10.359 0 18.75-8.3906 18.75-18.75s-8.3906-18.75-18.75-18.75h-18.75v-18.75c0-10.359-8.3906-18.75-18.75-18.75s-18.75 8.3906-18.75 18.75v18.75h-18.75c-10.359 0-18.75 8.3906-18.75 18.75s8.3906 18.75 18.75 18.75h18.75z"/>
  <path d="m318.75 318.75h37.5c10.359 0 18.75-8.3906 18.75-18.75s-8.3906-18.75-18.75-18.75h-37.5c-10.359 0-18.75 8.3906-18.75 18.75s8.3906 18.75 18.75 18.75z"/>
  <path d="m1165.9 736.01c-26.508-66.281-70.547-98.508-134.6-98.508-45.211 0-67.57 12.914-85.523 23.273-14.297 8.25-24.633 14.227-45.727 14.227h-75c-21.07 0-31.406-5.9766-45.727-14.227-17.953-10.383-40.312-23.273-85.523-23.273-64.055 0-108.09 32.227-134.6 98.508-23.297 58.242-34.148 146.11-34.148 276.49 0 41.367 33.633 75 75 75 63.352 0 98.18-55.992 123.59-98.578 8.2266 3.1172 17.133 4.8281 26.414 4.8281 34.875 0 64.289-23.93 72.633-56.25h79.758c8.3438 32.32 37.734 56.25 72.633 56.25 9.3047 0 18.188-1.7109 26.414-4.8281 25.383 42.562 60.234 98.578 123.59 98.578 41.367 0 75-33.633 75-75 0-130.38-10.852-218.25-34.148-276.49zm-415.85 220.24c-20.672 0-37.5-16.828-37.5-37.5s16.828-37.5 37.5-37.5 37.5 16.828 37.5 37.5-16.828 37.5-37.5 37.5zm187.5-37.5c0-20.672 16.828-37.5 37.5-37.5s37.5 16.828 37.5 37.5-16.828 37.5-37.5 37.5-37.5-16.828-37.5-37.5zm187.5 131.25c-43.359 0-68.555-41.977-92.859-82.758 11.109-13.078 17.859-30.023 17.859-48.492 0-41.367-33.633-75-75-75-34.875 0-64.289 23.93-72.633 56.25h-79.758c-8.3438-32.32-37.734-56.25-72.633-56.25-41.367 0-75 33.633-75 75 0 18.469 6.7266 35.414 17.859 48.492-24.281 40.781-49.477 82.758-92.859 82.758-20.672 0-37.5-16.828-37.5-37.5 0-280.1 52.477-337.5 131.25-337.5 35.18 0 50.531 8.8594 66.773 18.258 15.633 9.0234 33.328 19.242 64.477 19.242h75c31.125 0 48.844-10.219 64.477-19.242 16.266-9.375 31.617-18.258 66.773-18.258 78.773 0 131.25 57.398 131.25 337.5 0 20.672-16.828 37.5-37.5 37.5z"/>
  <path d="m1068.8 750h-18.75v-18.75c0-10.359-8.3906-18.75-18.75-18.75s-18.75 8.3906-18.75 18.75v18.75h-18.75c-10.359 0-18.75 8.3906-18.75 18.75s8.3906 18.75 18.75 18.75h18.75v18.75c0 10.359 8.3906 18.75 18.75 18.75s18.75-8.3906 18.75-18.75v-18.75h18.75c10.359 0 18.75-8.3906 18.75-18.75s-8.3906-18.75-18.75-18.75z"/>
  <path d="m731.25 750h-18.75v-18.75c0-10.359-8.3906-18.75-18.75-18.75s-18.75 8.3906-18.75 18.75v18.75h-18.75c-10.359 0-18.75 8.3906-18.75 18.75s8.3906 18.75 18.75 18.75h18.75v18.75c0 10.359 8.3906 18.75 18.75 18.75s18.75-8.3906 18.75-18.75v-18.75h18.75c10.359 0 18.75-8.3906 18.75-18.75s-8.3906-18.75-18.75-18.75z"/>
  <path d="m881.25 806.25h-37.5c-10.359 0-18.75 8.3906-18.75 18.75s8.3906 18.75 18.75 18.75h37.5c10.359 0 18.75-8.3906 18.75-18.75s-8.3906-18.75-18.75-18.75z"/>
  <path d="m750 318.75h93.75v262.5c0 10.359 8.3906 18.75 18.75 18.75s18.75-8.3906 18.75-18.75v-281.25c0-10.359-8.3906-18.75-18.75-18.75h-112.5c-10.359 0-18.75 8.3906-18.75 18.75s8.3906 18.75 18.75 18.75z"/>
  <path d="m450 806.25h-93.75v-300c0-10.359-8.3906-18.75-18.75-18.75s-18.75 8.3906-18.75 18.75v318.75c0 10.359 8.3906 18.75 18.75 18.75h112.5c10.359 0 18.75-8.3906 18.75-18.75s-8.3906-18.75-18.75-18.75z"/>
 </g>
</svg>
