<?xml version="1.0" encoding="UTF-8"?>
<svg width="1200pt" height="1200pt" version="1.1" viewBox="0 0 1200 1200" xmlns="http://www.w3.org/2000/svg">
 <g>
  <path d="m1178.3 860.09-1.2188-1.2188c-18.281-18.281-56.344-56.344-100.52-79.57-74.086-38.953-122.55-14.18-150.19 13.453-33.914 33.914-35.812 69.047-33.914 86.953l-12.656 12.656c-17.883-2.0625-52.664-0.35156-86.531 33.492-27.75 27.773-52.594 76.547-13.289 151.24 23.414 44.508 61.336 82.43 79.594 100.69l0.49219 0.49219c14.484 14.484 33.492 21.727 52.523 21.727s38.039-7.2422 52.523-21.727c21.562-21.562 27.727-54.727 15.375-82.617l-3.6797-8.8359c0.70312-0.63281 1.4062-1.2188 2.0859-1.875 17.273-17.273 20.883-43.078 10.945-63.961l31.148-31.148c7.6406 3.6328 15.914 5.5078 24.188 5.5078 14.414 0 28.805-5.4844 39.773-16.453 0.84375-0.84375 1.5703-1.7344 2.3438-2.6016l8.8594 3.7031c28.289 12.539 60.492 6.7266 82.102-14.859 28.969-28.969 28.969-76.078 0.023438-105zm-225.94 198.33c-7.3125 7.3125-19.219 7.3125-26.508 0s-7.3125-19.219 0-26.508c7.3125-7.3125 19.219-7.3125 26.508 0 7.3125 7.3125 7.3125 19.195 0 26.508zm106.08-106.08c-7.3125 7.3125-19.195 7.3125-26.508 0-7.2891-7.3125-7.2891-19.195 0-26.508 3.6562-3.6562 8.4609-5.4844 13.266-5.4844s9.6094 1.8281 13.266 5.4844c7.3125 7.3125 7.3125 19.219 0 26.508zm93.305-13.758c-10.547 10.57-26.461 13.336-40.5 7.0547-0.14062-0.070312-0.28125-0.11719-0.42188-0.1875l-9.5391-3.9844c0.63281-15.188-4.7578-30.586-16.336-42.141-21.938-21.938-57.609-21.938-79.547 0-17.273 17.273-20.883 43.078-10.945 63.961l-31.148 31.148c-20.906-9.9375-46.688-6.3281-63.961 10.945-21.938 21.938-21.938 57.609 0 79.547 10.969 10.969 25.359 16.453 39.773 16.453 1.0312 0 2.0625-0.09375 3.0938-0.14062l3.7734 9.0469c0.070312 0.14062 0.11719 0.28125 0.1875 0.42188 6.1875 13.828 3.1406 30.305-7.5703 41.016-14.344 14.344-37.664 14.344-52.031-0.023438l-0.49219-0.49219c-16.922-16.922-52.125-52.125-72.891-91.594-23.344-44.367-21.188-79.477 6.6094-107.27 29.719-29.719 57.961-22.664 60.469-21.938 6.8203 2.4609 13.922 0.5625 19.078-4.5703l26.508-26.508c5.0625-5.0625 6.9609-12.047 4.6641-18.797-0.67969-2.5312-7.5-31.383 22.383-61.266 27.609-27.609 62.367-29.836 106.22-6.7734 39.141 20.578 74.461 55.898 91.453 72.891l1.1953 1.1953c14.344 14.344 14.344 37.664 0 52.008z"/>
  <path d="m320.23 892.34-12.656-12.656c1.8984-17.906 0-53.016-33.914-86.953-27.633-27.633-76.102-52.383-150.19-13.453-44.18 23.227-82.219 61.289-100.52 79.57l-1.1953 1.1953c-28.969 28.969-28.969 76.078 0 105.05 21.586 21.586 53.789 27.422 82.102 14.859l8.8828-3.7031c0.77344 0.86719 1.5234 1.7812 2.3672 2.6016 10.969 10.969 25.359 16.453 39.773 16.453 8.2969 0 16.57-1.875 24.188-5.5078l31.102 31.102c-3.5859 7.4766-5.4844 15.727-5.4844 24.258 0 15.023 5.8594 29.156 16.477 39.773 0.65625 0.65625 1.3828 1.2422 2.0859 1.875l-3.6797 8.8359c-12.352 27.867-6.1875 61.055 15.375 82.617 14.484 14.484 33.492 21.727 52.523 21.727s38.039-7.2422 52.523-21.727l0.51562-0.51562c18.234-18.234 56.156-56.156 79.57-100.64 39.328-74.719 14.484-123.49-13.289-151.27-33.867-33.867-68.648-35.555-86.531-33.492zm-152.11 60c-7.3125 7.3125-19.195 7.3125-26.508 0s-7.3125-19.219 0-26.531 19.195-7.3125 26.508 0 7.3125 19.219 0 26.508zm74.039 92.812c0-5.0156 1.9453-9.7266 5.4844-13.266 3.6562-3.6562 8.4609-5.4844 13.266-5.4844s9.6094 1.8281 13.266 5.4844c7.3125 7.3125 7.3125 19.219 0 26.508-7.3125 7.3125-19.195 7.3125-26.508 0-3.5391-3.5391-5.4844-8.25-5.4844-13.266zm144.7 14.461c-20.766 39.469-55.992 74.672-72.891 91.594l-0.51562 0.51562c-14.344 14.344-37.664 14.344-52.008 0-10.711-10.711-13.758-27.188-7.5703-41.016 0.070312-0.14062 0.11719-0.28125 0.1875-0.42188l3.7734-9.0469c1.0312 0.046875 2.0625 0.14062 3.0938 0.14062 14.414 0 28.805-5.4844 39.773-16.453 21.938-21.938 21.938-57.609 0-79.547-17.273-17.273-43.078-20.883-63.961-10.945l-31.148-31.148c9.9375-20.906 6.3281-46.688-10.945-63.961-21.938-21.938-57.609-21.938-79.547 0-11.578 11.578-16.969 26.953-16.336 42.141l-9.5391 3.9844c-0.14062 0.070313-0.28125 0.11719-0.44531 0.1875-14.039 6.2812-29.93 3.5156-40.5-7.0547-14.344-14.344-14.344-37.664 0.023438-52.031l1.1719-1.1719c16.969-16.992 52.312-52.312 91.453-72.891 43.852-23.062 78.609-20.836 106.22 6.7734 29.883 29.883 23.039 58.734 22.383 61.266-2.2969 6.75-0.39844 13.734 4.6641 18.797l26.508 26.508c5.1328 5.1328 12.234 7.0312 19.078 4.5703 2.5312-0.70313 30.773-7.7578 60.492 21.938 27.797 27.797 29.977 62.883 6.6094 107.27z"/>
  <path d="m600 356.25c-134.41 0-243.75 109.34-243.75 243.75s109.34 243.75 243.75 243.75 243.75-109.34 243.75-243.75-109.34-243.75-243.75-243.75zm0 37.5c33.492 0 70.734 78.984 74.648 187.5h-149.27c3.9141-108.52 41.133-187.5 74.648-187.5zm-69.68 12.117c-24.328 40.383-40.195 102.47-42.516 175.38h-93.188c7.3359-81.07 61.805-148.76 135.7-175.38zm-135.7 212.88h93.188c2.3203 72.891 18.188 135 42.516 175.38-73.898-26.602-128.37-94.289-135.7-175.38zm205.38 187.5c-33.492 0-70.734-78.984-74.648-187.5h149.27c-3.9141 108.52-41.133 187.5-74.648 187.5zm69.68-12.117c24.328-40.383 40.195-102.47 42.516-175.38h93.188c-7.3359 81.07-61.805 148.76-135.7 175.38zm42.516-212.88c-2.3203-72.891-18.188-135-42.516-175.38 73.898 26.602 128.37 94.289 135.7 175.38z"/>
  <path d="m22.945 341.16c18.281 18.281 56.344 56.344 100.52 79.57 27.539 14.461 51.516 20.156 72.211 20.156 35.016 0 60.609-16.242 77.977-33.586 33.914-33.914 35.812-69.047 33.914-86.953l12.656-12.656c17.883 2.0625 52.664 0.375 86.531-33.492 27.773-27.773 52.594-76.547 13.289-151.27-23.414-44.508-61.336-82.43-79.57-100.64l-0.51562-0.51562c-28.945-28.945-76.078-28.969-105.02 0-21.562 21.562-27.727 54.75-15.375 82.617l3.6797 8.8359c-0.70313 0.63281-1.4062 1.2188-2.0859 1.875-10.617 10.617-16.477 24.75-16.477 39.773 0 8.5312 1.8984 16.781 5.4844 24.258l-31.102 31.102c-20.906-9.9375-46.688-6.3516-63.961 10.945-0.84375 0.84375-1.5703 1.7344-2.3438 2.6016l-8.8594-3.7031c-28.312-12.562-60.492-6.7266-82.102 14.859-28.969 28.969-28.969 76.078-0.023437 105l1.2188 1.2188zm224.72-199.57c3.6562-3.6562 8.4609-5.4844 13.266-5.4844 4.8047 0 9.6094 1.8281 13.266 5.4844 7.3125 7.3125 7.3125 19.195 0 26.508s-19.195 7.3125-26.508 0c-3.5391-3.5391-5.4844-8.25-5.4844-13.266s1.9453-9.7266 5.4844-13.266zm-106.08 106.08c7.3125-7.3125 19.195-7.3125 26.508 0s7.3125 19.195 0 26.508-19.195 7.3125-26.508 0-7.3125-19.195 0-26.508zm-93.305 13.758c10.57-10.57 26.461-13.336 40.5-7.0547 0.14062 0.070312 0.28125 0.11719 0.44531 0.1875l9.5391 3.9844c-0.63281 15.188 4.7578 30.586 16.336 42.141 10.969 10.969 25.359 16.453 39.773 16.453s28.805-5.4844 39.773-16.453c17.273-17.273 20.883-43.078 10.945-63.961l31.148-31.148c7.6406 3.6328 15.914 5.5078 24.188 5.5078 14.414 0 28.805-5.4844 39.773-16.453 21.938-21.938 21.938-57.609 0-79.547-11.742-11.742-27.445-17.156-42.867-16.312l-3.7734-9.0469c-0.070312-0.14062-0.11719-0.28125-0.1875-0.42188-6.1875-13.828-3.1406-30.305 7.5703-41.016 14.344-14.344 37.664-14.344 52.008 0l0.51562 0.51562c16.922 16.922 52.125 52.125 72.891 91.594 23.367 44.391 21.188 79.477-6.6094 107.27-29.719 29.719-57.961 22.664-60.492 21.938-6.8203-2.4609-13.922-0.5625-19.078 4.5703l-26.508 26.508c-4.9453 4.9453-6.7266 12.234-4.6172 18.914 0.09375 0.30469 8.4375 30.305-22.406 61.148-27.609 27.609-62.367 29.836-106.22 6.7734-39.141-20.578-74.461-55.922-91.453-72.891l-1.1953-1.1953c-14.344-14.344-14.344-37.664 0-52.008z"/>
  <path d="m879.77 307.66 12.656 12.656c-1.8984 17.906 0 53.016 33.914 86.953 17.367 17.367 42.961 33.586 77.977 33.586 20.695 0 44.695-5.6719 72.234-20.156 44.18-23.227 82.219-61.289 100.52-79.57l1.1953-1.1953c28.969-28.969 28.969-76.078 0-105.05-21.586-21.586-53.789-27.422-82.102-14.859l-8.8594 3.7031c-0.77344-0.86719-1.5234-1.7812-2.3672-2.6016-17.273-17.273-43.078-20.883-63.961-10.945l-31.148-31.148c9.9375-20.906 6.3281-46.688-10.945-63.961-0.65625-0.65625-1.3828-1.2422-2.0859-1.875l3.6797-8.8359c12.352-27.867 6.1875-61.055-15.375-82.617-28.969-28.969-76.078-28.969-105-0.023438l-0.5625 0.53906c-18.234 18.234-56.156 56.156-79.57 100.64-39.328 74.719-14.484 123.49 13.289 151.24 33.867 33.867 68.648 35.555 86.531 33.492zm152.11-60c3.6562-3.6562 8.4609-5.4609 13.242-5.4609s9.6094 1.8281 13.266 5.4844c7.3125 7.3125 7.3125 19.219 0 26.508-7.3125 7.2891-19.195 7.3125-26.508 0s-7.3125-19.195 0-26.508zm-79.523-79.57c-7.3125 7.2891-19.195 7.2891-26.508 0-7.3125-7.3125-7.3125-19.219 0-26.508 7.3125-7.2891 19.195-7.3125 26.508 0s7.3125 19.195 0 26.508zm-139.22-27.703c20.766-39.469 55.969-74.672 72.867-91.57l0.53906-0.53906c14.344-14.344 37.664-14.344 52.008 0 10.711 10.711 13.758 27.188 7.5703 41.016-0.070312 0.14062-0.11719 0.28125-0.1875 0.42188l-3.7734 9.0469c-15.422-0.84375-31.102 4.5469-42.867 16.289-21.938 21.938-21.938 57.609 0 79.547 10.969 10.969 25.359 16.453 39.773 16.453 8.2969 0 16.57-1.875 24.188-5.5078l31.148 31.148c-9.9375 20.906-6.3281 46.688 10.945 63.961 10.969 10.969 25.359 16.453 39.773 16.453s28.805-5.4844 39.773-16.453c11.555-11.578 16.969-26.953 16.336-42.141l9.5391-3.9844c0.14062-0.070312 0.28125-0.11719 0.44531-0.1875 14.039-6.2812 29.93-3.5156 40.5 7.0547 14.344 14.344 14.344 37.664-0.023438 52.031l-1.1719 1.1719c-16.969 16.992-52.312 52.312-91.453 72.891-43.852 23.062-78.609 20.859-106.22-6.7734-29.883-29.883-23.062-58.734-22.383-61.266 2.2969-6.75 0.39844-13.734-4.6641-18.797l-26.508-26.508c-5.0156-5.0156-12.445-6.7734-19.195-4.5234-0.28125 0.09375-29.648 8.7422-60.352-21.984-27.797-27.797-29.977-62.883-6.6094-107.27z"/>
  <path d="m706.5 1037.3c-69.492 16.875-143.48 16.875-212.98 0-10.055-2.4375-20.203 3.7266-22.641 13.805-2.4375 10.055 3.7266 20.203 13.805 22.641 37.641 9.1406 76.453 13.758 115.34 13.758 38.883 0 77.695-4.6406 115.34-13.758 10.055-2.4375 16.242-12.586 13.805-22.641-2.4375-10.055-12.586-16.242-22.641-13.805z"/>
  <path d="m148.73 471.42c-10.078-2.4375-20.203 3.7734-22.617 13.828-9.0469 37.453-13.617 76.055-13.617 114.75s4.5938 77.297 13.617 114.75c2.0625 8.5781 9.75 14.344 18.211 14.344 1.4531 0 2.9297-0.16406 4.4062-0.53906 10.055-2.4375 16.266-12.562 13.828-22.617-8.3438-34.57-12.586-70.219-12.586-105.94s4.2422-71.367 12.586-105.94c2.4375-10.055-3.7734-20.203-13.828-22.617z"/>
  <path d="m493.5 162.7c69.516-16.875 143.48-16.875 212.98 0 1.4766 0.35156 2.9766 0.53906 4.4297 0.53906 8.4609 0 16.125-5.7656 18.211-14.344 2.4375-10.055-3.7266-20.203-13.805-22.641-75.281-18.258-155.39-18.258-230.67 0-10.055 2.4375-16.242 12.586-13.805 22.641 2.4375 10.055 12.586 16.242 22.641 13.805z"/>
  <path d="m1051.2 728.58c1.4766 0.35156 2.9531 0.53906 4.4062 0.53906 8.4609 0 16.148-5.7656 18.211-14.344 9.0469-37.453 13.617-76.055 13.617-114.75 0-38.695-4.5938-77.297-13.617-114.75-2.4375-10.055-12.562-16.242-22.617-13.828-10.055 2.4375-16.266 12.562-13.828 22.617 8.3438 34.57 12.586 70.219 12.586 105.94s-4.2422 71.367-12.586 105.94c-2.4375 10.055 3.75 20.203 13.828 22.617z"/>
  <path d="m1010.9 859.55c0 10.355-8.3945 18.75-18.75 18.75s-18.75-8.3945-18.75-18.75 8.3945-18.75 18.75-18.75 18.75 8.3945 18.75 18.75"/>
  <path d="m878.27 992.11c0 10.355-8.3945 18.75-18.75 18.75-10.355 0-18.75-8.3945-18.75-18.75s8.3945-18.75 18.75-18.75c10.355 0 18.75 8.3945 18.75 18.75"/>
  <path d="m226.64 859.55c0 10.355-8.3945 18.75-18.75 18.75s-18.75-8.3945-18.75-18.75 8.3945-18.75 18.75-18.75 18.75 8.3945 18.75 18.75"/>
  <path d="m359.23 992.11c0 10.355-8.3945 18.75-18.75 18.75-10.355 0-18.75-8.3945-18.75-18.75s8.3945-18.75 18.75-18.75c10.355 0 18.75 8.3945 18.75 18.75"/>
  <path d="m1010.9 340.48c0 10.355-8.3945 18.75-18.75 18.75s-18.75-8.3945-18.75-18.75c0-10.355 8.3945-18.75 18.75-18.75s18.75 8.3945 18.75 18.75"/>
  <path d="m878.27 207.89c0 10.355-8.3945 18.75-18.75 18.75-10.355 0-18.75-8.3945-18.75-18.75s8.3945-18.75 18.75-18.75c10.355 0 18.75 8.3945 18.75 18.75"/>
  <path d="m226.64 340.48c0 10.355-8.3945 18.75-18.75 18.75s-18.75-8.3945-18.75-18.75c0-10.355 8.3945-18.75 18.75-18.75s18.75 8.3945 18.75 18.75"/>
  <path d="m359.23 207.89c0 10.355-8.3945 18.75-18.75 18.75-10.355 0-18.75-8.3945-18.75-18.75s8.3945-18.75 18.75-18.75c10.355 0 18.75 8.3945 18.75 18.75"/>
 </g>
</svg>
