<?xml version="1.0" encoding="utf-8"?>
<!-- Generator: Adobe Illustrator 26.3.1, SVG Export Plug-In . SVG Version: 6.00 Build 0)  -->
<svg version="1.1" id="Layer_1" xmlns="http://www.w3.org/2000/svg" x="0px" y="0px"
     viewBox="0 0 284.4 207" style="enable-background:new 0 0 284.4 207;" xml:space="preserve">
<style type="text/css">
	.st0{fill:#1D1D1B;}
</style>
<path class="st0" d="M20.7,0h243c11.4,0,20.7,10.1,20.7,22.5v0c0,12.4-9.3,22.5-20.7,22.5h-243C9.3,45,0,34.9,0,22.5v0
	C0,10.1,9.3,0,20.7,0z"/>
<path class="st0" d="M20.7,126h243c11.4,0,20.7-10.1,20.7-22.5v0c0-12.4-9.3-22.5-20.7-22.5h-243C9.3,81,0,91.1,0,103.5v0
	C0,115.9,9.3,126,20.7,126z"/>
<path class="st0" d="M20.7,207h243c11.4,0,20.7-10.1,20.7-22.5v0c0-12.4-9.3-22.5-20.7-22.5h-243C9.3,162,0,172.1,0,184.5v0
	C0,196.9,9.3,207,20.7,207z"/>
</svg>
