<?xml version="1.0" encoding="utf-8"?>
<!-- Generator: Adobe Illustrator 26.3.1, SVG Export Plug-In . SVG Version: 6.00 Build 0)  -->
<svg class="nav_icon" viewBox="0 0 284.4 207" xml:space="preserve">
    <path d="M20.7 0h243c11.4 0 20.7 10.1 20.7 22.5S275.1 45 263.7 45h-243C9.3 45 0 34.9 0 22.5S9.3 0 20.7 0zm0 126h243c11.4 0 20.7-10.1 20.7-22.5S275.1 81 263.7 81h-243C9.3 81 0 91.1 0 103.5S9.3 126 20.7 126zm0 81h243c11.4 0 20.7-10.1 20.7-22.5s-9.3-22.5-20.7-22.5h-243C9.3 162 0 172.1 0 184.5S9.3 207 20.7 207z"/>
</svg>