<?xml version="1.0" encoding="UTF-8"?>
<svg width="1200pt" height="1200pt" version="1.1" viewBox="0 0 1200 1200" xmlns="http://www.w3.org/2000/svg">
 <g>
  <path d="m1129.4 811.77c-19.48 0-35.293 15.777-35.293 35.293v141.18c0 58.375-47.508 105.88-105.88 105.88h-776.4c-58.375 0-105.88-47.508-105.88-105.88v-141.18c0-19.52-15.812-35.293-35.293-35.293s-35.293 15.777-35.293 35.293v141.18c0 97.305 79.164 176.47 176.47 176.47h776.4c97.305 0 176.47-79.164 176.47-176.47v-141.18c0.003906-19.516-15.809-35.293-35.293-35.293z"/>
  <path d="m211.8 494.12h211.77v458.82c0 19.52 15.848 35.293 35.293 35.293h282.35c19.48 0 35.293-15.777 35.293-35.293v-458.82h211.77c31.375 0 47.152-38.082 24.953-60.246l-388.23-388.23c-13.766-13.766-36.141-13.766-49.906 0l-388.23 388.23c-22.164 22.164-6.3906 60.246 24.953 60.246zm388.27-373.62 303 303.04h-161.86c-19.48 0-35.293 15.777-35.293 35.293v458.82h-211.77v-458.82c0-19.52-15.848-35.293-35.293-35.293h-161.82z"/>
 </g>
</svg>
