<?xml version="1.0" encoding="UTF-8"?>
<svg width="1200pt" height="1200pt" version="1.1" viewBox="0 0 1200 1200" xmlns="http://www.w3.org/2000/svg">
 <path d="m1012.5 600c0.054688 87.047-27.23 171.91-78.008 242.62-50.773 70.707-122.47 123.68-204.97 151.44-82.5 27.766-171.64 28.914-254.83 3.2891-83.191-25.621-156.23-76.727-208.82-146.1-7.4102-10.688-8.7539-24.449-3.5547-36.367 5.1992-11.918 16.203-20.293 29.078-22.129 12.871-1.832 25.777 3.1328 34.102 13.121 46.449 61.387 112.3 105.24 186.85 124.43 74.547 19.191 153.39 12.586 223.71-18.742 70.316-31.332 127.95-85.535 163.54-153.79 35.582-68.262 47.016-146.55 32.438-222.14-14.582-75.586-54.312-144.01-112.73-194.14-58.418-50.125-132.09-79.004-209.01-81.93-76.922-2.9297-152.57 20.266-214.63 65.805-62.062 45.543-106.88 110.75-127.16 185l5.25-5.25c7.1602-6.9609 16.793-10.793 26.781-10.652 9.9844 0.14062 19.508 4.2422 26.469 11.402s10.793 16.793 10.652 26.781c-0.14062 9.9844-4.2422 19.508-11.402 26.469l-82.125 78.375c-6.9922 6.7578-16.336 10.539-26.062 10.539s-19.07-3.7812-26.062-10.539l-82.125-78.375c-9.6445-9.3789-13.555-23.191-10.258-36.234 3.2969-13.043 13.305-23.336 26.25-27 12.945-3.6641 26.863-0.14453 36.508 9.2344l25.125 24.75c17.621-102.56 73.09-194.78 155.43-258.41 82.344-63.633 185.57-94.051 289.26-85.238 103.69 8.8164 200.3 56.219 270.72 132.84 70.422 76.621 109.53 176.88 109.59 280.94zm-487.5-37.5h225c13.398 0 25.777-7.1484 32.477-18.75 6.6992-11.602 6.6992-25.898 0-37.5-6.6992-11.602-19.078-18.75-32.477-18.75h-225c-13.398 0-25.777 7.1484-32.477 18.75-6.6992 11.602-6.6992 25.898 0 37.5 6.6992 11.602 19.078 18.75 32.477 18.75zm0 150h112.5c13.398 0 25.777-7.1484 32.477-18.75 6.6992-11.602 6.6992-25.898 0-37.5-6.6992-11.602-19.078-18.75-32.477-18.75h-112.5c-13.398 0-25.777 7.1484-32.477 18.75-6.6992 11.602-6.6992 25.898 0 37.5 6.6992 11.602 19.078 18.75 32.477 18.75z"/>
</svg>
