<?xml version="1.0" encoding="UTF-8" standalone="no"?>
<!DOCTYPE svg PUBLIC "-//W3C//DTD SVG 1.1//EN" "http://www.w3.org/Graphics/SVG/1.1/DTD/svg11.dtd">
<svg width="100%" height="100%" viewBox="0 0 1200 1200" version="1.1" xmlns="http://www.w3.org/2000/svg" xmlns:xlink="http://www.w3.org/1999/xlink" xml:space="preserve" xmlns:serif="http://www.serif.com/" style="fill-rule:evenodd;clip-rule:evenodd;stroke-linejoin:round;stroke-miterlimit:2;">
    <path d="M448.8,1098C429.601,1098 411.601,1090.8 398.402,1077.6L84.002,753.602C54.002,726 52.803,679.204 81.604,649.202C109.206,619.202 156.002,618.003 186.004,646.804L416.404,811.204C429.603,823.204 450.006,820.805 460.802,806.403L1006.8,132.003C1030.8,99.605 1077.6,92.401 1110,117.605C1142.4,141.605 1149.6,188.406 1124.4,220.805L507.6,1068.01C494.401,1084.81 475.202,1095.61 454.799,1096.81C452.396,1098.01 451.197,1098.01 448.799,1098.01L448.8,1098Z" style="fill:rgb(0,225,80);fill-rule:nonzero;"/>
</svg>
