<?xml version="1.0" encoding="UTF-8"?>
<svg width="1200pt" height="1200pt" version="1.1" viewBox="0 0 1200 1200" xmlns="http://www.w3.org/2000/svg">
 <path d="m82.352 382.35h1035.3c44.117 0 82.352 38.234 82.352 82.352v267.65c0 47.059-38.234 85.293-82.352 85.293h-1035.3c-44.117 0-82.352-38.234-82.352-85.293v-267.65c0-44.117 38.234-82.352 82.352-82.352zm105.88 102.94c0-14.707 11.766-23.531 23.531-23.531s23.531 8.8242 23.531 23.531v26.469l23.531-14.707c8.8242-5.8828 23.531-2.9414 29.41 8.8242 5.8828 11.766 2.9414 23.531-8.8242 32.352l-23.531 11.766 23.531 14.707c11.766 5.8828 14.707 20.59 8.8242 29.41-5.8828 11.766-20.59 14.707-29.41 8.8242l-23.531-11.766v26.469c0 11.766-11.766 20.59-23.531 20.59s-23.531-8.8242-23.531-20.59v-26.469l-23.531 11.766c-8.8242 5.8828-23.531 2.9414-29.41-8.8242-5.8828-11.766-2.9414-23.531 8.8242-29.41l23.531-14.707-23.531-11.766c-11.766-8.8242-14.707-20.59-8.8242-32.352 5.8828-11.766 20.59-14.707 29.41-8.8242l23.531 14.707zm-32.352 252.94c-14.707 0-23.531-11.766-23.531-23.531s8.8242-23.531 23.531-23.531h111.77c14.707 0 23.531 11.766 23.531 23.531s-8.8242 23.531-23.531 23.531zm291.18-252.94c0-14.707 11.766-23.531 23.531-23.531s23.531 8.8242 23.531 23.531v26.469l23.531-14.707c8.8242-5.8828 23.531-2.9414 29.41 8.8242 5.8828 11.766 2.9414 23.531-8.8242 32.352l-23.531 11.766 23.531 14.707c11.766 5.8828 14.707 20.59 8.8242 29.41-5.8828 11.766-20.59 14.707-29.41 8.8242l-23.531-11.766v26.469c0 11.766-11.766 20.59-23.531 20.59s-23.531-8.8242-23.531-20.59v-26.469l-23.531 11.766c-8.8242 5.8828-23.531 2.9414-29.41-8.8242-5.8828-11.766-2.9414-23.531 8.8242-29.41l23.531-14.707-23.531-11.766c-11.766-8.8242-14.707-20.59-8.8242-32.352 5.8828-11.766 20.59-14.707 29.41-8.8242l23.531 14.707zm258.82 0c0-14.707 11.766-23.531 23.531-23.531 11.766 0 23.531 8.8242 23.531 23.531v26.469l23.531-14.707c8.8242-5.8828 23.531-2.9414 29.41 8.8242 5.8828 11.766 2.9414 23.531-8.8242 32.352l-20.59 11.766 20.59 14.707c11.766 5.8828 14.707 20.59 8.8242 29.41-5.8828 11.766-20.59 14.707-29.41 8.8242l-23.531-11.766v26.469c0 11.766-11.766 20.59-23.531 20.59-11.766 0-23.531-8.8242-23.531-20.59v-26.469l-23.531 11.766c-8.8242 5.8828-23.531 2.9414-29.41-8.8242-5.8828-11.766-2.9414-23.531 8.8242-29.41l23.531-14.707-23.531-11.766c-11.766-8.8242-14.707-20.59-8.8242-32.352 5.8828-11.766 20.59-14.707 29.41-8.8242l23.531 14.707zm258.82 0c0-14.707 11.766-23.531 23.531-23.531s23.531 8.8242 23.531 23.531v26.469l23.531-14.707c8.8242-5.8828 23.531-2.9414 29.41 8.8242 5.8828 11.766 2.9414 23.531-8.8242 32.352l-20.59 11.766 20.59 14.707c11.766 5.8828 14.707 20.59 8.8242 29.41-5.8828 11.766-20.59 14.707-29.41 8.8242l-23.531-11.766v26.469c0 11.766-11.766 20.59-23.531 20.59s-23.531-8.8242-23.531-20.59v-26.469l-23.531 11.766c-8.8242 5.8828-23.531 2.9414-29.41-8.8242-5.8828-11.766-2.9414-23.531 8.8242-29.41l23.531-14.707-23.531-11.766c-11.766-8.8242-14.707-20.59-8.8242-32.352 5.8828-11.766 20.59-14.707 29.41-8.8242l23.531 14.707zm-550 252.94c-14.707 0-23.531-11.766-23.531-23.531s8.8242-23.531 23.531-23.531h111.77c14.707 0 23.531 11.766 23.531 23.531s-8.8242 23.531-23.531 23.531zm258.82 0c-14.707 0-23.531-11.766-23.531-23.531s8.8242-23.531 23.531-23.531h111.77c14.707 0 23.531 11.766 23.531 23.531s-8.8242 23.531-23.531 23.531zm258.82 0c-11.766 0-23.531-11.766-23.531-23.531s11.766-23.531 23.531-23.531h111.77c14.707 0 23.531 11.766 23.531 23.531s-8.8242 23.531-23.531 23.531z" fill="#6f6f6f" fill-rule="evenodd"/>
</svg>
