<?xml version="1.0" encoding="UTF-8" standalone="no"?>
<!DOCTYPE svg PUBLIC "-//W3C//DTD SVG 1.1//EN" "http://www.w3.org/Graphics/SVG/1.1/DTD/svg11.dtd">
<svg width="100%" height="100%" viewBox="0 0 1200 1200" version="1.1" xmlns="http://www.w3.org/2000/svg" xmlns:xlink="http://www.w3.org/1999/xlink" xml:space="preserve" xmlns:serif="http://www.serif.com/" style="fill-rule:evenodd;clip-rule:evenodd;stroke-linejoin:round;stroke-miterlimit:2;">
    <g transform="matrix(1.73078,0,0,1.73078,-438.473,-438.468)">
        <path d="M576.4,316.61L576.4,883.394C576.4,896.441 565.826,907.003 552.779,907.003L434.689,907.003C390.864,907.003 348.797,889.589 317.809,858.597C286.805,827.592 269.379,785.549 269.379,741.697L269.379,458.307C269.379,414.458 286.805,372.415 317.809,341.407C348.794,310.415 390.861,293.001 434.689,293.001L552.779,293.001C565.826,293.001 576.4,303.563 576.4,316.61ZM529.158,340.223L434.693,340.223C403.388,340.223 373.349,352.668 351.213,374.809C329.057,396.954 316.623,426.993 316.623,458.309L316.623,741.699C316.623,773.015 329.057,803.054 351.213,825.199C373.35,847.34 403.389,859.785 434.693,859.785L529.158,859.785L529.158,340.223ZM399.27,706.27C399.27,693.227 409.844,682.653 422.887,682.653C435.93,682.653 446.5,693.227 446.5,706.27C446.5,719.313 435.93,729.887 422.887,729.887C409.844,729.887 399.27,719.313 399.27,706.27ZM352.03,659.04C352.03,645.997 362.604,635.423 375.647,635.423C388.69,635.423 399.264,645.997 399.264,659.04C399.264,672.083 388.69,682.653 375.647,682.653C362.604,682.653 352.03,672.083 352.03,659.04ZM399.27,611.81C399.27,598.767 409.844,588.197 422.887,588.197C435.93,588.197 446.5,598.767 446.5,611.81C446.5,624.853 435.93,635.427 422.887,635.427C409.844,635.427 399.27,624.853 399.27,611.81ZM422.88,399.27C461.974,399.27 493.728,431.02 493.728,470.118C493.728,509.216 461.974,540.966 422.88,540.966C383.782,540.966 352.028,509.216 352.028,470.118C352.028,431.02 383.782,399.27 422.88,399.27ZM422.88,446.5C409.841,446.5 399.263,457.082 399.263,470.117C399.263,483.152 409.841,493.734 422.88,493.734C435.915,493.734 446.493,483.152 446.493,470.117C446.493,457.082 435.915,446.5 422.88,446.5ZM446.5,659.04C446.5,645.997 457.074,635.423 470.117,635.423C483.16,635.423 493.734,645.997 493.734,659.04C493.734,672.083 483.16,682.653 470.117,682.653C457.074,682.653 446.5,672.083 446.5,659.04Z" style="fill:rgb(111,111,111);"/>
        <path d="M670.85,340.21L670.85,765.3C670.85,778.335 660.252,788.925 647.229,788.925C634.202,788.925 623.608,778.335 623.608,765.3L623.608,316.6C623.608,303.553 634.182,292.991 647.229,292.991L765.319,292.991C809.147,292.991 851.214,310.405 882.199,341.397C913.203,372.405 930.629,414.448 930.629,458.297L930.629,741.687C930.629,785.535 913.203,827.582 882.199,858.587C851.211,889.583 809.144,906.997 765.319,906.997L647.229,906.997C634.182,906.997 623.608,896.435 623.608,883.384L623.608,859.775C623.608,846.74 634.202,836.15 647.229,836.15C660.252,836.15 670.85,846.74 670.85,859.775L765.315,859.775C796.62,859.775 826.659,847.33 848.795,825.189C870.951,803.044 883.385,773.005 883.385,741.689L883.385,458.299C883.385,426.983 870.951,396.944 848.795,374.799C826.658,352.654 796.619,340.213 765.315,340.213L670.85,340.21ZM777.12,729.89C738.026,729.89 706.272,698.136 706.272,659.042C706.272,619.944 738.026,588.194 777.12,588.194C816.218,588.194 847.968,619.944 847.968,659.042C847.968,698.136 816.218,729.89 777.12,729.89ZM777.12,682.656C790.159,682.656 800.737,672.078 800.737,659.043C800.737,646.004 790.159,635.426 777.12,635.426C764.085,635.426 753.507,646.004 753.507,659.043C753.507,672.078 764.085,682.656 777.12,682.656ZM753.51,422.88C753.51,409.837 764.08,399.263 777.123,399.263C790.166,399.263 800.74,409.837 800.74,422.88C800.74,435.923 790.166,446.493 777.123,446.493C764.08,446.493 753.51,435.923 753.51,422.88ZM800.74,470.11C800.74,457.067 811.314,446.493 824.357,446.493C837.4,446.493 847.97,457.067 847.97,470.11C847.97,483.153 837.4,493.727 824.357,493.727C811.314,493.727 800.74,483.153 800.74,470.11ZM753.51,517.34C753.51,504.297 764.08,493.727 777.123,493.727C790.166,493.727 800.74,504.297 800.74,517.34C800.74,530.383 790.166,540.957 777.123,540.957C764.08,540.957 753.51,530.383 753.51,517.34ZM706.27,470.11C706.27,457.067 716.844,446.493 729.887,446.493C742.93,446.493 753.504,457.067 753.504,470.11C753.504,483.153 742.93,493.727 729.887,493.727C716.844,493.727 706.27,483.153 706.27,470.11Z" style="fill:rgb(111,111,111);"/>
    </g>
</svg>
