<?xml version="1.0" encoding="UTF-8" standalone="no"?>
<!DOCTYPE svg PUBLIC "-//W3C//DTD SVG 1.1//EN" "http://www.w3.org/Graphics/SVG/1.1/DTD/svg11.dtd">
<svg width="100%" height="100%" viewBox="0 0 1200 1200" version="1.1" xmlns="http://www.w3.org/2000/svg"
     xml:space="preserve"
     style="fill-rule:evenodd;clip-rule:evenodd;stroke-linejoin:round;stroke-miterlimit:2;">
    <g>
        <path d="M1057.2,212.4C1057.2,92.4 826.8,30 600,30C373.2,30 142.8,92.398 142.8,212.4C142.8,244.798 159.601,272.4 187.198,295.201L239.999,1020C242.397,1123.2 427.199,1170 599.999,1170C772.799,1170 957.599,1123.2 959.999,1020L1012.8,296.401C1040.4,272.401 1057.2,244.803 1057.2,212.401L1057.2,212.4ZM600,110.4C834,110.4 976.8,176.4 976.8,213.6C976.8,250.803 834,315.6 600,315.6C366,315.6 223.2,249.6 223.2,212.4C223.2,175.197 366,110.4 600,110.4ZM879.6,1015.2L879.6,1017.6C878.401,1034.4 788.401,1089.6 600,1089.6C411.6,1089.6 321.6,1034.4 320.4,1017.6L271.201,343.198C358.803,377.999 480.001,395.999 600.001,395.999C720.001,395.999 841.201,377.999 928.801,343.198L879.6,1015.2Z" style="fill:rgb(111,111,111);fill-rule:nonzero;"/>
        <path d="M745.199,990L747.598,990C766.797,990 783.598,974.398 784.797,955.199L811.195,508.799C812.395,488.401 796.797,470.401 776.394,469.197C755.996,467.998 737.996,483.595 736.792,503.998L710.394,950.398C709.199,972 724.8,988.8 745.199,990Z" style="fill:rgb(111,111,111);fill-rule:nonzero;"/>
        <path d="M562.8,507.6L562.8,954C562.8,974.398 579.601,991.199 599.999,991.199C620.397,991.199 637.198,974.398 637.198,954L637.198,507.6C637.198,487.202 620.397,470.401 599.999,470.401C579.601,469.198 562.8,485.999 562.8,507.6Z" style="fill:rgb(111,111,111);fill-rule:nonzero;"/>
        <path d="M423.6,469.2C403.202,470.399 387.6,488.399 388.799,508.802L415.197,955.202C416.396,975.6 433.197,990.003 452.396,990.003L454.794,990.003C475.192,988.804 490.794,970.804 489.595,950.401L463.197,504.001C461.998,484.802 443.998,468.001 423.599,469.2L423.6,469.2Z" style="fill:rgb(111,111,111);fill-rule:nonzero;"/>
    </g>
</svg>
