<?xml version="1.0" encoding="UTF-8"?>
<svg width="1200pt" height="1200pt" version="1.1" viewBox="0 0 1200 1200" xmlns="http://www.w3.org/2000/svg">
 <path d="m600 75c144.89 0 262.5 117.61 262.5 262.5s-117.61 262.5-262.5 262.5-262.5-117.61-262.5-262.5 117.61-262.5 262.5-262.5zm187.5 600c144.98 0 262.5 117.52 262.5 262.5v75c0 29.859-11.859 58.406-32.906 79.594-21.188 21.047-49.734 32.906-79.594 32.906h-675c-29.859 0-58.406-11.859-79.594-32.906-21.047-21.188-32.906-49.734-32.906-79.594v-75c0-144.98 117.52-262.5 262.5-262.5z" fill="#6f6f6f" fill-rule="evenodd"/>
</svg>
