<?xml version="1.0" encoding="UTF-8" standalone="no"?>
<!DOCTYPE svg PUBLIC "-//W3C//DTD SVG 1.1//EN" "http://www.w3.org/Graphics/SVG/1.1/DTD/svg11.dtd">
<svg width="100%" height="100%" viewBox="0 0 1200 1200" version="1.1" xmlns="http://www.w3.org/2000/svg"
     xml:space="preserve"
     style="fill-rule:evenodd;clip-rule:evenodd;stroke-linejoin:round;stroke-miterlimit:2;">
    <g transform="matrix(1.2558,0,0,1.2558,-97.5828,-153.784)">
        <path d="M1012.5,600C1012.56,687.047 985.27,771.91 934.492,842.62C883.719,913.327 812.022,966.3 729.522,994.06C647.022,1021.83 557.882,1022.97 474.692,997.349C391.501,971.728 318.462,920.622 265.872,851.249C258.462,840.561 257.118,826.8 262.317,814.882C267.516,802.964 278.52,794.589 291.395,792.753C304.266,790.921 317.172,795.886 325.497,805.874C371.946,867.261 437.797,911.114 512.347,930.304C586.894,949.495 665.737,942.89 736.057,911.562C806.373,880.23 864.007,826.027 899.597,757.772C935.179,689.51 946.613,611.222 932.035,535.632C917.453,460.046 877.723,391.622 819.305,341.492C760.887,291.367 687.215,262.488 610.295,259.562C533.373,256.632 457.725,279.828 395.665,325.367C333.603,370.91 288.785,436.117 268.505,510.367L273.755,505.117C280.915,498.156 290.548,494.324 300.536,494.465C310.521,494.606 320.044,498.707 327.005,505.867C333.966,513.027 337.798,522.66 337.657,532.648C337.517,542.632 333.415,552.156 326.255,559.117L244.13,637.492C237.138,644.25 227.794,648.031 218.068,648.031C208.342,648.031 198.998,644.25 192.006,637.492L109.881,559.117C100.237,549.738 96.326,535.926 99.623,522.883C102.92,509.84 112.928,499.547 125.873,495.883C138.818,492.219 152.736,495.739 162.381,505.117L187.506,529.867C205.127,427.307 260.596,335.087 342.936,271.457C425.28,207.824 528.506,177.406 632.196,186.219C735.886,195.036 832.496,242.438 902.916,319.059C973.338,395.68 1012.45,495.939 1012.51,599.999L1012.5,600ZM525,562.5L750,562.5C763.398,562.5 775.777,555.352 782.477,543.75C789.176,532.148 789.176,517.852 782.477,506.25C775.778,494.648 763.399,487.5 750,487.5L525,487.5C511.602,487.5 499.223,494.648 492.523,506.25C485.824,517.852 485.824,532.148 492.523,543.75C499.222,555.352 511.601,562.5 525,562.5ZM525,712.5L637.5,712.5C650.898,712.5 663.277,705.352 669.977,693.75C676.676,682.148 676.676,667.852 669.977,656.25C663.278,644.648 650.899,637.5 637.5,637.5L525,637.5C511.602,637.5 499.223,644.648 492.523,656.25C485.824,667.852 485.824,682.148 492.523,693.75C499.222,705.352 511.601,712.5 525,712.5Z" style="fill:rgb(111,111,111);fill-rule:nonzero;stroke:rgb(111,111,111);stroke-width:19.07px;"/>
    </g>
</svg>
