<?xml version="1.0" encoding="UTF-8" standalone="no"?>
<!DOCTYPE svg PUBLIC "-//W3C//DTD SVG 1.1//EN" "http://www.w3.org/Graphics/SVG/1.1/DTD/svg11.dtd">
<svg width="100%" height="100%" viewBox="0 0 1200 1200" version="1.1" xmlns="http://www.w3.org/2000/svg"
     xml:space="preserve"
     style="fill-rule:evenodd;clip-rule:evenodd;stroke-linejoin:round;stroke-miterlimit:2;">
    <g transform="matrix(0.954679,0.297637,-0.297637,0.954679,205.828,-151.352)">
        <path d="M718.5,60.375C699.148,60.852 680.242,70.855 670.125,88.5L261.745,801C259.054,805.836 257.515,811.223 257.245,816.75L239.995,1101.75C239.429,1110.72 242.233,1119.58 247.866,1126.58C253.499,1133.59 261.546,1138.23 270.428,1139.61C279.311,1140.98 288.385,1138.98 295.869,1134L532.869,976.5C537.494,973.421 541.346,969.316 544.119,964.5L952.499,252.38C967.917,225.493 958.374,190.005 931.499,174.38L748.119,67.88C741.4,63.973 734.107,61.626 726.744,60.755C723.982,60.426 721.26,60.313 718.494,60.38L718.5,60.375ZM725.25,138L882.75,229.125L499.5,897.005L342,805.88L641.25,284.63L720.375,330.755C728.629,335.579 738.465,336.927 747.711,334.501C756.961,332.075 764.867,326.075 769.691,317.817C774.515,309.563 775.859,299.731 773.433,290.481C771.007,281.235 765.004,273.329 756.749,268.504L676.874,222.004L725.25,138ZM325.5,879.38L444.75,948.38L316.13,1033.88L325.5,879.38Z" style="fill:rgb(111,111,111);fill-rule:nonzero;"/>
    </g>
</svg>
