<?xml version="1.0" encoding="UTF-8" standalone="no"?>
<!DOCTYPE svg PUBLIC "-//W3C//DTD SVG 1.1//EN" "http://www.w3.org/Graphics/SVG/1.1/DTD/svg11.dtd">
<svg width="100%" height="100%" viewBox="0 0 1200 1200" version="1.1" xmlns="http://www.w3.org/2000/svg"
     xml:space="preserve"
     style="fill-rule:evenodd;clip-rule:evenodd;stroke-linejoin:round;stroke-miterlimit:2;">
    <g>
        <path d="M1046.4,42C1034.4,32.398 1020,27.602 1004.4,30L390,132C364.801,135.602 346.801,157.199 346.801,182.398L346.801,369.598C346.801,398.399 369.602,421.2 398.403,421.2C427.204,421.2 450.005,398.399 450.005,369.598L450.005,225.598L962.405,140.399L962.405,1057.2L450.005,972L450.005,828C450.005,799.199 427.204,776.398 398.403,776.398C369.602,776.398 346.801,799.199 346.801,828L346.801,1015.2C346.801,1040.4 364.801,1062 390,1065.6L1004.4,1167.6C1006.8,1167.6 1010.4,1168.8 1012.8,1168.8C1024.8,1168.8 1036.8,1164 1046.4,1156.8C1058.4,1147.2 1064.4,1132.8 1064.4,1117.19L1064.4,79.195C1064.4,66 1057.2,51.601 1046.4,42L1046.4,42Z" style="fill:rgb(111,111,111);fill-rule:nonzero;stroke:rgb(111,111,111);stroke-width:23.95px;"/>
        <path d="M566.4,776.4C546.002,796.798 546.002,829.201 566.4,848.4C576.002,858.002 589.201,862.798 602.4,862.798C615.599,862.798 628.798,857.997 638.4,848.4L852,634.8C872.398,614.402 872.398,581.999 852,562.8L638.4,349.2C618.002,328.802 585.599,328.802 566.4,349.2C546.002,369.598 546.002,402.001 566.4,421.2L692.4,547.2L187.2,547.2C158.399,547.2 135.598,570.001 135.598,598.802C135.598,627.603 158.399,650.404 187.2,650.404L693.6,650.404L566.4,776.4Z" style="fill:rgb(111,111,111);fill-rule:nonzero;stroke:rgb(111,111,111);stroke-width:23.95px;"/>
    </g>
</svg>
