<?xml version="1.0" encoding="UTF-8" standalone="no"?>
<!DOCTYPE svg PUBLIC "-//W3C//DTD SVG 1.1//EN" "http://www.w3.org/Graphics/SVG/1.1/DTD/svg11.dtd">
<svg width="100%" height="100%" viewBox="0 0 1200 1200" version="1.1" xmlns="http://www.w3.org/2000/svg" xmlns:xlink="http://www.w3.org/1999/xlink" xml:space="preserve" xmlns:serif="http://www.serif.com/" style="fill-rule:evenodd;clip-rule:evenodd;stroke-linejoin:round;stroke-miterlimit:2;">
    <g transform="matrix(0.926266,0,0,0.926266,44.2428,44.2417)">
        <path d="M1129.4,811.77C1109.92,811.77 1094.11,827.547 1094.11,847.063L1094.11,988.243C1094.11,1046.62 1046.6,1094.12 988.227,1094.12L211.827,1094.12C153.452,1094.12 105.947,1046.62 105.947,988.243L105.947,847.063C105.947,827.543 90.135,811.77 70.654,811.77C51.173,811.77 35.361,827.547 35.361,847.063L35.361,988.243C35.361,1085.55 114.525,1164.71 211.831,1164.71L988.231,1164.71C1085.54,1164.71 1164.7,1085.55 1164.7,988.243L1164.7,847.063C1164.7,827.547 1148.89,811.77 1129.41,811.77L1129.4,811.77Z" style="fill:rgb(111,111,111);fill-rule:nonzero;stroke:rgb(111,111,111);stroke-width:37.88px;"/>
        <path d="M211.8,494.12L423.57,494.12L423.57,952.94C423.57,972.46 439.418,988.233 458.863,988.233L741.213,988.233C760.693,988.233 776.506,972.456 776.506,952.94L776.506,494.12L988.276,494.12C1019.65,494.12 1035.43,456.038 1013.23,433.874L624.999,45.644C611.233,31.878 588.858,31.878 575.093,45.644L186.863,433.874C164.699,456.038 180.472,494.12 211.816,494.12L211.8,494.12ZM600.07,120.5L903.07,423.54L741.21,423.54C721.73,423.54 705.917,439.317 705.917,458.833L705.917,917.653L494.147,917.653L494.147,458.833C494.147,439.313 478.299,423.54 458.854,423.54L297.034,423.54L600.07,120.5Z" style="fill:rgb(111,111,111);fill-rule:nonzero;stroke:rgb(111,111,111);stroke-width:37.88px;"/>
    </g>
</svg>
