<?xml version="1.0" encoding="UTF-8" standalone="no"?>
<!DOCTYPE svg PUBLIC "-//W3C//DTD SVG 1.1//EN" "http://www.w3.org/Graphics/SVG/1.1/DTD/svg11.dtd">
<svg width="100%" height="100%" viewBox="0 0 1200 1200" version="1.1" xmlns="http://www.w3.org/2000/svg"
     xml:space="preserve"
     style="fill-rule:evenodd;clip-rule:evenodd;stroke-linejoin:round;stroke-miterlimit:2;">
    <g>
        <path d="M1106.2,168.75L93.7,168.75C83.341,168.75 74.95,177.141 74.95,187.5L74.95,825C74.95,835.359 83.341,843.75 93.7,843.75L1106.2,843.75C1116.56,843.75 1124.95,835.359 1124.95,825L1124.95,187.5C1124.95,177.141 1116.56,168.75 1106.2,168.75ZM1087.45,806.25L112.45,806.25L112.45,206.25L1087.45,206.25L1087.45,806.25Z" style="fill-rule:nonzero;"/>
        <g transform="matrix(1.07045,0,0,1.11179,-42.2655,-56.5947)">
            <path d="M1106.2,168.75L93.7,168.75C83.341,168.75 74.95,177.141 74.95,187.5L74.95,825C74.95,835.359 83.341,843.75 93.7,843.75L1106.2,843.75C1116.56,843.75 1124.95,835.359 1124.95,825L1124.95,187.5C1124.95,177.141 1116.56,168.75 1106.2,168.75ZM1087.45,806.25L112.45,806.25L112.45,206.25L1087.45,206.25L1087.45,806.25Z" style="fill-rule:nonzero;stroke:black;stroke-width:24.38px;"/>
        </g>
        <path d="M1143.8,93.75L56.3,93.75C25.292,93.75 0.05,118.992 0.05,150L0.05,862.5C0.05,893.508 25.292,918.75 56.3,918.75L506.3,918.75L506.3,1068.75L431.3,1068.75C420.941,1068.75 412.55,1077.14 412.55,1087.5C412.55,1097.86 420.941,1106.25 431.3,1106.25L768.8,1106.25C779.159,1106.25 787.55,1097.86 787.55,1087.5C787.55,1077.14 779.159,1068.75 768.8,1068.75L693.8,1068.75L693.8,918.75L1143.8,918.75C1174.81,918.75 1200.05,893.508 1200.05,862.5L1200.05,150C1200.05,118.992 1174.81,93.75 1143.8,93.75ZM1162.55,862.5C1162.55,872.836 1154.14,881.25 1143.8,881.25L56.3,881.25C45.964,881.25 37.55,872.836 37.55,862.5L37.55,150C37.55,139.664 45.964,131.25 56.3,131.25L1143.8,131.25C1154.14,131.25 1162.55,139.664 1162.55,150L1162.55,862.5Z" style="fill-rule:nonzero;"/>
        <path d="M337.5,712.5C390.07,712.5 419.766,665.32 444.49,623.883C456.678,632.438 471.513,637.5 487.498,637.5C528.865,637.5 562.498,603.867 562.498,562.5L637.498,562.5C637.498,603.867 671.131,637.5 712.498,637.5C728.482,637.5 743.318,632.461 755.506,623.883C780.233,665.321 809.928,712.5 862.496,712.5C893.551,712.5 918.746,687.305 918.746,656.25C918.746,412.5 881.246,300 768.746,300C693.746,300 693.746,337.5 637.496,337.5L562.496,337.5C506.246,337.5 506.246,300 431.246,300C318.746,300 281.246,412.5 281.246,656.25C281.246,687.305 306.441,712.5 337.496,712.5L337.5,712.5ZM731.25,393.75L750,393.75L750,375C750,364.641 758.391,356.25 768.75,356.25C779.109,356.25 787.5,364.641 787.5,375L787.5,393.75L806.25,393.75C816.609,393.75 825,402.141 825,412.5C825,422.859 816.609,431.25 806.25,431.25L787.5,431.25L787.5,450C787.5,460.359 779.109,468.75 768.75,468.75C758.391,468.75 750,460.359 750,450L750,431.25L731.25,431.25C720.891,431.25 712.5,422.859 712.5,412.5C712.5,402.141 720.891,393.75 731.25,393.75ZM712.5,525C733.172,525 750,541.828 750,562.5C750,583.172 733.172,600 712.5,600C691.828,600 675,583.172 675,562.5C675,541.828 691.828,525 712.5,525ZM581.25,450L618.75,450C629.109,450 637.5,458.391 637.5,468.75C637.5,479.109 629.109,487.5 618.75,487.5L581.25,487.5C570.891,487.5 562.5,479.109 562.5,468.75C562.5,458.391 570.891,450 581.25,450ZM525,562.5C525,583.172 508.172,600 487.5,600C466.828,600 450,583.172 450,562.5C450,541.828 466.828,525 487.5,525C508.172,525 525,541.828 525,562.5ZM393.75,393.75L412.5,393.75L412.5,375C412.5,364.641 420.891,356.25 431.25,356.25C441.609,356.25 450,364.641 450,375L450,393.75L468.75,393.75C479.109,393.75 487.5,402.141 487.5,412.5C487.5,422.859 479.109,431.25 468.75,431.25L450,431.25L450,450C450,460.359 441.609,468.75 431.25,468.75C420.891,468.75 412.5,460.359 412.5,450L412.5,431.25L393.75,431.25C383.391,431.25 375,422.859 375,412.5C375,402.141 383.391,393.75 393.75,393.75Z" style="fill-rule:nonzero;"/>
    </g>
</svg>
