<?xml version="1.0" encoding="UTF-8" standalone="no"?>
<!DOCTYPE svg PUBLIC "-//W3C//DTD SVG 1.1//EN" "http://www.w3.org/Graphics/SVG/1.1/DTD/svg11.dtd">
<svg width="100%" height="100%" viewBox="0 0 1200 1200" version="1.1" xmlns="http://www.w3.org/2000/svg"
     xml:space="preserve"
     style="fill-rule:evenodd;clip-rule:evenodd;stroke-linejoin:round;stroke-miterlimit:2;">
    <g>
        <g transform="matrix(0.632032,0.260898,-0.260898,0.632032,259.23,311.026)">
            <path d="M637.5,412.5C637.5,433.211 620.711,450 600,450C579.289,450 562.5,433.211 562.5,412.5C562.5,391.789 579.289,375 600,375C620.711,375 637.5,391.789 637.5,412.5ZM732.59,317.41L732.555,317.41C722.969,317.41 713.36,313.731 706.047,306.418C677.739,278.082 640.047,262.473 599.997,262.473C559.947,262.473 522.283,278.082 493.947,306.418C479.299,321.066 455.556,321.066 440.908,306.418C426.26,291.77 426.26,268.027 440.908,253.379C528.638,165.652 671.371,165.652 759.098,253.379C773.746,268.027 773.746,291.77 759.098,306.418C751.785,313.754 742.176,317.41 732.59,317.41ZM361.36,173.86L361.355,173.86C346.707,188.508 322.964,188.508 308.316,173.86C293.668,159.212 293.668,135.469 308.316,120.821C386.226,42.915 489.816,0.001 599.996,0.001C710.176,0.001 813.773,42.915 891.656,120.821C906.304,135.469 906.304,159.212 891.656,173.86C884.343,181.196 874.734,184.852 865.148,184.852C855.562,184.852 845.953,181.173 838.64,173.86C774.89,110.11 690.14,75.001 600,75.001C509.86,75.001 425.11,110.11 361.36,173.86Z"/>
        </g>
        <g transform="matrix(0.592561,0,0,0.592561,-42.4228,473.423)">
            <path d="M862.5,562.5C743.18,562.5 745.73,618.75 656.25,618.75L543.75,618.75C454.266,618.75 456.82,562.5 337.5,562.5C158.53,562.5 93.75,718.48 93.75,1106.25C93.75,1155.68 138.07,1200 187.5,1200C273.703,1200 315.19,1118.58 350.18,1049.86C368.039,1061.79 389.461,1068.75 412.5,1068.75C474.539,1068.75 525,1018.29 525,956.251L675,956.251C675,1018.29 725.461,1068.75 787.5,1068.75C810.539,1068.75 831.961,1061.79 849.82,1049.86C884.789,1118.58 926.297,1200 1012.5,1200C1061.93,1200 1106.25,1155.68 1106.25,1106.25C1106.25,718.48 1041.47,562.5 862.5,562.5ZM318.75,787.5L318.75,750L281.25,750C270.891,750 262.5,741.609 262.5,731.25C262.5,720.891 270.891,712.5 281.25,712.5L318.75,712.5L318.75,675C318.75,664.641 327.141,656.25 337.5,656.25C347.859,656.25 356.25,664.641 356.25,675L356.25,712.5L393.75,712.5C404.109,712.5 412.5,720.891 412.5,731.25C412.5,741.609 404.109,750 393.75,750L356.25,750L356.25,787.5C356.25,797.859 347.859,806.25 337.5,806.25C327.141,806.25 318.75,797.859 318.75,787.5ZM412.5,1031.25C371.133,1031.25 337.5,997.594 337.5,956.25C337.5,914.906 371.133,881.25 412.5,881.25C453.867,881.25 487.5,914.906 487.5,956.25C487.5,997.594 453.867,1031.25 412.5,1031.25ZM637.5,843.75L562.5,843.75C552.141,843.75 543.75,835.359 543.75,825C543.75,814.641 552.141,806.25 562.5,806.25L637.5,806.25C647.859,806.25 656.25,814.641 656.25,825C656.25,835.359 647.859,843.75 637.5,843.75ZM787.5,1031.25C746.133,1031.25 712.5,997.594 712.5,956.25C712.5,914.906 746.133,881.25 787.5,881.25C828.867,881.25 862.5,914.906 862.5,956.25C862.5,997.594 828.867,1031.25 787.5,1031.25ZM918.75,750L881.25,750L881.25,787.5C881.25,797.859 872.859,806.25 862.5,806.25C852.141,806.25 843.75,797.859 843.75,787.5L843.75,750L806.25,750C795.891,750 787.5,741.609 787.5,731.25C787.5,720.891 795.891,712.5 806.25,712.5L843.75,712.5L843.75,675C843.75,664.641 852.141,656.25 862.5,656.25C872.859,656.25 881.25,664.641 881.25,675L881.25,712.5L918.75,712.5C929.109,712.5 937.5,720.891 937.5,731.25C937.5,741.609 929.109,750 918.75,750Z" style="fill-rule:nonzero;"/>
        </g>
        <g transform="matrix(0.592561,0,0,0.592561,517.267,-301.771)">
            <path d="M862.5,562.5C743.18,562.5 745.73,618.75 656.25,618.75L543.75,618.75C454.266,618.75 456.82,562.5 337.5,562.5C158.53,562.5 93.75,718.48 93.75,1106.25C93.75,1155.68 138.07,1200 187.5,1200C273.703,1200 315.19,1118.58 350.18,1049.86C368.039,1061.79 389.461,1068.75 412.5,1068.75C474.539,1068.75 525,1018.29 525,956.251L675,956.251C675,1018.29 725.461,1068.75 787.5,1068.75C810.539,1068.75 831.961,1061.79 849.82,1049.86C884.789,1118.58 926.297,1200 1012.5,1200C1061.93,1200 1106.25,1155.68 1106.25,1106.25C1106.25,718.48 1041.47,562.5 862.5,562.5ZM318.75,787.5L318.75,750L281.25,750C270.891,750 262.5,741.609 262.5,731.25C262.5,720.891 270.891,712.5 281.25,712.5L318.75,712.5L318.75,675C318.75,664.641 327.141,656.25 337.5,656.25C347.859,656.25 356.25,664.641 356.25,675L356.25,712.5L393.75,712.5C404.109,712.5 412.5,720.891 412.5,731.25C412.5,741.609 404.109,750 393.75,750L356.25,750L356.25,787.5C356.25,797.859 347.859,806.25 337.5,806.25C327.141,806.25 318.75,797.859 318.75,787.5ZM412.5,1031.25C371.133,1031.25 337.5,997.594 337.5,956.25C337.5,914.906 371.133,881.25 412.5,881.25C453.867,881.25 487.5,914.906 487.5,956.25C487.5,997.594 453.867,1031.25 412.5,1031.25ZM637.5,843.75L562.5,843.75C552.141,843.75 543.75,835.359 543.75,825C543.75,814.641 552.141,806.25 562.5,806.25L637.5,806.25C647.859,806.25 656.25,814.641 656.25,825C656.25,835.359 647.859,843.75 637.5,843.75ZM787.5,1031.25C746.133,1031.25 712.5,997.594 712.5,956.25C712.5,914.906 746.133,881.25 787.5,881.25C828.867,881.25 862.5,914.906 862.5,956.25C862.5,997.594 828.867,1031.25 787.5,1031.25ZM918.75,750L881.25,750L881.25,787.5C881.25,797.859 872.859,806.25 862.5,806.25C852.141,806.25 843.75,797.859 843.75,787.5L843.75,750L806.25,750C795.891,750 787.5,741.609 787.5,731.25C787.5,720.891 795.891,712.5 806.25,712.5L843.75,712.5L843.75,675C843.75,664.641 852.141,656.25 862.5,656.25C872.859,656.25 881.25,664.641 881.25,675L881.25,712.5L918.75,712.5C929.109,712.5 937.5,720.891 937.5,731.25C937.5,741.609 929.109,750 918.75,750Z" style="fill-rule:nonzero;"/>
        </g>
    </g>
</svg>
