<?xml version="1.0" encoding="UTF-8" standalone="no"?>
<!DOCTYPE svg PUBLIC "-//W3C//DTD SVG 1.1//EN" "http://www.w3.org/Graphics/SVG/1.1/DTD/svg11.dtd">
<svg width="100%" height="100%" viewBox="0 0 1200 1200" version="1.1" xmlns="http://www.w3.org/2000/svg"
     xml:space="preserve"
     style="fill-rule:evenodd;clip-rule:evenodd;stroke-linejoin:round;stroke-miterlimit:2;">
    <g>
        <path d="M768.75,787.5L675,787.5L675,675L1031.25,675C1062.26,675 1087.5,649.758 1087.5,618.75L1087.5,93.75C1087.5,62.742 1062.26,37.5 1031.25,37.5L168.75,37.5C137.742,37.5 112.5,62.742 112.5,93.75L112.5,618.75C112.5,649.758 137.742,675 168.75,675L525,675L525,787.5L431.25,787.5C420.891,787.5 412.5,795.891 412.5,806.25C412.5,816.609 420.891,825 431.25,825L768.75,825C779.109,825 787.5,816.609 787.5,806.25C787.5,795.891 779.109,787.5 768.75,787.5ZM168.75,637.5C158.414,637.5 150,629.086 150,618.75L150,93.75C150,83.414 158.414,75 168.75,75L1031.25,75C1041.59,75 1050,83.414 1050,93.75L1050,618.75C1050,629.086 1041.59,637.5 1031.25,637.5L168.75,637.5Z" style="fill-rule:nonzero;"/>
        <path d="M300.73,900C244.48,900 225.003,937.5 225.003,937.5L187.503,937.5C187.503,937.5 168.753,900 112.503,900C0.003,900 0.003,1056.26 0.003,1106.25L0.003,1106.98C0.003,1137.63 24.87,1162.5 55.526,1162.5C78.542,1162.5 99.19,1148.3 107.393,1126.78L109.877,1120.76C116.463,1123.48 123.705,1125 131.252,1125C162.26,1125 187.502,1099.76 187.502,1068.75L225.002,1068.75C225.002,1099.76 250.244,1125 281.252,1125C289.057,1125 296.486,1123.41 303.26,1120.5L305.839,1126.78C314.042,1148.3 333.964,1162.5 356.98,1162.5C387.636,1162.5 412.503,1137.63 412.503,1106.98L412.503,1106.25C412.503,1056.26 413.229,900 300.733,900L300.73,900ZM94.48,993.75C94.48,983.391 102.871,975 113.23,975C123.589,975 131.98,983.391 131.98,993.75C131.98,1004.11 123.589,1012.5 113.23,1012.5C102.871,1012.5 94.48,1004.11 94.48,993.75ZM131.253,1087.5C120.917,1087.5 112.503,1079.09 112.503,1068.75C112.503,1058.41 120.917,1050 131.253,1050C141.589,1050 150.003,1058.41 150.003,1068.75C150.003,1079.09 141.589,1087.5 131.253,1087.5ZM281.253,1087.5C270.917,1087.5 262.503,1079.09 262.503,1068.75C262.503,1058.41 270.917,1050 281.253,1050C291.589,1050 300.003,1058.41 300.003,1068.75C300.003,1079.09 291.589,1087.5 281.253,1087.5ZM300.73,1012.5C290.371,1012.5 281.98,1004.11 281.98,993.75C281.98,983.391 290.371,975 300.73,975C311.089,975 319.48,983.391 319.48,993.75C319.48,1004.11 311.089,1012.5 300.73,1012.5Z" style="fill-rule:nonzero;"/>
        <path d="M1088.2,900C1031.95,900 1012.47,937.5 1012.47,937.5L974.973,937.5C974.973,937.5 956.223,900 899.973,900C787.473,900 787.473,1056.26 787.473,1106.25L787.473,1106.98C787.473,1137.63 812.34,1162.5 842.996,1162.5C866.012,1162.5 886.66,1148.3 894.863,1126.78L897.347,1120.76C903.933,1123.48 911.175,1125 918.722,1125C949.73,1125 974.972,1099.76 974.972,1068.75L1012.47,1068.75C1012.47,1099.76 1037.71,1125 1068.72,1125C1076.53,1125 1083.96,1123.41 1090.73,1120.5L1093.31,1126.78C1101.51,1148.3 1121.43,1162.5 1144.45,1162.5C1175.11,1162.5 1199.97,1137.63 1199.97,1106.98L1199.97,1106.25C1199.97,1056.26 1200.7,900 1088.2,900L1088.2,900ZM881.95,993.75C881.95,983.391 890.341,975 900.7,975C911.059,975 919.45,983.391 919.45,993.75C919.45,1004.11 911.059,1012.5 900.7,1012.5C890.341,1012.5 881.95,1004.11 881.95,993.75ZM918.723,1087.5C908.387,1087.5 899.973,1079.09 899.973,1068.75C899.973,1058.41 908.387,1050 918.723,1050C929.059,1050 937.473,1058.41 937.473,1068.75C937.473,1079.09 929.059,1087.5 918.723,1087.5ZM1068.72,1087.5C1058.39,1087.5 1049.97,1079.09 1049.97,1068.75C1049.97,1058.41 1058.39,1050 1068.72,1050C1079.06,1050 1087.47,1058.41 1087.47,1068.75C1087.47,1079.09 1079.06,1087.5 1068.72,1087.5ZM1088.2,1012.5C1077.84,1012.5 1069.45,1004.11 1069.45,993.75C1069.45,983.391 1077.84,975 1088.2,975C1098.56,975 1106.95,983.391 1106.95,993.75C1106.95,1004.11 1098.56,1012.5 1088.2,1012.5Z" style="fill-rule:nonzero;"/>
        <path d="M993.75,112.5L206.25,112.5C195.891,112.5 187.5,120.891 187.5,131.25L187.5,581.25C187.5,591.609 195.891,600 206.25,600L993.75,600C1004.11,600 1012.5,591.609 1012.5,581.25L1012.5,131.25C1012.5,120.891 1004.11,112.5 993.75,112.5ZM975,562.5L225,562.5L225,150L975,150L975,562.5Z" style="fill-rule:nonzero;"/>
        <g transform="matrix(1.09636,0,0,1.15997,-57.8178,-56.9888)">
            <path d="M993.75,112.5L206.25,112.5C195.891,112.5 187.5,120.891 187.5,131.25L187.5,581.25C187.5,591.609 195.891,600 206.25,600L993.75,600C1004.11,600 1012.5,591.609 1012.5,581.25L1012.5,131.25C1012.5,120.891 1004.11,112.5 993.75,112.5ZM975,562.5L225,562.5L225,150L975,150L975,562.5Z" style="fill-rule:nonzero;stroke:black;stroke-width:4.94px;"/>
        </g>
    </g>
</svg>
