<?xml version="1.0" encoding="UTF-8"?>
<svg width="1200pt" height="1200pt" version="1.1" viewBox="0 0 1200 1200" xmlns="http://www.w3.org/2000/svg">
 <g>
  <path d="m637.5 506.25c0-243.75-37.5-356.25-150-356.25-75 0-75 37.5-131.25 37.5h-75c-56.25 0-56.25-37.5-131.25-37.5-112.5 0-150 112.5-150 356.25 0 31.055 25.195 56.25 56.25 56.25 52.57 0 82.266-47.18 106.99-88.617 12.188 8.5547 27.023 13.617 43.008 13.617 41.367 0 75-33.633 75-75h75c0 41.367 33.633 75 75 75 15.984 0 30.82-5.0391 43.008-13.617 24.727 41.438 54.422 88.617 106.99 88.617 31.055 0 56.25-25.195 56.25-56.25zm-487.5-187.5c-10.359 0-18.75-8.3906-18.75-18.75v-18.75h-18.75c-10.359 0-18.75-8.3906-18.75-18.75s8.3906-18.75 18.75-18.75h18.75v-18.75c0-10.359 8.3906-18.75 18.75-18.75s18.75 8.3906 18.75 18.75v18.75h18.75c10.359 0 18.75 8.3906 18.75 18.75s-8.3906 18.75-18.75 18.75h-18.75v18.75c0 10.359-8.3906 18.75-18.75 18.75zm56.25 131.25c-20.672 0-37.5-16.828-37.5-37.5s16.828-37.5 37.5-37.5 37.5 16.828 37.5 37.5-16.828 37.5-37.5 37.5zm131.25-112.5h-37.5c-10.359 0-18.75-8.3906-18.75-18.75s8.3906-18.75 18.75-18.75h37.5c10.359 0 18.75 8.3906 18.75 18.75s-8.3906 18.75-18.75 18.75zm93.75 112.5c-20.672 0-37.5-16.828-37.5-37.5s16.828-37.5 37.5-37.5 37.5 16.828 37.5 37.5-16.828 37.5-37.5 37.5zm93.75-168.75h-18.75v18.75c0 10.359-8.3906 18.75-18.75 18.75s-18.75-8.3906-18.75-18.75v-18.75h-18.75c-10.359 0-18.75-8.3906-18.75-18.75s8.3906-18.75 18.75-18.75h18.75v-18.75c0-10.359 8.3906-18.75 18.75-18.75s18.75 8.3906 18.75 18.75v18.75h18.75c10.359 0 18.75 8.3906 18.75 18.75s-8.3906 18.75-18.75 18.75z"/>
  <path d="m750 318.75h112.5v262.5c0 10.359 8.3906 18.75 18.75 18.75s18.75-8.3906 18.75-18.75v-281.25c0-10.359-8.3906-18.75-18.75-18.75h-131.25c-10.359 0-18.75 8.3906-18.75 18.75s8.3906 18.75 18.75 18.75z"/>
  <path d="m450 806.25h-112.5v-300c0-10.359-8.3906-18.75-18.75-18.75s-18.75 8.3906-18.75 18.75v318.75c0 10.359 8.3906 18.75 18.75 18.75h131.25c10.359 0 18.75-8.3906 18.75-18.75s-8.3906-18.75-18.75-18.75z"/>
  <path d="m1050 637.5c-75 0-75 37.5-131.25 37.5h-75c-56.25 0-56.25-37.5-131.25-37.5-112.5 0-150 112.5-150 356.25 0 31.055 25.195 56.25 56.25 56.25 52.57 0 82.266-47.18 106.99-88.617 12.188 8.5547 27.023 13.617 43.008 13.617 41.367 0 75-33.633 75-75h75c0 41.367 33.633 75 75 75 15.984 0 30.82-5.0391 43.008-13.617 24.727 41.438 54.422 88.617 106.99 88.617 31.055 0 56.25-25.195 56.25-56.25 0-243.75-37.5-356.25-150-356.25zm-337.5 168.75c-10.359 0-18.75-8.3906-18.75-18.75v-18.75h-18.75c-10.359 0-18.75-8.3906-18.75-18.75s8.3906-18.75 18.75-18.75h18.75v-18.75c0-10.359 8.3906-18.75 18.75-18.75s18.75 8.3906 18.75 18.75v18.75h18.75c10.359 0 18.75 8.3906 18.75 18.75s-8.3906 18.75-18.75 18.75h-18.75v18.75c0 10.359-8.3906 18.75-18.75 18.75zm56.25 131.25c-20.672 0-37.5-16.828-37.5-37.5s16.828-37.5 37.5-37.5 37.5 16.828 37.5 37.5-16.828 37.5-37.5 37.5zm131.25-112.5h-37.5c-10.359 0-18.75-8.3906-18.75-18.75s8.3906-18.75 18.75-18.75h37.5c10.359 0 18.75 8.3906 18.75 18.75s-8.3906 18.75-18.75 18.75zm93.75 112.5c-20.672 0-37.5-16.828-37.5-37.5s16.828-37.5 37.5-37.5 37.5 16.828 37.5 37.5-16.828 37.5-37.5 37.5zm93.75-168.75h-18.75v18.75c0 10.359-8.3906 18.75-18.75 18.75s-18.75-8.3906-18.75-18.75v-18.75h-18.75c-10.359 0-18.75-8.3906-18.75-18.75s8.3906-18.75 18.75-18.75h18.75v-18.75c0-10.359 8.3906-18.75 18.75-18.75s18.75 8.3906 18.75 18.75v18.75h18.75c10.359 0 18.75 8.3906 18.75 18.75s-8.3906 18.75-18.75 18.75z"/>
 </g>
</svg>
