<?xml version="1.0" encoding="UTF-8"?>
<svg width="1200pt" height="1200pt" version="1.1" viewBox="0 0 1200 1200" xmlns="http://www.w3.org/2000/svg">
 <g>
  <path d="m1106.2 168.75h-1012.5c-10.359 0-18.75 8.3906-18.75 18.75v637.5c0 10.359 8.3906 18.75 18.75 18.75h1012.5c10.359 0 18.75-8.3906 18.75-18.75v-637.5c0-10.359-8.3906-18.75-18.75-18.75zm-18.75 637.5h-975v-600h975z"/>
  <path d="m1143.8 93.75h-1087.5c-31.008 0-56.25 25.242-56.25 56.25v712.5c0 31.008 25.242 56.25 56.25 56.25h450v150h-75c-10.359 0-18.75 8.3906-18.75 18.75s8.3906 18.75 18.75 18.75h337.5c10.359 0 18.75-8.3906 18.75-18.75s-8.3906-18.75-18.75-18.75h-75v-150h450c31.008 0 56.25-25.242 56.25-56.25v-712.5c0-31.008-25.242-56.25-56.25-56.25zm18.75 768.75c0 10.336-8.4141 18.75-18.75 18.75h-1087.5c-10.336 0-18.75-8.4141-18.75-18.75v-712.5c0-10.336 8.4141-18.75 18.75-18.75h1087.5c10.336 0 18.75 8.4141 18.75 18.75z"/>
  <path d="m337.5 712.5c52.57 0 82.266-47.18 106.99-88.617 12.188 8.5547 27.023 13.617 43.008 13.617 41.367 0 75-33.633 75-75h75c0 41.367 33.633 75 75 75 15.984 0 30.82-5.0391 43.008-13.617 24.727 41.438 54.422 88.617 106.99 88.617 31.055 0 56.25-25.195 56.25-56.25 0-243.75-37.5-356.25-150-356.25-75 0-75 37.5-131.25 37.5h-75c-56.25 0-56.25-37.5-131.25-37.5-112.5 0-150 112.5-150 356.25 0 31.055 25.195 56.25 56.25 56.25zm393.75-318.75h18.75v-18.75c0-10.359 8.3906-18.75 18.75-18.75s18.75 8.3906 18.75 18.75v18.75h18.75c10.359 0 18.75 8.3906 18.75 18.75s-8.3906 18.75-18.75 18.75h-18.75v18.75c0 10.359-8.3906 18.75-18.75 18.75s-18.75-8.3906-18.75-18.75v-18.75h-18.75c-10.359 0-18.75-8.3906-18.75-18.75s8.3906-18.75 18.75-18.75zm-18.75 131.25c20.672 0 37.5 16.828 37.5 37.5s-16.828 37.5-37.5 37.5-37.5-16.828-37.5-37.5 16.828-37.5 37.5-37.5zm-131.25-75h37.5c10.359 0 18.75 8.3906 18.75 18.75s-8.3906 18.75-18.75 18.75h-37.5c-10.359 0-18.75-8.3906-18.75-18.75s8.3906-18.75 18.75-18.75zm-56.25 112.5c0 20.672-16.828 37.5-37.5 37.5s-37.5-16.828-37.5-37.5 16.828-37.5 37.5-37.5 37.5 16.828 37.5 37.5zm-131.25-168.75h18.75v-18.75c0-10.359 8.3906-18.75 18.75-18.75s18.75 8.3906 18.75 18.75v18.75h18.75c10.359 0 18.75 8.3906 18.75 18.75s-8.3906 18.75-18.75 18.75h-18.75v18.75c0 10.359-8.3906 18.75-18.75 18.75s-18.75-8.3906-18.75-18.75v-18.75h-18.75c-10.359 0-18.75-8.3906-18.75-18.75s8.3906-18.75 18.75-18.75z"/>
 </g>
</svg>
