<?xml version="1.0" encoding="UTF-8"?>
<svg width="1200pt" height="1200pt" version="1.1" viewBox="0 0 1200 1200" xmlns="http://www.w3.org/2000/svg">
 <g>
  <path d="m637.5 412.5c0 20.711-16.789 37.5-37.5 37.5s-37.5-16.789-37.5-37.5 16.789-37.5 37.5-37.5 37.5 16.789 37.5 37.5"/>
  <path d="m732.59 317.41c9.5859 0 19.195-3.6562 26.508-10.992 14.648-14.648 14.648-38.391 0-53.039-87.727-87.727-230.46-87.727-318.19 0-14.648 14.648-14.648 38.391 0 53.039s38.391 14.648 53.039 0c28.336-28.336 66-43.945 106.05-43.945s77.742 15.609 106.05 43.945c7.3125 7.3125 16.922 10.992 26.508 10.992z"/>
  <path d="m361.36 173.86c63.75-63.75 148.5-98.859 238.64-98.859s174.89 35.109 238.64 98.859c7.3125 7.3125 16.922 10.992 26.508 10.992 9.5859 0 19.195-3.6562 26.508-10.992 14.648-14.648 14.648-38.391 0-53.039-77.883-77.906-181.48-120.82-291.66-120.82s-213.77 42.914-291.68 120.82c-14.648 14.648-14.648 38.391 0 53.039 14.648 14.648 38.391 14.648 53.039 0z"/>
  <path d="m862.5 562.5c-119.32 0-116.77 56.25-206.25 56.25h-112.5c-89.484 0-86.93-56.25-206.25-56.25-178.97 0-243.75 155.98-243.75 543.75 0 49.43 44.32 93.75 93.75 93.75 86.203 0 127.69-81.422 162.68-150.14 17.859 11.93 39.281 18.891 62.32 18.891 62.039 0 112.5-50.461 112.5-112.5h150c0 62.039 50.461 112.5 112.5 112.5 23.039 0 44.461-6.9609 62.32-18.891 34.969 68.719 76.477 150.14 162.68 150.14 49.43 0 93.75-44.32 93.75-93.75 0-387.77-64.781-543.75-243.75-543.75zm-543.75 225v-37.5h-37.5c-10.359 0-18.75-8.3906-18.75-18.75s8.3906-18.75 18.75-18.75h37.5v-37.5c0-10.359 8.3906-18.75 18.75-18.75s18.75 8.3906 18.75 18.75v37.5h37.5c10.359 0 18.75 8.3906 18.75 18.75s-8.3906 18.75-18.75 18.75h-37.5v37.5c0 10.359-8.3906 18.75-18.75 18.75s-18.75-8.3906-18.75-18.75zm93.75 243.75c-41.367 0-75-33.656-75-75s33.633-75 75-75 75 33.656 75 75-33.633 75-75 75zm225-187.5h-75c-10.359 0-18.75-8.3906-18.75-18.75s8.3906-18.75 18.75-18.75h75c10.359 0 18.75 8.3906 18.75 18.75s-8.3906 18.75-18.75 18.75zm150 187.5c-41.367 0-75-33.656-75-75s33.633-75 75-75 75 33.656 75 75-33.633 75-75 75zm131.25-281.25h-37.5v37.5c0 10.359-8.3906 18.75-18.75 18.75s-18.75-8.3906-18.75-18.75v-37.5h-37.5c-10.359 0-18.75-8.3906-18.75-18.75s8.3906-18.75 18.75-18.75h37.5v-37.5c0-10.359 8.3906-18.75 18.75-18.75s18.75 8.3906 18.75 18.75v37.5h37.5c10.359 0 18.75 8.3906 18.75 18.75s-8.3906 18.75-18.75 18.75z"/>
 </g>
</svg>
