<?xml version="1.0" encoding="UTF-8"?>
<svg width="1200pt" height="1200pt" version="1.1" viewBox="0 0 1200 1200" xmlns="http://www.w3.org/2000/svg">
 <g>
  <path d="m768.75 787.5h-93.75v-112.5h356.25c31.008 0 56.25-25.242 56.25-56.25v-525c0-31.008-25.242-56.25-56.25-56.25h-862.5c-31.008 0-56.25 25.242-56.25 56.25v525c0 31.008 25.242 56.25 56.25 56.25h356.25v112.5h-93.75c-10.359 0-18.75 8.3906-18.75 18.75s8.3906 18.75 18.75 18.75h337.5c10.359 0 18.75-8.3906 18.75-18.75s-8.3906-18.75-18.75-18.75zm-600-150c-10.336 0-18.75-8.4141-18.75-18.75v-525c0-10.336 8.4141-18.75 18.75-18.75h862.5c10.336 0 18.75 8.4141 18.75 18.75v525c0 10.336-8.4141 18.75-18.75 18.75z"/>
  <path d="m300.73 900c-56.25 0-75.727 37.5-75.727 37.5h-37.5s-18.75-37.5-75-37.5c-112.5 0-112.5 156.26-112.5 206.25v0.72656c0 30.656 24.867 55.523 55.523 55.523 23.016 0 43.664-14.203 51.867-35.719l2.4844-6.0234c6.5859 2.7188 13.828 4.2422 21.375 4.2422 31.008 0 56.25-25.242 56.25-56.25h37.5c0 31.008 25.242 56.25 56.25 56.25 7.8047 0 15.234-1.5938 22.008-4.5l2.5781 6.2812c8.2031 21.516 28.125 35.719 51.141 35.719 30.656 0 55.523-24.867 55.523-55.523v-0.72656c0-49.992 0.72656-206.25-111.77-206.25zm-206.25 93.75c0-10.359 8.3906-18.75 18.75-18.75 10.359 0 18.75 8.3906 18.75 18.75s-8.3906 18.75-18.75 18.75c-10.359 0-18.75-8.3906-18.75-18.75zm36.773 93.75c-10.336 0-18.75-8.4141-18.75-18.75s8.4141-18.75 18.75-18.75 18.75 8.4141 18.75 18.75-8.4141 18.75-18.75 18.75zm150 0c-10.336 0-18.75-8.4141-18.75-18.75s8.4141-18.75 18.75-18.75 18.75 8.4141 18.75 18.75-8.4141 18.75-18.75 18.75zm19.477-75c-10.359 0-18.75-8.3906-18.75-18.75s8.3906-18.75 18.75-18.75c10.359 0 18.75 8.3906 18.75 18.75s-8.3906 18.75-18.75 18.75z"/>
  <path d="m1088.2 900c-56.25 0-75.727 37.5-75.727 37.5h-37.5s-18.75-37.5-75-37.5c-112.5 0-112.5 156.26-112.5 206.25v0.72656c0 30.656 24.867 55.523 55.523 55.523 23.016 0 43.664-14.203 51.867-35.719l2.4844-6.0234c6.5859 2.7188 13.828 4.2422 21.375 4.2422 31.008 0 56.25-25.242 56.25-56.25h37.5c0 31.008 25.242 56.25 56.25 56.25 7.8047 0 15.234-1.5938 22.008-4.5l2.5781 6.2812c8.2031 21.516 28.125 35.719 51.141 35.719 30.656 0 55.523-24.867 55.523-55.523v-0.72656c0-49.992 0.72656-206.25-111.77-206.25zm-206.25 93.75c0-10.359 8.3906-18.75 18.75-18.75 10.359 0 18.75 8.3906 18.75 18.75s-8.3906 18.75-18.75 18.75c-10.359 0-18.75-8.3906-18.75-18.75zm36.773 93.75c-10.336 0-18.75-8.4141-18.75-18.75s8.4141-18.75 18.75-18.75 18.75 8.4141 18.75 18.75-8.4141 18.75-18.75 18.75zm150 0c-10.336 0-18.75-8.4141-18.75-18.75s8.4141-18.75 18.75-18.75 18.75 8.4141 18.75 18.75-8.4141 18.75-18.75 18.75zm19.477-75c-10.359 0-18.75-8.3906-18.75-18.75s8.3906-18.75 18.75-18.75c10.359 0 18.75 8.3906 18.75 18.75s-8.3906 18.75-18.75 18.75z"/>
  <path d="m993.75 112.5h-787.5c-10.359 0-18.75 8.3906-18.75 18.75v450c0 10.359 8.3906 18.75 18.75 18.75h787.5c10.359 0 18.75-8.3906 18.75-18.75v-450c0-10.359-8.3906-18.75-18.75-18.75zm-18.75 450h-750v-412.5h750z"/>
 </g>
</svg>
