<?xml version="1.0" encoding="UTF-8"?>
<svg width="1200pt" height="1200pt" version="1.1" viewBox="0 0 1200 1200" xmlns="http://www.w3.org/2000/svg">
 <g>
  <path d="m600 356.25c-134.41 0-243.75 109.34-243.75 243.75s109.34 243.75 243.75 243.75 243.75-109.34 243.75-243.75-109.34-243.75-243.75-243.75zm205.38 225h-93.188c-2.3203-72.891-18.188-135-42.516-175.38 73.898 26.602 128.37 94.289 135.7 175.38zm-205.38 225c-33.492 0-70.734-78.984-74.648-187.5h149.27c-3.9141 108.52-41.133 187.5-74.648 187.5zm-74.648-225c3.9141-108.52 41.133-187.5 74.648-187.5s70.734 78.984 74.648 187.5zm4.9688-175.38c-24.328 40.383-40.195 102.47-42.516 175.38h-93.188c7.3359-81.07 61.805-148.76 135.7-175.38zm-135.7 212.88h93.188c2.3203 72.891 18.188 135 42.516 175.38-73.898-26.602-128.37-94.289-135.7-175.38zm275.06 175.38c24.328-40.383 40.195-102.47 42.516-175.38h93.188c-7.3359 81.07-61.805 148.76-135.7 175.38z"/>
  <path d="m706.5 1037.3c-69.492 16.875-143.48 16.875-212.98 0-10.055-2.4375-20.203 3.7266-22.641 13.805-2.4375 10.055 3.7266 20.203 13.805 22.641 37.641 9.1406 76.453 13.758 115.34 13.758 38.883 0 77.695-4.6406 115.34-13.758 10.055-2.4375 16.242-12.586 13.805-22.641-2.4375-10.055-12.586-16.242-22.641-13.805z"/>
  <path d="m148.73 471.42c-10.078-2.4375-20.203 3.7734-22.617 13.828-9.0469 37.453-13.617 76.055-13.617 114.75s4.5938 77.297 13.617 114.75c2.0625 8.5781 9.75 14.344 18.211 14.344 1.4531 0 2.9297-0.16406 4.4062-0.53906 10.078-2.4375 16.266-12.562 13.828-22.617-8.3438-34.57-12.586-70.219-12.586-105.94s4.2422-71.367 12.586-105.94c2.4375-10.055-3.7734-20.203-13.828-22.617z"/>
  <path d="m493.5 162.7c69.516-16.875 143.48-16.875 212.98 0 1.4766 0.35156 2.9766 0.53906 4.4297 0.53906 8.4609 0 16.125-5.7656 18.211-14.344 2.4375-10.055-3.7266-20.203-13.805-22.641-75.281-18.258-155.39-18.258-230.67 0-10.055 2.4375-16.242 12.586-13.805 22.641 2.4375 10.055 12.586 16.242 22.641 13.805z"/>
  <path d="m1051.2 728.58c1.4766 0.35156 2.9531 0.53906 4.4062 0.53906 8.4609 0 16.148-5.7656 18.211-14.344 9.0469-37.453 13.617-76.055 13.617-114.75 0-38.695-4.5938-77.297-13.617-114.75-2.4375-10.055-12.562-16.242-22.617-13.828-10.055 2.4375-16.266 12.562-13.828 22.617 8.3438 34.57 12.586 70.219 12.586 105.94s-4.2422 71.367-12.586 105.94c-2.4375 10.055 3.75 20.203 13.828 22.617z"/>
  <path d="m295.2 931.31-26.508-26.508s13.266-39.773-26.508-79.547c-79.547-79.547-190.03 30.938-225.4 66.281l-0.51562 0.51563c-21.68 21.68-21.68 56.836 0 78.516 16.289 16.289 40.922 20.812 61.922 11.414l6-2.5078c2.7422 6.5859 6.7734 12.773 12.117 18.117 21.938 21.938 57.609 21.938 79.547 0l26.508 26.508c-21.938 21.938-21.938 57.609 0 79.547 5.5312 5.5312 11.906 9.6562 18.727 12.398l-2.6016 6.2578c-9.3984 21.023-5.3672 45.141 10.898 61.406 21.68 21.68 56.836 21.68 78.516 0l0.51562-0.51563c35.344-35.367 146.37-145.34 66.797-224.88-39.773-39.773-80.062-27.023-80.062-27.023zm-145.83 39.773c-7.3125 7.3125-19.195 7.3125-26.508 0s-7.3125-19.195 0-26.508 19.195-7.3125 26.508 0 7.3125 19.195 0 26.508zm40.289-65.766c-7.3125 7.3125-19.195 7.3125-26.508 0s-7.3125-19.195 0-26.508 19.195-7.3125 26.508 0 7.3125 19.195 0 26.508zm65.766 171.84c-7.3125 7.3125-19.195 7.3125-26.508 0s-7.3125-19.195 0-26.508 19.195-7.3125 26.508 0 7.3125 19.195 0 26.508zm66.82-39.258c-7.3125 7.3125-19.195 7.3125-26.508 0s-7.3125-19.195 0-26.508 19.195-7.3125 26.508 0 7.3125 19.195 0 26.508z"/>
  <path d="m1183.2 891.54c-35.344-35.344-145.85-145.85-225.4-66.281-39.773 39.773-26.508 79.547-26.508 79.547l-26.508 26.508s-40.289-12.75-80.062 27.023c-79.547 79.547 31.453 189.52 66.797 224.88l0.51563 0.51562c21.68 21.68 56.836 21.68 78.516 0 16.289-16.289 20.297-40.406 10.898-61.406l-2.6016-6.2578c6.8203-2.7422 13.219-6.8672 18.727-12.398 21.938-21.938 21.938-57.609 0-79.547l26.508-26.508c21.938 21.938 57.609 21.938 79.547 0 5.3438-5.3438 9.3984-11.531 12.117-18.117l6 2.5078c21.023 9.3984 45.656 4.8516 61.922-11.414 21.68-21.68 21.68-56.836 0-78.516l-0.51562-0.51562zm-278.93 146.37c-7.3125 7.3125-19.195 7.3125-26.508 0s-7.3125-19.195 0-26.508 19.195-7.3125 26.508 0 7.3125 19.195 0 26.508zm66.797 39.258c-7.3125 7.3125-19.195 7.3125-26.508 0s-7.3125-19.195 0-26.508 19.195-7.3125 26.508 0 7.3125 19.195 0 26.508zm65.789-171.84c-7.3125 7.3125-19.195 7.3125-26.508 0s-7.3125-19.195 0-26.508 19.195-7.3125 26.508 0 7.3125 19.195 0 26.508zm40.289 65.766c-7.3125 7.3125-19.195 7.3125-26.508 0s-7.3125-19.195 0-26.508 19.195-7.3125 26.508 0 7.3125 19.195 0 26.508z"/>
  <path d="m16.781 308.46c35.344 35.344 145.85 145.85 225.4 66.281 39.773-39.773 26.508-79.547 26.508-79.547l26.508-26.508s40.289 12.75 80.062-27.023c79.547-79.547-31.453-189.52-66.797-224.88l-0.51563-0.51562c-21.68-21.68-56.836-21.68-78.516 0-16.289 16.289-20.297 40.406-10.898 61.406l2.6016 6.2578c-6.8203 2.7422-13.219 6.8672-18.727 12.398-21.938 21.938-21.938 57.609 0 79.547l-26.508 26.508c-21.938-21.938-57.609-21.938-79.547 0-5.3438 5.3438-9.3984 11.531-12.117 18.117l-6-2.5078c-21.023-9.3984-45.656-4.8516-61.922 11.414-21.68 21.68-21.68 56.836 0 78.516l0.51562 0.51562zm278.93-146.37c7.3125-7.3125 19.195-7.3125 26.508 0s7.3125 19.195 0 26.508-19.195 7.3125-26.508 0-7.3125-19.195 0-26.508zm-66.797-39.258c7.3125-7.3125 19.195-7.3125 26.508 0s7.3125 19.195 0 26.508-19.195 7.3125-26.508 0-7.3125-19.195 0-26.508zm-65.789 171.84c7.3125-7.3125 19.195-7.3125 26.508 0s7.3125 19.195 0 26.508-19.195 7.3125-26.508 0-7.3125-19.195 0-26.508zm-40.289-65.766c7.3125-7.3125 19.195-7.3125 26.508 0s7.3125 19.195 0 26.508-19.195 7.3125-26.508 0-7.3125-19.195 0-26.508z"/>
  <path d="m904.8 268.69 26.508 26.508s-13.266 39.773 26.508 79.547c79.547 79.547 190.03-30.938 225.4-66.281l0.51562-0.51563c21.68-21.68 21.68-56.836 0-78.516-16.289-16.289-40.922-20.812-61.922-11.414l-6 2.5078c-2.7422-6.5859-6.7734-12.773-12.117-18.117-21.938-21.938-57.609-21.938-79.547 0l-26.508-26.508c21.938-21.938 21.938-57.609 0-79.547-5.5312-5.5312-11.906-9.6562-18.727-12.398l2.6016-6.2578c9.3984-21.023 5.3672-45.141-10.898-61.406-21.68-21.68-56.836-21.68-78.516 0l-0.51562 0.51563c-35.344 35.367-146.37 145.34-66.797 224.88 39.773 39.773 80.062 27.023 80.062 27.023zm145.83-39.773c7.3125-7.3125 19.195-7.3125 26.508 0s7.3125 19.195 0 26.508-19.195 7.3125-26.508 0-7.3125-19.195 0-26.508zm-40.289 65.766c7.3125-7.3125 19.195-7.3125 26.508 0s7.3125 19.195 0 26.508-19.195 7.3125-26.508 0-7.3125-19.195 0-26.508zm-65.766-171.84c7.3125-7.3125 19.195-7.3125 26.508 0s7.3125 19.195 0 26.508-19.195 7.3125-26.508 0-7.3125-19.195 0-26.508zm-66.82 39.258c7.3125-7.3125 19.195-7.3125 26.508 0s7.3125 19.195 0 26.508-19.195 7.3125-26.508 0-7.3125-19.195 0-26.508z"/>
 </g>
</svg>
