<?xml version="1.0" encoding="UTF-8" standalone="no"?>
<!DOCTYPE svg PUBLIC "-//W3C//DTD SVG 1.1//EN" "http://www.w3.org/Graphics/SVG/1.1/DTD/svg11.dtd">
<svg width="100%" height="100%" viewBox="0 0 65 65" version="1.1" xmlns="http://www.w3.org/2000/svg" xmlns:xlink="http://www.w3.org/1999/xlink" xml:space="preserve" xmlns:serif="http://www.serif.com/" style="fill-rule:evenodd;clip-rule:evenodd;stroke-linejoin:round;stroke-miterlimit:2;">
    <g transform="matrix(1,0,0,1,0.5065,0.5)">
        <g id="B">
            <g>
                <path d="M0.047,29.604C1.274,13.051 15.093,0 31.959,0C49.632,0 63.959,14.327 63.959,32C63.959,49.673 49.632,64 31.959,64C17.488,64 5.259,54.386 1.305,41.202L1.303,41.202C1.318,41.149 1.333,41.097 1.347,41.045L12.951,45.833C13.551,48.561 15.431,50.953 18.193,52.103C22.688,53.97 27.923,51.813 29.796,47.321C30.28,46.164 30.513,44.918 30.48,43.665L41.673,35.66L41.948,35.665C48.653,35.665 54.103,30.199 54.103,23.485C54.103,16.771 48.664,11.325 41.948,11.311C35.247,11.311 29.793,16.771 29.793,23.485L29.803,23.485L29.806,23.643L21.976,35.018C20.708,34.96 19.436,35.183 18.228,35.68C17.703,35.894 17.201,36.162 16.73,36.48L0.047,29.604ZM41.96,31.6C37.516,31.588 33.865,27.931 33.861,23.487C33.866,19.044 37.517,15.388 41.96,15.376C46.403,15.387 50.055,19.043 50.06,23.487C50.056,27.931 46.404,31.589 41.96,31.6ZM35.891,23.474C35.889,26.813 38.633,29.562 41.972,29.567C45.311,29.564 48.057,26.814 48.055,23.474C48.055,20.109 45.326,17.379 41.972,17.379C38.633,17.384 35.888,20.135 35.891,23.474ZM27.923,46.535C26.469,50.035 22.457,51.682 18.97,50.229C17.424,49.579 16.169,48.382 15.446,46.867L19.403,48.507C20.017,48.762 20.676,48.894 21.34,48.894C23.373,48.894 25.215,47.665 25.994,45.788C27.059,43.233 25.834,40.254 23.28,39.187L19.179,37.492C20.757,36.892 22.551,36.872 24.229,37.569C25.929,38.272 27.229,39.596 27.926,41.289C28.622,42.982 28.618,44.849 27.915,46.535L27.923,46.535Z" style="fill:rgb(76,76,76);"/>
            </g>
        </g>
    </g>
</svg>
