<?xml version="1.0" encoding="UTF-8" standalone="no"?>
<!DOCTYPE svg PUBLIC "-//W3C//DTD SVG 1.1//EN" "http://www.w3.org/Graphics/SVG/1.1/DTD/svg11.dtd">
<svg width="100%" height="100%" viewBox="0 0 800 239" version="1.1" xmlns="http://www.w3.org/2000/svg" xmlns:xlink="http://www.w3.org/1999/xlink" xml:space="preserve" xmlns:serif="http://www.serif.com/" style="fill-rule:evenodd;clip-rule:evenodd;stroke-linejoin:round;stroke-miterlimit:2;">
    <g id="layer1" transform="matrix(0.897482,0,0,0.897482,41.0072,12.2325)">
        <path id="path3003" d="M189.72,175.41L205.29,175.41C205.29,175.41 210.78,175.41 213.83,176.81C217.5,178.47 219.3,183.47 219.3,188.47C219.3,193.92 218.56,198.03 215.56,201.03C213.13,203.5 207.47,203.27 207.47,203.27L201.2,203.27L201.2,199.21L205.56,199.21C207.35,199.21 209.35,198.8 210.56,196.73C211.4,195.38 211.56,191.54 211.56,189.3C211.56,187.06 211.3,183.76 209.9,181.93C208.26,179.79 203.46,179.79 203.46,179.79L196.86,179.79L196.86,221.12L189.72,221.12L189.72,175.41ZM232,175.41L232,221.12L224.87,221.12L224.87,175.41L232,175.41ZM270,186.07L278.3,186.07L287.05,211.69L296.45,186.07L303.06,186.07L281.48,238.64L275.56,238.64L283.05,220.28L270,186.07ZM308.45,220.85L308.45,216.53C308.45,216.53 315.99,216.82 317.56,216.82C321.05,216.82 322.78,216.08 324.09,214.68C324.87,213.83 325.57,210.1 325.57,208.78C325.577,206.965 325.315,205.158 324.79,203.42C324.121,202.039 322.752,201.126 321.22,201.04C319.92,200.93 317.91,200.66 315.56,200.56C313.05,200.467 310.687,199.337 309.04,197.44C307.99,196.21 306.6,194.35 306.6,188.65C306.6,182.95 308.08,179.74 309.6,178.26C311.086,176.933 312.936,176.079 314.91,175.81C316.568,175.595 318.238,175.481 319.91,175.47L329.91,175.76L329.91,180.08C329.91,180.08 322.62,179.79 321.06,179.79C317.57,179.79 316.53,180.53 315.22,181.93C314.353,183.258 313.878,184.804 313.85,186.39C313.809,188.138 314.039,189.882 314.53,191.56C315.196,192.945 316.566,193.862 318.1,193.95C319.39,194.05 321.41,194.31 323.75,194.42C326.261,194.501 328.627,195.629 330.27,197.53C331.32,198.77 332.72,201.39 332.72,207.08C332.72,212.77 331.23,216.87 329.72,218.35C328.233,219.674 326.383,220.524 324.41,220.79C322.736,221.013 321.049,221.13 319.36,221.14L308.45,220.85ZM347.34,179.79L347.34,186.07L355.4,186.07L355.4,190.37L347.34,190.37L347.34,210.13C347.347,211.644 347.437,213.156 347.61,214.66C347.9,216.73 349.4,216.81 350.61,216.81C351.82,216.81 353.82,216.67 353.82,216.67L353.82,220.97L346.43,221.12C342.34,221.12 340.76,218.55 340.59,217.48C340.42,216.41 340.25,213.34 340.25,213.34L340.25,179.79L347.34,179.79ZM423.37,186.07L423.37,221.12L416.24,221.12L416.24,186.07L423.37,186.07ZM423.37,175.41L423.37,181.77L416.24,181.77L416.24,175.41L423.37,175.41ZM445.92,185.77C450.77,185.77 454.54,186.85 456.56,188.49C458.58,190.13 461.11,193.59 461.11,203.6C461.11,213.61 458.6,217.06 456.56,218.7C454.52,220.34 450.77,221.43 445.92,221.43C441.07,221.43 437.3,220.34 435.26,218.7C433.22,217.06 430.73,213.6 430.73,203.6C430.73,193.6 433.22,190.13 435.26,188.49C437.3,186.85 441.05,185.77 445.92,185.77ZM441,192.49C440,193.7 438.82,196.24 438.82,203.6C438.82,210.96 440.01,213.49 441,214.7C443.873,217.353 448.357,217.353 451.23,214.7C452.23,213.49 453.41,210.95 453.41,203.6C453.41,196.25 452.21,193.7 451.23,192.49C448.357,189.837 443.873,189.837 441,192.49ZM475.89,191L475.85,191L475.85,221.11L468.77,221.11L468.77,186.39L484.77,186.1C484.77,186.1 490.13,185.87 493.13,188.24C495.22,189.9 496.62,192.54 496.62,197.09L496.62,221.09L489.48,221.09L489.48,197.66C489.584,195.812 489.02,193.986 487.89,192.52C486.89,191.2 484.72,190.71 482.89,190.71L475.89,191ZM401.99,179.79L401.99,186.07L409.99,186.07L409.99,190.37L401.99,190.37L401.99,210.13C401.997,211.644 402.083,213.156 402.25,214.66C402.55,216.73 404.03,216.81 405.25,216.81C406.47,216.81 408.47,216.67 408.47,216.67L408.47,220.97L401.08,221.12C396.97,221.12 395.42,218.55 395.24,217.48C395.06,216.41 394.9,213.34 394.9,213.34L394.9,179.79L401.99,179.79ZM259.12,197.65C259.224,195.802 258.66,193.976 257.53,192.51C256.53,191.19 254.34,190.7 252.53,190.7L243.12,190.99L243.12,186.36L254.45,186.07C254.45,186.07 259.81,185.84 262.8,188.21C264.89,189.87 266.28,192.51 266.28,197.06L266.28,220.74L252.61,221.04C252.61,221.04 246.42,221.04 243.3,219.8C240.18,218.56 238.6,215.17 238.6,210.46C238.6,205.91 239.99,203.27 242.08,201.61C245.08,199.23 250.44,199.47 250.44,199.47L254.8,199.47L254.8,203.47L252.35,203.47C250.52,203.47 248.63,203.81 247.58,205.14C246.482,206.448 245.943,208.138 246.08,209.84C246.08,212.99 246.69,214.39 248.17,215.46C249.48,216.46 251.82,216.62 254.44,216.62L259.15,216.34L259.15,197.65L259.12,197.65ZM379.43,197.65C379.537,195.803 378.976,193.978 377.85,192.51C376.8,191.19 374.65,190.7 372.85,190.7L363.44,190.99L363.44,186.36L374.76,186.07C374.76,186.07 380.11,185.84 383.11,188.21C385.2,189.87 386.59,192.51 386.59,197.06L386.59,220.74L372.92,221.04C372.92,221.04 366.72,221.04 363.61,219.8C360.5,218.56 358.9,215.17 358.9,210.46C358.9,205.91 360.31,203.27 362.38,201.61C365.38,199.23 370.75,199.47 370.75,199.47L375.11,199.47L375.11,203.47L372.66,203.47C370.83,203.47 368.93,203.81 367.9,205.14C366.795,206.444 366.251,208.136 366.39,209.84C366.39,212.99 367,214.39 368.48,215.46C369.78,216.46 372.14,216.62 374.75,216.62L379.45,216.34L379.45,197.65L379.43,197.65ZM509.58,221.4C507.742,221.406 505.973,220.687 504.66,219.4C503.317,218.084 502.559,216.281 502.559,214.4C502.559,210.56 505.719,207.4 509.559,207.4C513.399,207.4 516.559,210.56 516.559,214.4C516.559,218.232 513.412,221.389 509.58,221.4ZM503.78,214.4C503.78,215.938 504.392,217.414 505.48,218.5C506.567,219.587 508.043,220.198 509.58,220.198C512.762,220.198 515.38,217.579 515.38,214.398C515.38,211.216 512.762,208.598 509.58,208.598C506.398,208.598 503.78,211.216 503.78,214.398L503.78,214.4ZM513,217.68L513,217.72L513.1,217.72L513.1,218.18L511.61,218.18L511.55,218.08C511.51,217.986 511.477,217.889 511.45,217.79C511.437,217.587 511.437,217.383 511.45,217.18L511.39,215.94C511.413,215.603 511.242,215.28 510.95,215.11C510.679,215.023 510.394,214.986 510.11,215L508,215L508,218.21L506.64,218.21L506.64,210.45L510.24,210.45C510.743,210.431 511.244,210.52 511.71,210.71C512.454,211.041 512.912,211.808 512.85,212.62C512.866,213.034 512.762,213.444 512.55,213.8C512.398,214.028 512.2,214.222 511.97,214.37C512.145,214.464 512.298,214.593 512.42,214.75C512.613,215.048 512.713,215.395 512.71,215.75L512.71,216.75C512.715,216.948 512.739,217.146 512.78,217.34C512.795,217.482 512.877,217.608 513,217.68ZM511.45,212.68L511.5,212.68C511.544,212.307 511.358,211.943 511.03,211.76C510.797,211.659 510.544,211.611 510.29,211.62L508,211.62L508,213.82L510.13,213.82C510.482,213.833 510.829,213.743 511.13,213.56C511.376,213.338 511.496,213.008 511.45,212.68ZM560.64,181.31C560.74,186.58 560.48,189.31 558.71,192C557.15,194.31 554.06,196.44 547.23,196.44L538.76,196.18C537.43,196.18 533.96,196.59 532.32,198.36C530.91,199.86 530.82,201 530.66,205.04L530.66,216.85L559.47,216.85L559.47,222.66L526.5,222.66C526.454,222.662 526.409,222.662 526.363,222.662C524.103,222.662 522.243,220.802 522.243,218.542C522.243,218.465 522.246,218.387 522.25,218.31L522.25,209.49C522.39,199.17 523.14,197.69 525.38,194.99C526.93,193.13 530.56,191.04 535,190.81C536.594,190.702 538.193,190.679 539.79,190.74C541.49,190.79 543.15,190.84 543.89,190.84C547.81,190.89 549.24,190.17 550.32,188.76C551.54,187.17 552.19,185.31 552.19,182.25C552.19,179.4 551.61,176.68 550.52,175.43C549.19,173.98 547.94,173.01 544.24,173.01C534.94,173.01 524.06,173.22 524.06,173.22L524.06,167.76C524.06,167.76 534.69,167.29 545.53,167.13C552.28,167.03 555.99,168.81 557.88,171.28C559.77,173.75 560.58,176.28 560.66,181.33L560.64,181.31Z" style="fill:rgb(111,111,111);"/>
        <path id="polygon13" d="M788.36,114.77L792.51,127.23L796.68,114.77L800,114.77L800,129.72L798.33,129.72L798.33,117.26L794.18,129.72L791.68,129.72L787.52,117.26L787.52,129.72L785.02,129.72L785.02,114.77L788.36,114.77ZM775.88,116.42L771.72,116.42L771.72,114.77L783.37,114.77L783.37,116.42L778.38,116.42L778.38,129.72L775.88,129.72L775.88,116.42Z" style="fill:rgb(111,111,111);"/>
        <g id="path0" transform="matrix(2.21236,0,0,2.21236,-41.2964,-13.2915)">
            <path d="M18.5,4C17.705,4.795 17.5,5.667 17.5,8.25C17.5,14.08 11.815,13.5 69,13.5L118.5,13.5L118.5,30L69,30C20.167,30 19.487,30.013 18.5,31C17.54,31.96 17.5,32.667 17.5,48.639C17.5,68.446 17.25,67.5 22.492,67.5C28.037,67.5 28,67.6 28,52.683L28,40.5L76.933,40.5C125.757,40.5 125.868,40.498 127.189,39.459L128.513,38.417L128.382,21.348L128.25,4.279L127,3.647C124.542,2.404 19.755,2.745 18.5,4M177.227,4.227L176,5.455L176,57L150.717,57C120.763,57 122.521,56.654 122.508,62.548C122.495,67.943 119.619,67.5 154.628,67.5L184.927,67.5L185.972,66.172C187.001,64.864 187.017,64.455 187,40.047C186.99,26.408 186.986,14.856 186.991,14.375C186.999,13.553 188.549,13.5 212.456,13.5L237.911,13.5L239.259,11.898C240.45,10.482 240.581,9.979 240.38,7.565C239.974,2.661 242.367,3 208.172,3L178.455,3L177.227,4.227M250.727,4.227C249.078,5.876 248.974,10.197 250.536,12.183L251.573,13.5L351,13.5L351,30L301.375,30.008C274.081,30.012 251.502,30.181 251.2,30.383C249.658,31.412 249.5,33.122 249.5,48.75C249.5,64.378 249.658,66.088 251.2,67.117C251.502,67.319 275.872,67.488 305.356,67.492L358.961,67.5L359.981,66.406C360.778,65.55 361,64.64 361,62.233C361,56.735 366.371,57.27 309.698,57.118L260.5,56.986L260.5,40.5L309.433,40.5C358.179,40.5 358.37,40.496 359.683,39.464L361,38.427L360.992,21.839C360.988,12.715 360.819,5.002 360.617,4.7C359.504,3.033 358.44,3 305.01,3L251.955,3L250.727,4.227" style="fill:rgb(111,111,111);"/>
        </g>
    </g>
</svg>
