<?xml version="1.0" encoding="UTF-8" standalone="no"?>
<!DOCTYPE svg PUBLIC "-//W3C//DTD SVG 1.1//EN" "http://www.w3.org/Graphics/SVG/1.1/DTD/svg11.dtd">
<svg width="100%" height="100%" viewBox="0 0 164 28" version="1.1" xmlns="http://www.w3.org/2000/svg"
     xml:space="preserve"
     style="fill-rule:evenodd;clip-rule:evenodd;stroke-linejoin:round;stroke-miterlimit:2;">
    <g id="g6" transform="matrix(0.00673302,0,0,-0.00677938,-2.19954,31.1394)">
        <path id="path10" d="M2203.75,4505C2051.25,4486.25 1855,4441.25 1731.25,4393.75C1593.75,4342.5 1425,4260 1425,4243.75C1425,4233.75 1455,4225 1503.75,4220C1678.75,4200 2003.75,4063.75 2297.5,3890C2368.75,3847.5 2438.75,3812.5 2451.25,3812.5C2465,3812.5 2533.75,3847.5 2603.75,3890C2771.25,3991.25 3047.5,4125 3175,4167.5C3232.5,4186.25 3322.5,4207.5 3376.25,4216.25C3441.25,4225 3475,4236.25 3475,4246.25C3475,4282.5 3183.75,4406.25 2981.25,4456.25C2715,4522.5 2470,4537.5 2203.75,4505Z" style="fill:rgb(111,111,111);fill-rule:nonzero;"/>
        <path id="path12" d="M995,3922.5C661.25,3582.5 480,3213.75 418.75,2741.25C390,2521.25 397.5,2333.75 445,2093.75C491.25,1862.5 597.5,1602.5 722.5,1418.75C805,1296.25 818.75,1297.5 828.75,1428.75C867.5,1921.25 1250,2597.5 1886.25,3292.5C1941.25,3353.75 1987.5,3411.25 1987.5,3418.75C1987.5,3436.25 1797.5,3621.25 1657.5,3741.25C1470,3901.25 1226.25,4050 1155,4050C1127.5,4050 1092.5,4021.25 995,3922.5Z" style="fill:rgb(111,111,111);fill-rule:nonzero;"/>
        <path id="path14" d="M3653.75,4013.75C3495,3937.5 3281.25,3777.5 3075,3578.75C2992.5,3500 2925,3426.25 2925,3416.25C2925,3406.25 2986.25,3330 3061.25,3246.25C3601.25,2645 3943.75,2071.25 4050,1591.25C4063.75,1530 4075,1446.25 4075,1403.75C4075,1333.75 4077.5,1325 4098.75,1325C4127.5,1325 4241.25,1500 4312.5,1656.25C4457.5,1967.5 4508.75,2226.25 4496.25,2583.75C4483.75,2997.5 4371.25,3336.25 4140,3661.25C4033.75,3811.25 3800,4050 3760,4050C3743.75,4050 3696.25,4033.75 3653.75,4013.75Z" style="fill:rgb(111,111,111);fill-rule:nonzero;"/>
        <path id="path16" d="M2312.5,2910C2016.25,2652.5 1625,2247.5 1402.5,1966.25C1166.25,1668.75 912.5,1266.25 912.5,1191.25C912.5,1167.5 1043.75,1033.75 1162.5,935C1580,590 2186.25,430 2756.25,513.75C3196.25,578.75 3596.25,778.75 3928.75,1098.75C3980,1147.5 3987.5,1161.25 3987.5,1206.25C3986.25,1436.25 3535,2006.25 2788.75,2720C2586.25,2913.75 2473.75,3012.5 2456.25,3012.5C2441.25,3012.5 2380,2968.75 2312.5,2910Z" style="fill:rgb(111,111,111);fill-rule:nonzero;"/>
    </g>
    <g id="polygon8" transform="matrix(0.8,0,0,0.8,-17.726,-3.41898)">
        <path d="M187.016,14.968L187.016,35.769L184.135,35.769L184.135,9.869L186.703,9.874L202.372,31.162L202.372,9.89L205.258,9.89L205.258,35.789L202.37,35.786L187.016,14.968ZM169.155,9.289C176.43,9.289 181.503,14.859 181.503,22.833C181.503,30.819 176.43,36.388 169.155,36.388C161.872,36.388 156.782,30.819 156.782,22.833C156.782,14.859 161.872,9.289 169.155,9.289ZM169.155,33.644C174.694,33.644 178.559,29.198 178.559,22.833C178.559,16.473 174.694,12.026 169.155,12.026C163.608,12.026 159.719,16.473 159.719,22.833C159.719,29.198 163.608,33.644 169.155,33.644ZM226.63,12.407L211.403,12.407L211.403,21.136L225.661,21.136L225.661,23.672L211.403,23.672L211.403,33.256L226.808,33.256L226.808,35.791L208.498,35.791L208.498,9.873L226.63,9.873L226.63,12.407Z" style="fill:rgb(111,111,111);"/>
    </g>
    <g id="polygon14" transform="matrix(0.8,0,0,0.8,-17.726,-3.41898)">
        <path d="M132.974,9.89L140.385,19.957L147.79,9.89L151.196,9.89L142.109,22.232L152.07,35.813L148.664,35.813L140.385,24.572L132.111,35.813L128.7,35.813L138.657,22.232L129.565,9.89L132.974,9.89ZM103.083,23.213C104.548,24.468 105.32,26.204 105.32,28.245C105.32,32.915 101.776,35.812 96.074,35.812L85.548,35.811L85.548,23.667L80.159,23.667C80.553,23.082 81.584,21.658 82.041,21.066L85.548,21.066L85.548,9.891L96.074,9.891C103.889,9.891 104.501,15.283 104.501,16.942C104.501,19.181 103.267,21.111 101.385,22.132C101.956,22.396 102.543,22.752 103.083,23.213ZM88.458,12.595L88.458,21.066L96.074,21.066C99.576,21.066 101.588,19.441 101.588,16.715C101.588,13.108 98.137,12.595 96.074,12.595L88.458,12.595ZM96.074,33.108C98.445,33.108 102.417,32.466 102.417,28.189C102.417,24.468 98.962,23.671 96.074,23.671L88.458,23.671L88.458,33.108L96.074,33.108ZM119.011,9.291C126.287,9.291 131.36,14.861 131.36,22.835C131.36,30.82 126.287,36.387 119.011,36.387C111.731,36.387 106.642,30.82 106.642,22.835C106.642,14.861 111.731,9.291 119.011,9.291ZM119.011,33.645C124.55,33.645 128.415,29.199 128.415,22.835C128.415,16.475 124.55,12.03 119.011,12.03C113.464,12.03 109.579,16.475 109.579,22.835C109.579,29.199 113.464,33.645 119.011,33.645ZM61.638,9.89L65.035,9.89L72.441,19.96L79.854,9.89L83.26,9.89L74.167,22.231L84.132,35.811L80.723,35.811L72.446,24.573L64.175,35.811L60.762,35.811L70.725,22.231L61.638,9.89Z" style="fill:rgb(111,111,111);"/>
    </g>
</svg>
