<?xml version="1.0" encoding="UTF-8" standalone="no"?>
<!DOCTYPE svg PUBLIC "-//W3C//DTD SVG 1.1//EN" "http://www.w3.org/Graphics/SVG/1.1/DTD/svg11.dtd">
<svg width="100%" height="100%" viewBox="0 0 164 28" version="1.1" xmlns="http://www.w3.org/2000/svg"
     xml:space="preserve"
     style="fill-rule:evenodd;clip-rule:evenodd;stroke-linejoin:round;stroke-miterlimit:2;">
    <g id="g6" transform="matrix(0.00673302,0,0,-0.00677938,-2.19954,31.1394)">
        <path id="path10" d="M2203.75,4505C2051.25,4486.25 1855,4441.25 1731.25,4393.75C1593.75,4342.5 1425,4260 1425,4243.75C1425,4233.75 1455,4225 1503.75,4220C1678.75,4200 2003.75,4063.75 2297.5,3890C2368.75,3847.5 2438.75,3812.5 2451.25,3812.5C2465,3812.5 2533.75,3847.5 2603.75,3890C2771.25,3991.25 3047.5,4125 3175,4167.5C3232.5,4186.25 3322.5,4207.5 3376.25,4216.25C3441.25,4225 3475,4236.25 3475,4246.25C3475,4282.5 3183.75,4406.25 2981.25,4456.25C2715,4522.5 2470,4537.5 2203.75,4505Z" style="fill:rgb(111,111,111);fill-rule:nonzero;"/>
        <path id="path12" d="M995,3922.5C661.25,3582.5 480,3213.75 418.75,2741.25C390,2521.25 397.5,2333.75 445,2093.75C491.25,1862.5 597.5,1602.5 722.5,1418.75C805,1296.25 818.75,1297.5 828.75,1428.75C867.5,1921.25 1250,2597.5 1886.25,3292.5C1941.25,3353.75 1987.5,3411.25 1987.5,3418.75C1987.5,3436.25 1797.5,3621.25 1657.5,3741.25C1470,3901.25 1226.25,4050 1155,4050C1127.5,4050 1092.5,4021.25 995,3922.5Z" style="fill:rgb(111,111,111);fill-rule:nonzero;"/>
        <path id="path14" d="M3653.75,4013.75C3495,3937.5 3281.25,3777.5 3075,3578.75C2992.5,3500 2925,3426.25 2925,3416.25C2925,3406.25 2986.25,3330 3061.25,3246.25C3601.25,2645 3943.75,2071.25 4050,1591.25C4063.75,1530 4075,1446.25 4075,1403.75C4075,1333.75 4077.5,1325 4098.75,1325C4127.5,1325 4241.25,1500 4312.5,1656.25C4457.5,1967.5 4508.75,2226.25 4496.25,2583.75C4483.75,2997.5 4371.25,3336.25 4140,3661.25C4033.75,3811.25 3800,4050 3760,4050C3743.75,4050 3696.25,4033.75 3653.75,4013.75Z" style="fill:rgb(111,111,111);fill-rule:nonzero;"/>
        <path id="path16" d="M2312.5,2910C2016.25,2652.5 1625,2247.5 1402.5,1966.25C1166.25,1668.75 912.5,1266.25 912.5,1191.25C912.5,1167.5 1043.75,1033.75 1162.5,935C1580,590 2186.25,430 2756.25,513.75C3196.25,578.75 3596.25,778.75 3928.75,1098.75C3980,1147.5 3987.5,1161.25 3987.5,1206.25C3986.25,1436.25 3535,2006.25 2788.75,2720C2586.25,2913.75 2473.75,3012.5 2456.25,3012.5C2441.25,3012.5 2380,2968.75 2312.5,2910Z" style="fill:rgb(111,111,111);fill-rule:nonzero;"/>
    </g>
    <g id="path3009" transform="matrix(1,0,0,1,-6.089,-3.61723)">
        <path d="M156.583,7.909C151.792,7.909 149.042,11.765 149.042,18.487C149.042,25.205 151.792,29.065 156.583,29.065C159.314,29.065 161.343,27.872 162.632,25.534C163.857,23.301 164.117,20.468 164.117,18.487C164.117,15.308 163.38,7.909 156.583,7.909M156.583,27.255C155.215,27.255 154.081,26.809 153.206,25.941C151.284,24.01 150.995,20.445 150.995,18.487C150.995,15.85 151.541,9.721 156.583,9.721C161.623,9.721 162.164,15.85 162.164,18.487C162.163,21.124 161.622,27.255 156.582,27.255M140.395,14.896C138.207,14.896 136.208,15.962 134.979,17.721C135.237,13.89 136.467,9.721 140.624,9.721C142.95,9.721 144.71,11.237 145.106,13.587L145.166,13.956L147.097,13.956L147.046,13.466C146.664,10.04 144.204,7.909 140.624,7.909C134.297,7.909 132.972,14.187 132.972,19.449C132.972,25.74 135.539,29.065 140.395,29.065C144.382,29.065 147.399,26.044 147.399,22.04C147.399,17.896 144.45,14.896 140.395,14.896M140.395,27.255C137.536,27.255 135.291,24.962 135.291,22.04C135.291,18.998 137.491,16.709 140.395,16.709C141.701,16.709 142.936,17.218 143.857,18.143C144.868,19.147 145.438,20.567 145.438,22.04C145.438,24.962 143.223,27.255 140.395,27.255M131.454,22.825C131.454,26.594 128.649,29.028 124.313,29.028C121.961,29.028 120.05,28.328 118.787,27.003C117.578,25.735 116.99,23.921 117.086,21.753L117.101,21.34L119.057,21.34L119.043,21.792C118.975,23.425 119.42,24.794 120.334,25.746C121.26,26.706 122.64,27.221 124.313,27.221C126.894,27.221 129.495,25.709 129.495,22.825C129.495,21.634 129.13,20.687 128.4,20.005C127.519,19.178 126.099,18.803 124.305,18.784L122.945,18.784C122.933,18.312 122.933,17.366 122.945,16.876C123.441,16.874 123.955,16.866 124.297,16.866C125.251,16.866 127.107,16.626 128.111,15.661C128.724,15.067 129.047,14.255 129.047,13.253C129.047,10.909 126.664,9.684 124.313,9.684C121.984,9.684 120.226,11.202 119.83,13.554L119.77,13.919L117.828,13.919L117.884,13.432C118.27,10.007 120.737,7.873 124.313,7.873C126.498,7.873 128.429,8.55 129.608,9.727C130.527,10.651 130.999,11.835 130.999,13.253C130.999,15.262 129.914,16.962 128.208,17.747C130.216,18.552 131.454,20.442 131.454,22.825" style="fill:rgb(111,111,111);fill-rule:nonzero;"/>
    </g>
    <g id="polygon14" transform="matrix(0.8,0,0,0.8,-17.726,-3.41898)">
        <path d="M132.974,9.89L140.385,19.957L147.79,9.89L151.196,9.89L142.109,22.232L152.07,35.813L148.664,35.813L140.385,24.572L132.111,35.813L128.7,35.813L138.657,22.232L129.565,9.89L132.974,9.89ZM103.083,23.213C104.548,24.468 105.32,26.204 105.32,28.245C105.32,32.915 101.776,35.812 96.074,35.812L85.548,35.811L85.548,23.667L80.159,23.667C80.553,23.082 81.584,21.658 82.041,21.066L85.548,21.066L85.548,9.891L96.074,9.891C103.889,9.891 104.501,15.283 104.501,16.942C104.501,19.181 103.267,21.111 101.385,22.132C101.956,22.396 102.543,22.752 103.083,23.213ZM88.458,12.595L88.458,21.066L96.074,21.066C99.576,21.066 101.588,19.441 101.588,16.715C101.588,13.108 98.137,12.595 96.074,12.595L88.458,12.595ZM96.074,33.108C98.445,33.108 102.417,32.466 102.417,28.189C102.417,24.468 98.962,23.671 96.074,23.671L88.458,23.671L88.458,33.108L96.074,33.108ZM119.011,9.291C126.287,9.291 131.36,14.861 131.36,22.835C131.36,30.82 126.287,36.387 119.011,36.387C111.731,36.387 106.642,30.82 106.642,22.835C106.642,14.861 111.731,9.291 119.011,9.291ZM119.011,33.645C124.55,33.645 128.415,29.199 128.415,22.835C128.415,16.475 124.55,12.03 119.011,12.03C113.464,12.03 109.579,16.475 109.579,22.835C109.579,29.199 113.464,33.645 119.011,33.645ZM61.638,9.89L65.035,9.89L72.441,19.96L79.854,9.89L83.26,9.89L74.167,22.231L84.132,35.811L80.723,35.811L72.446,24.573L64.175,35.811L60.762,35.811L70.725,22.231L61.638,9.89Z" style="fill:rgb(111,111,111);"/>
    </g>
</svg>
