<?xml version="1.0" encoding="UTF-8" standalone="no"?>
<!DOCTYPE svg PUBLIC "-//W3C//DTD SVG 1.1//EN" "http://www.w3.org/Graphics/SVG/1.1/DTD/svg11.dtd">
<svg width="100%" height="100%" viewBox="0 0 596 596" version="1.1" xmlns="http://www.w3.org/2000/svg" xmlns:xlink="http://www.w3.org/1999/xlink" xml:space="preserve" xmlns:serif="http://www.serif.com/" style="fill-rule:evenodd;clip-rule:evenodd;stroke-linejoin:round;stroke-miterlimit:2;">
    <g id="path4506-0" transform="matrix(1.04199,0,0,1.04199,-12.5703,-269.611)">
        <g id="レイヤー-1" serif:id="レイヤー 1">
            <path id="path4506-01" serif:id="path4506-0" d="M408.606,294.709L384.332,294.907L342.696,294.907L342.696,800.604L408.573,800.604L429.263,800.603C499.445,800.603 556.809,741.805 557.091,671.678L557.097,671.678L557.097,671.272C557.097,671.234 557.098,671.197 557.098,671.159L557.098,650.47L557.097,650.47L557.097,444.842L557.13,444.842L557.13,424.153C557.13,353.797 499.651,294.709 429.295,294.709L408.606,294.709ZM169.455,294.71C99.273,294.71 41.909,353.509 41.627,423.636L41.621,423.636L41.621,424.041C41.621,424.079 41.62,424.116 41.62,424.154L41.62,444.844L41.621,444.844L41.621,650.471L41.587,650.471L41.587,671.16C41.587,741.516 99.067,800.604 169.423,800.604L289.054,800.604L289.054,294.907L190.145,294.907L190.145,294.71L169.455,294.71ZM171.065,336.492L171.065,336.543L190.143,336.543L190.145,404.153L190.145,336.543L247.419,336.543L247.419,758.969L190.112,758.969L190.112,650.471L190.111,758.969L172.502,758.969C106.205,752.914 85.94,714.206 83.256,661.239L83.256,650.471L190.112,650.471L83.256,650.468L83.256,444.848L121.94,444.847C121.886,445.586 121.849,446.327 121.829,447.069C121.829,473.224 143.352,494.747 169.508,494.746C195.663,494.746 217.185,473.224 217.186,447.069C217.16,428.789 206.624,412.067 190.145,404.155C190.145,404.154 190.145,404.154 190.145,404.153C183.71,401.038 176.657,399.41 169.508,399.389C144.213,399.421 123.12,419.576 121.94,444.844L83.256,444.844L83.256,434.843C85.766,381.882 105.63,343.016 171.065,336.492L171.065,336.492ZM443.375,521.995C471.869,521.995 494.604,544.73 494.604,573.224C494.604,601.718 471.869,624.452 443.375,624.452C414.881,624.452 392.147,601.718 392.147,573.224C392.147,544.73 414.881,521.995 443.375,521.995Z" style="fill:rgb(111,111,111);fill-rule:nonzero;"/>
        </g>
    </g>
</svg>
