<?xml version="1.0" encoding="UTF-8" standalone="no"?>
<!DOCTYPE svg PUBLIC "-//W3C//DTD SVG 1.1//EN" "http://www.w3.org/Graphics/SVG/1.1/DTD/svg11.dtd">
<svg width="100%" height="100%" viewBox="0 0 699 209" version="1.1" xmlns="http://www.w3.org/2000/svg" xmlns:xlink="http://www.w3.org/1999/xlink" xml:space="preserve" xmlns:serif="http://www.serif.com/" style="fill-rule:evenodd;clip-rule:evenodd;stroke-linejoin:round;stroke-miterlimit:2;">
    <g id="Capa_x0020_1" transform="matrix(1,0,0,1,-20.6412,-19.9183)">
        <g id="_56610944">
            <path id="_56666168" d="M584.685,91.963L584.685,20.713L640.935,20.713L640.935,99.463C640.935,132.735 584.685,139.54 584.685,91.963ZM507.185,141.963L507.185,45.713C507.185,30.51 520.473,20.713 535.935,20.713L559.686,20.713L559.686,104.463C559.686,164.448 667.186,164.924 667.186,103.213L667.186,21.963L698.436,21.963C709.495,21.963 718.436,34.966 718.436,46.963L718.436,145.713C718.436,165.618 702.236,179.463 682.185,179.463L547.185,179.463C523.422,179.463 507.185,165.47 507.185,141.963Z" style="fill:rgb(0,154,199);"/>
            <path id="_56604928" d="M320.322,44.055C320.322,30.886 331.127,20.418 344.634,20.418C358.817,20.418 369.96,30.886 369.96,44.055C369.96,57.224 358.817,67.693 344.634,67.693C331.127,67.693 320.322,56.887 320.322,44.055ZM366.247,226.4L324.374,226.4L324.374,90.992L366.247,90.992L366.247,226.4ZM405.078,44.055C405.078,30.886 416.221,20.418 429.728,20.418C443.573,20.418 454.716,30.886 454.716,44.055C454.716,57.224 443.573,67.693 429.728,67.693C416.221,67.693 405.078,56.887 405.078,44.055ZM451.003,226.4L409.132,226.4L409.132,90.992L451.003,90.992L451.003,226.4ZM257.852,31.899L302.087,31.899C302.087,31.899 259.877,184.866 254.137,202.763C249.41,216.608 238.942,227.751 223.071,227.751C205.174,227.751 196.733,214.582 192.68,202.763C188.966,190.607 161.614,89.641 161.614,89.641C161.614,89.641 134.262,190.607 130.21,202.763C126.496,214.582 118.054,227.751 99.82,227.751C84.287,227.751 73.481,216.608 69.091,202.763C63.351,184.866 21.141,31.899 21.141,31.899L65.039,31.899L101.846,175.411C101.846,175.411 129.873,67.693 134.262,52.159C138.99,36.964 148.107,30.211 161.614,30.211C174.784,30.211 184.239,36.964 188.628,52.159C193.356,67.693 221.383,175.411 221.383,175.411L257.852,31.899Z" style="fill:rgb(111,111,111);"/>
        </g>
    </g>
</svg>
