<?xml version="1.0" encoding="UTF-8" standalone="no"?>
<!DOCTYPE svg PUBLIC "-//W3C//DTD SVG 1.1//EN" "http://www.w3.org/Graphics/SVG/1.1/DTD/svg11.dtd">
<svg width="100%" height="100%" viewBox="0 0 226 99" version="1.1" xmlns="http://www.w3.org/2000/svg" xmlns:xlink="http://www.w3.org/1999/xlink" xml:space="preserve" xmlns:serif="http://www.serif.com/" style="fill-rule:evenodd;clip-rule:evenodd;stroke-linejoin:round;stroke-miterlimit:2;">
    <g transform="matrix(1,0,0,1,-213.775,-240.707)">
        <path d="M431.348,329.613L433.43,329.613L435.52,336.551L437.643,329.613L439.743,329.613L439.743,338.285L438.366,338.285L438.366,331.119L436.209,338.285L434.793,338.285L432.676,331.119L432.676,338.285L431.348,338.285L431.348,329.613ZM423.52,329.613L430.309,329.613L430.309,330.892L427.643,330.892L427.643,338.285L426.194,338.285L426.194,330.892L423.52,330.892L423.52,329.613ZM326.036,246.081L308.686,314.101C308.686,314.101 295.421,263.044 293.263,255.801C291.104,248.547 286.663,245.369 280.364,245.369C274.063,245.369 269.614,248.547 267.456,255.801C265.307,263.043 252.039,314.101 252.039,314.101L234.677,246.081L213.773,246.081C213.773,246.081 233.851,318.654 236.58,327.061C238.703,333.621 243.732,338.985 251.186,338.985C259.711,338.985 263.696,332.77 265.543,327.061C267.369,321.385 280.365,273.453 280.365,273.453C280.365,273.453 293.361,321.386 295.183,327.061C297.027,332.77 301.014,338.985 309.535,338.985C316.996,338.985 322.016,333.622 324.152,327.061C326.875,318.656 346.939,246.081 346.939,246.081L326.036,246.081ZM397.713,338.284L417.504,338.284L417.504,274.269L397.713,274.269L397.713,338.284ZM395.795,251.887C395.795,258.057 401,263.065 407.391,263.065C414.041,263.065 419.25,258.16 419.25,251.887C419.25,245.612 414.041,240.696 407.391,240.696C401,240.696 395.795,245.711 395.795,251.887M357.499,338.284L377.284,338.284L377.284,274.269L357.499,274.269L357.499,338.284ZM355.575,251.887C355.575,258.057 360.77,263.065 367.165,263.065C373.811,263.065 379.03,258.16 379.03,251.887C379.03,245.612 373.811,240.696 367.165,240.696C360.77,240.696 355.575,245.711 355.575,251.887" style="fill:rgb(76,76,76);fill-rule:nonzero;"/>
    </g>
</svg>
