<?xml version="1.0" encoding="UTF-8" standalone="no"?>
<!DOCTYPE svg PUBLIC "-//W3C//DTD SVG 1.1//EN" "http://www.w3.org/Graphics/SVG/1.1/DTD/svg11.dtd">
<svg width="100%" height="100%" viewBox="0 0 132 16" version="1.1" xmlns="http://www.w3.org/2000/svg"
     xml:space="preserve"
     style="fill-rule:evenodd;clip-rule:evenodd;stroke-linejoin:round;stroke-miterlimit:2;">
    <g>
        <g>
            <path d="M68.7,8.3L62.8,8.3C62,8.3 61.3,9 61.3,9.8L61.3,14C61.3,14.8 62,15.5 62.8,15.5L68.7,15.5C69.5,15.5 70.2,14.8 70.2,14L70.2,9.8C70.3,9 69.6,8.3 68.7,8.3M69,14C69,14.2 68.9,14.3 68.7,14.3L62.9,14.3C62.7,14.3 62.6,14.2 62.6,14L62.6,9.8C62.6,9.6 62.7,9.5 62.9,9.5L68.7,9.5C68.9,9.5 69,9.6 69,9.8L69,14Z" style="fill:rgb(111,111,111);fill-rule:nonzero;"/>
            <path d="M128.7,13.5L128.7,13.2L130,13.2L130,13.5L129.5,13.5L129.5,15L129.2,15L129.2,13.5L128.7,13.5ZM131.9,13.2L131.8,14.9L131.5,14.9L131.5,13.5C131.5,13.8 131.4,14 131.3,14.2L131.1,14.9L130.9,14.9L130.7,14.2C130.6,13.9 130.5,13.7 130.5,13.5L130.5,14.9L130.2,14.9L130.3,13.2L130.7,13.2L130.9,13.9C131,14.1 131.1,14.3 131.1,14.5C131.2,14.3 131.2,14.1 131.3,13.9L131.5,13.2L131.9,13.2ZM48,5.304L48,0.1L49.3,0.1L49.3,7.4L48.2,7.4L42.7,2L42.7,7.4L41.4,7.4L41.4,0.1L42.6,0.1L48,5.304ZM23,1.4L23,0.1L30.8,0.1L30.8,1.4L27.6,1.4L27.6,7.4L26.2,7.4L26.2,1.4L23,1.4ZM20.1,5.4L20.1,0.1L21.4,0.1L21.4,7.4L20.3,7.4L14.8,2L14.8,7.4L13.5,7.4L13.5,0.1L14.6,0.1L20.1,5.4ZM10,7.4L10,0.1L11.4,0.1L11.4,7.4L10,7.4ZM6.6,5.4L6.6,0.1L7.9,0.1L7.9,7.4L6.8,7.4L1.3,2L1.3,7.4L0,7.4L0,0.1L1.2,0.1L6.6,5.4ZM32.4,7.4L32.4,0.1L39.5,0.1L39.5,1.4L33.7,1.4L33.7,3L38.2,3L38.2,4.3L33.7,4.3L33.7,6.1L39.5,6.1L39.5,7.4L32.4,7.4ZM121.6,6.4C125.6,7.8 127.8,8.9 127.8,11.4C127.8,13.8 125,15.6 118.8,15.6C116.2,15.6 114.5,15.4 112.5,15.1L112.5,12.5C114,13.1 116.9,13.5 119.2,13.5C121.8,13.5 122.8,12.6 122.8,11.5C122.8,10.5 121.8,9.9 119,8.9C115.2,7.5 112.5,6.4 112.5,4C112.5,1.5 115.8,0 120.8,0C123.5,0 124.4,0.2 126.1,0.5L126.1,2.9C124.4,2.5 122.9,2 120.6,2C118.2,2 117.1,2.8 117.1,3.6C117.1,4.8 118.7,5.4 121.6,6.4ZM107.2,1.2C110.8,2.8 112,5.4 111.9,7.9C111.9,10.3 110.8,12.9 107.2,14.5C105.7,15.2 102.9,15.6 100.5,15.6L91.2,15.6L91.2,0.1L100.5,0.1C103,0.1 105.7,0.5 107.2,1.2ZM99.3,13.4C103.8,13.4 106.7,11.5 106.7,7.8C106.7,4.2 103.9,2.2 99.3,2.2L96.3,2.2L96.3,13.4L99.3,13.4ZM56.9,0.1C57.9,0.1 58.6,0.5 59.2,1.1C59.7,1.8 60,2.7 60,3.7C60,4.8 59.7,5.7 59.2,6.3C58.6,7 57.8,7.4 56.9,7.4L51.5,7.4L51.5,0.1L56.9,0.1ZM57,6.1C58.2,6.1 58.7,4.9 58.8,3.8C58.8,2.7 58.3,1.4 57,1.4L52.9,1.4L52.9,6.1L57,6.1ZM68.7,0.1C69.6,0.1 70.3,0.8 70.2,1.7L70.2,5.8C70.2,6.6 69.5,7.3 68.7,7.3L62.8,7.3C62,7.3 61.3,6.6 61.3,5.8L61.3,1.6C61.3,0.8 62,0.1 62.8,0.1L68.7,0.1ZM69,5.9L69,1.7C69,1.5 68.9,1.4 68.7,1.4L62.9,1.4C62.7,1.4 62.6,1.5 62.6,1.7L62.6,5.9C62.6,6.1 62.7,6.2 62.9,6.2L68.7,6.2C68.9,6.2 69,6.1 69,5.9Z" style="fill:rgb(111,111,111);"/>
            <path d="M84.8,7.1C84.8,7.1 89.1,6.4 89.1,3.7C89.1,1.1 84.5,-0 79.6,-0C75.2,-0 72.3,0.5 72.3,0.5L72.3,2.9C74.3,2.4 76.2,2 78.8,2C81.6,2 83.7,2.8 83.7,4C83.7,5.4 81.6,6.2 77,6.2L75,6.2L75,8.4L77,8.4C81.8,8.4 84.5,9.1 84.5,10.9C84.5,12.5 82.1,13.4 79,13.4C76.3,13.4 73.9,12.8 72,12.3L72,14.9C73,15.1 75.5,15.6 80.1,15.6C85.3,15.6 89.8,13.9 89.8,11C89.8,8.5 86.6,7.1 84.8,7.1" style="fill:rgb(111,111,111);fill-rule:nonzero;"/>
        </g>
    </g>
</svg>
