<?xml version="1.0" encoding="UTF-8" standalone="no"?>
<!DOCTYPE svg PUBLIC "-//W3C//DTD SVG 1.1//EN" "http://www.w3.org/Graphics/SVG/1.1/DTD/svg11.dtd">
<svg width="100%" height="100%" viewBox="0 0 751 116" version="1.1" xmlns="http://www.w3.org/2000/svg" xmlns:xlink="http://www.w3.org/1999/xlink" xml:space="preserve" xmlns:serif="http://www.serif.com/" style="fill-rule:evenodd;clip-rule:evenodd;stroke-linejoin:round;stroke-miterlimit:2;">
    <g id="g101650" transform="matrix(1,0,0,1,-28.446,-256.103)">
        <g id="layer1">
            <g id="g1016501" serif:id="g101650">
                <path id="path100608" d="M487.389,354.599C487.389,355.679 486.504,356.65 485.414,356.65L447.618,356.65C446.517,356.65 445.632,355.679 445.632,354.599L445.632,327.293C445.632,326.214 446.517,325.351 447.618,325.351L485.414,325.351C486.504,325.351 487.389,326.214 487.389,327.293L487.389,354.599ZM485.749,317.148L447.272,317.148C441.703,317.148 437.159,321.681 437.159,327.293L437.159,354.707C437.159,360.212 441.703,364.853 447.272,364.853L485.749,364.853C491.329,364.853 495.862,360.212 495.862,354.707L495.862,327.293C495.862,321.681 491.329,317.148 485.749,317.148" style="fill:rgb(146,148,151);fill-rule:nonzero;"/>
                <path id="path100618" d="M44.363,276.135L44.363,311.428L35.535,311.428L35.535,263.723L43.079,263.723L78.836,298.476L78.836,263.723L87.546,263.723L87.546,311.428L80.649,311.428L44.363,276.135ZM132.876,276.135L132.876,311.428L124.047,311.428L124.047,263.723L131.581,263.723L167.337,298.476L167.337,263.723L176.058,263.723L176.058,311.428L169.161,311.428L132.876,276.135ZM316.322,276.135L316.322,311.428L307.494,311.428L307.494,263.723L315.027,263.723L350.784,298.476L350.784,263.723L359.505,263.723L359.505,311.428L352.619,311.428L316.322,276.135ZM101.371,263.723L110.2,263.723L110.2,311.428L101.371,311.428L101.371,263.723ZM186.063,263.723L237.804,263.723L237.804,271.926L216.521,271.926L216.521,311.428L207.347,311.428L207.347,271.926L186.063,271.926L186.063,263.723ZM247.809,263.723L294.391,263.723L294.391,271.926L256.551,271.926L256.551,282.611L285.822,282.611L285.822,290.813L256.551,290.813L256.551,303.225L294.391,303.225L294.391,311.428L247.809,311.428L247.809,263.723ZM423.075,270.739C426.313,274.948 428.029,280.776 428.029,287.576C428.029,294.375 426.313,300.203 423.075,304.412C419.621,308.945 414.516,311.428 408.342,311.428L372.963,311.428L372.963,263.723L408.342,263.723C414.516,263.723 419.621,266.098 423.075,270.739ZM408.591,303.225C417.074,303.225 420.085,294.699 420.085,287.576C420.085,280.344 417.074,271.926 408.591,271.926L381.479,271.926L381.479,303.225L408.591,303.225ZM485.749,263.723C491.329,263.723 495.862,268.256 495.862,273.869L495.862,301.283C495.862,306.895 491.329,311.428 485.749,311.428L447.272,311.428C441.703,311.428 437.159,306.895 437.159,301.283L437.159,273.869C437.159,268.256 441.703,263.723 447.272,263.723L485.749,263.723ZM487.389,301.283L487.389,273.869C487.389,272.789 486.504,271.926 485.414,271.926L447.618,271.926C446.517,271.926 445.632,272.789 445.632,273.869L445.632,301.283C445.632,302.254 446.517,303.225 447.618,303.225L485.414,303.225C486.504,303.225 487.389,302.254 487.389,301.283ZM646.023,344.67C655.176,348.339 674.506,351.254 689.594,351.254C706.107,351.254 712.939,345.641 712.939,338.518C712.939,332.042 706.593,328.373 688.364,321.681C663.983,312.723 646.099,305.6 646.099,289.518C646.099,273.005 667.62,263.184 700.419,263.184C718.033,263.184 724.077,264.263 735.259,266.314L735.345,282.071C724.358,280.021 714.623,276.459 699.502,276.459C683.291,276.459 676.384,281.639 676.384,286.928C676.384,294.591 687.025,298.261 705.686,304.952C731.665,314.234 746.116,321.357 746.116,337.007C746.116,353.196 728.017,364.853 687.198,364.853C670.437,364.853 658.878,363.773 646.023,361.615L646.023,344.67ZM611.281,357.513C601.675,361.831 583.5,364.637 567.613,364.637L506.892,364.637L506.892,263.4L567.613,263.4C583.5,263.4 601.675,266.206 611.303,270.523C634.691,281.1 642.31,298.045 642.31,314.018C642.31,329.992 634.755,346.936 611.281,357.513ZM559.141,277.106L539.713,277.106L539.713,350.714L559.141,350.714C588.961,350.714 607.773,337.87 607.773,314.018C607.773,290.166 588.961,277.106 559.141,277.106ZM752.214,349.527L748.318,349.527L748.318,348.124L757.805,348.124L757.805,349.527L753.887,349.527L753.887,360.859L752.214,360.859L752.214,349.527ZM769.969,355.247C769.872,353.52 769.764,351.362 769.764,349.743L769.72,349.743C769.267,351.254 768.749,352.872 768.102,354.599L765.846,360.859L764.594,360.859L762.5,354.707C761.896,352.872 761.399,351.254 761.043,349.743L761,349.743C760.967,351.362 760.87,353.52 760.762,355.355L760.417,360.859L758.841,360.859L759.737,348.124L761.842,348.124L764.022,354.276C764.551,355.895 764.972,357.298 765.317,358.593L765.349,358.593C765.695,357.298 766.148,355.895 766.72,354.276L768.997,348.124L771.102,348.124L771.901,360.859L770.271,360.859L769.969,355.247Z" style="fill:rgb(76,76,76);"/>
            </g>
        </g>
    </g>
</svg>
