<?xml version="1.0" encoding="UTF-8" standalone="no"?>
<!DOCTYPE svg PUBLIC "-//W3C//DTD SVG 1.1//EN" "http://www.w3.org/Graphics/SVG/1.1/DTD/svg11.dtd">
<svg width="100%" height="100%" viewBox="0 0 648 751" version="1.1" xmlns="http://www.w3.org/2000/svg" xmlns:xlink="http://www.w3.org/1999/xlink" xml:space="preserve" xmlns:serif="http://www.serif.com/" style="fill-rule:evenodd;clip-rule:evenodd;stroke-linejoin:round;stroke-miterlimit:2;">
    <g id="g22" transform="matrix(1.31534,0,0,-1.31534,584.822,5.06723)">
        <path d="M0,0C32.195,0 44.078,-11.882 44.078,-44.093L44.078,-432.769C44.078,-436.414 43.93,-439.8 43.608,-442.937C42.875,-449.968 42.737,-456.781 36.198,-464.538C35.56,-465.298 28.884,-470.266 28.884,-470.266C25.292,-472.027 22.841,-473.324 18.79,-474.954L-176.805,-556.902C-186.96,-561.557 -191.206,-563.372 -198.581,-563.226L-198.639,-563.226C-206.014,-563.372 -210.26,-561.557 -220.414,-556.902L-416.01,-474.954C-420.06,-473.324 -422.512,-472.027 -426.103,-470.266C-426.103,-470.266 -432.779,-465.298 -433.418,-464.538C-439.957,-456.781 -440.095,-449.968 -440.828,-442.937C-441.15,-439.8 -441.297,-436.414 -441.297,-432.769L-441.297,-44.093C-441.297,-11.882 -429.415,0 -397.219,0L0,0ZM-26.605,-390.763L-26.515,-389.777L-26.515,-387.625L-26.605,-386.639L-26.695,-385.743L-27.053,-383.949L-27.232,-383.142L-27.496,-382.335L-27.765,-381.529L-28.123,-380.812L-28.572,-380.004L-29.015,-379.287L-29.553,-378.481L-30.086,-377.763L-30.713,-377.136L-31.335,-376.418L-32.052,-375.791L-32.764,-375.163L-33.477,-374.715L-34.194,-374.177L-34.905,-373.729L-35.707,-373.281L-36.514,-372.832L-37.406,-372.384L-38.297,-372.026L-39.188,-371.577L-40.174,-371.224L-40.975,-370.955L-41.777,-370.686L-42.674,-370.417L-43.475,-370.148L-44.366,-369.879L-45.258,-369.61L-46.155,-369.431L-47.136,-369.162L-48.027,-368.893L-49.007,-368.714L-49.988,-368.444L-50.969,-368.176L-51.956,-367.907L-52.847,-367.727L-53.648,-367.458L-54.455,-367.279L-55.167,-367.01L-55.879,-366.831L-56.95,-366.473L-57.936,-366.114L-58.827,-365.755L-59.539,-365.307L-60.346,-364.859L-60.968,-364.231L-61.327,-363.693L-61.769,-362.707L-61.86,-361.542L-61.86,-361.362L-61.769,-360.466L-61.417,-359.659L-60.879,-358.852L-60.077,-358.134L-59.449,-357.776L-58.737,-357.417L-57.936,-357.238L-57.039,-357.058L-56.058,-356.879L-54.096,-356.879L-53.295,-356.969L-52.398,-357.058L-51.507,-357.148L-50.616,-357.328L-49.725,-357.507L-48.828,-357.687L-47.937,-357.955L-47.046,-358.225L-46.064,-358.493L-45.347,-358.852L-44.546,-359.121L-43.834,-359.479L-43.027,-359.838L-42.315,-360.196L-41.514,-360.555L-40.796,-361.004L-39.995,-361.362L-39.278,-361.9L-38.565,-362.348L-37.764,-362.797L-37.047,-363.334L-36.514,-362.617L-36.066,-361.9L-35.534,-361.183L-34.995,-360.466L-34.463,-359.659L-34.014,-358.942L-33.477,-358.225L-32.943,-357.507L-32.496,-356.79L-31.963,-356.073L-31.425,-355.355L-30.976,-354.638L-30.444,-353.832L-29.906,-353.114L-29.373,-352.397L-28.925,-351.68L-28.393,-350.962L-29.104,-350.425L-29.816,-349.887L-30.533,-349.348L-31.246,-348.901L-32.052,-348.363L-32.764,-347.914L-33.566,-347.466L-34.373,-347.018L-35.085,-346.659L-35.887,-346.211L-36.783,-345.852L-37.585,-345.493L-38.386,-345.135L-39.188,-344.866L-40.084,-344.508L-40.886,-344.328L-41.688,-344.059L-42.584,-343.79L-43.386,-343.611L-44.277,-343.431L-45.168,-343.252L-45.975,-343.073L-46.867,-342.894L-47.848,-342.804L-48.739,-342.625L-49.725,-342.535L-50.616,-342.535L-51.597,-342.445L-52.578,-342.356L-56.417,-342.356L-57.308,-342.445L-58.199,-342.535L-59.096,-342.625L-59.987,-342.714L-60.789,-342.894L-61.68,-343.073L-62.486,-343.252L-63.289,-343.431L-64.001,-343.611L-64.808,-343.88L-65.699,-344.238L-66.59,-344.508L-67.397,-344.866L-68.198,-345.314L-69,-345.673L-69.807,-346.121L-70.518,-346.569L-71.231,-347.107L-71.948,-347.645L-72.57,-348.093L-73.287,-348.721L-73.91,-349.439L-74.537,-350.066L-75.159,-350.783L-75.698,-351.5L-76.231,-352.218L-76.678,-353.024L-77.122,-353.832L-77.48,-354.638L-77.839,-355.445L-78.192,-356.252L-78.371,-357.058L-78.64,-357.866L-78.82,-358.673L-78.999,-359.479L-79.089,-360.376L-79.178,-361.183L-79.268,-362.079L-79.268,-364.142L-79.178,-365.127L-79.089,-366.024L-78.999,-366.92L-78.82,-367.727L-78.64,-368.624L-78.371,-369.341L-78.108,-370.148L-77.839,-370.866L-77.48,-371.488L-77.032,-372.294L-76.589,-373.012L-76.14,-373.639L-75.608,-374.266L-75.07,-374.894L-74.447,-375.522L-73.82,-376.149L-73.198,-376.688L-72.481,-377.136L-71.769,-377.674L-70.967,-378.122L-70.25,-378.57L-69.358,-379.018L-68.557,-379.466L-67.661,-379.825L-66.769,-380.183L-65.878,-380.542L-64.897,-380.901L-64.09,-381.17L-63.289,-381.439L-62.486,-381.708L-61.596,-381.888L-60.789,-382.156L-59.897,-382.425L-59.007,-382.605L-58.11,-382.874L-57.219,-383.053L-56.238,-383.322L-55.346,-383.501L-54.366,-383.77L-53.469,-383.949L-52.578,-384.218L-51.776,-384.397L-50.969,-384.667L-50.258,-384.846L-49.635,-385.026L-48.565,-385.473L-47.668,-385.832L-46.867,-386.191L-46.155,-386.549L-45.437,-387.087L-44.815,-387.625L-44.366,-388.252L-44.007,-389.149L-43.919,-390.225L-43.919,-390.404L-44.007,-391.301L-44.277,-392.107L-44.636,-392.825L-45.168,-393.453L-45.885,-393.991L-46.508,-394.349L-47.225,-394.618L-48.027,-394.797L-48.828,-394.977L-49.725,-395.156L-50.706,-395.245L-52.668,-395.245L-53.648,-395.156L-54.54,-395.156L-55.436,-394.977L-56.417,-394.887L-58.199,-394.529L-59.096,-394.349L-59.897,-394.08L-60.789,-393.811L-61.68,-393.542L-62.486,-393.184L-63.289,-392.915L-64.09,-392.556L-64.897,-392.198L-65.699,-391.839L-66.41,-391.39L-67.218,-391.032L-67.929,-390.583L-68.731,-390.046L-69.448,-389.598L-70.25,-389.06L-70.967,-388.522L-71.769,-387.984L-72.481,-387.446L-73.019,-388.163L-73.641,-388.79L-74.179,-389.508L-74.801,-390.225L-75.339,-390.852L-75.872,-391.57L-76.499,-392.287L-77.032,-392.915L-77.66,-393.632L-78.192,-394.259L-78.82,-394.977L-79.352,-395.694L-79.89,-396.321L-80.513,-397.038L-81.051,-397.756L-81.673,-398.384L-82.211,-399.101L-81.499,-399.728L-80.872,-400.266L-80.159,-400.804L-79.442,-401.342L-78.018,-402.418L-77.301,-402.866L-76.589,-403.314L-75.782,-403.763L-75.07,-404.21L-74.268,-404.659L-73.462,-405.018L-72.66,-405.46L-71.858,-405.819L-71.052,-406.178L-70.16,-406.537L-69.358,-406.805L-68.467,-407.074L-67.661,-407.433L-66.769,-407.702L-65.878,-407.971L-65.076,-408.151L-64.18,-408.419L-63.289,-408.598L-62.398,-408.778L-61.506,-408.957L-60.609,-409.136L-59.718,-409.226L-58.827,-409.405L-57.846,-409.495L-56.95,-409.585L-56.058,-409.675L-55.078,-409.675L-54.186,-409.764L-50.437,-409.764L-49.545,-409.675L-48.565,-409.585L-47.668,-409.495L-46.867,-409.405L-45.975,-409.316L-45.078,-409.136L-44.277,-408.957L-43.475,-408.778L-42.584,-408.598L-41.777,-408.33L-40.886,-408.06L-39.995,-407.792L-39.104,-407.433L-38.207,-407.074L-37.406,-406.626L-36.604,-406.267L-35.797,-405.819L-35.085,-405.281L-34.373,-404.839L-33.656,-404.301L-33.033,-403.763L-32.317,-403.135L-31.784,-402.597L-31.156,-401.969L-30.624,-401.342L-30.175,-400.625L-29.642,-399.908L-29.194,-399.19L-28.746,-398.473L-28.393,-397.667L-28.034,-396.949L-27.676,-396.142L-27.406,-395.245L-27.232,-394.438L-26.964,-393.542L-26.784,-392.645L-26.695,-391.66L-26.605,-390.763ZM-336.841,-195.778L-298.158,-195.778L-298.158,-165.856L-336.841,-165.856L-336.841,-104.77L-296.618,-104.77L-296.618,-74.848L-369.69,-74.848L-369.69,-290.799L-296.006,-290.799L-296.006,-260.876L-336.841,-260.876L-336.841,-195.778ZM-88.307,-408.689L-88.307,-393.9L-123.298,-393.9L-123.298,-382.784L-92.236,-382.784L-92.236,-368.893L-123.298,-368.893L-123.298,-358.225L-88.755,-358.225L-88.755,-343.431L-140.342,-343.431L-140.342,-408.689L-88.307,-408.689ZM-153.522,-408.689L-153.522,-343.431L-171.816,-343.431L-172.264,-344.149L-172.707,-344.955L-173.245,-345.667L-173.694,-346.474L-174.136,-347.191L-174.585,-347.999L-175.118,-348.71L-175.566,-349.518L-176.014,-350.235L-176.457,-350.952L-176.994,-351.753L-177.439,-352.471L-177.887,-353.277L-178.335,-353.995L-178.867,-354.796L-179.317,-355.513L-179.758,-356.23L-180.208,-357.033L-180.656,-357.749L-181.188,-358.556L-181.636,-359.274L-182.085,-360.075L-182.528,-360.793L-183.066,-361.599L-183.508,-362.311L-183.957,-363.028L-184.405,-363.835L-184.938,-364.553L-185.386,-365.36L-185.83,-366.072L-186.277,-366.879L-186.81,-367.596L-187.258,-368.397L-187.706,-369.115L-188.149,-368.397L-188.597,-367.596L-189.136,-366.879L-189.579,-366.072L-190.027,-365.36L-190.47,-364.553L-190.918,-363.835L-191.456,-363.028L-191.899,-362.311L-192.348,-361.599L-192.79,-360.793L-193.238,-360.075L-193.776,-359.274L-194.22,-358.556L-194.668,-357.749L-195.11,-357.033L-195.559,-356.23L-196.097,-355.513L-196.54,-354.796L-196.988,-353.995L-197.436,-353.277L-197.969,-352.471L-198.417,-351.753L-198.86,-350.952L-199.309,-350.235L-199.756,-349.518L-200.29,-348.71L-200.738,-347.999L-201.181,-347.191L-201.629,-346.474L-202.078,-345.667L-202.61,-344.955L-203.058,-344.149L-203.501,-343.431L-221.801,-343.431L-221.801,-408.689L-204.841,-408.689L-204.841,-370.28L-204.309,-370.997L-203.859,-371.81L-203.327,-372.526L-202.879,-373.333L-202.341,-374.051L-201.898,-374.857L-201.36,-375.58L-200.917,-376.387L-200.379,-377.104L-199.931,-377.911L-199.398,-378.628L-198.95,-379.441L-198.417,-380.158L-197.969,-380.965L-197.436,-381.682L-196.988,-382.494L-196.45,-383.211L-195.918,-384.018L-195.469,-384.735L-194.937,-385.547L-194.488,-386.264L-193.95,-387.071L-193.508,-387.788L-192.97,-388.601L-192.527,-389.318L-191.989,-390.124L-191.54,-390.842L-191.008,-391.649L-190.56,-392.372L-190.027,-393.178L-189.579,-393.895L-189.046,-394.702L-188.597,-395.425L-188.06,-396.232L-187.706,-396.232L-187.258,-395.515L-186.725,-394.702L-186.277,-393.985L-185.739,-393.268L-185.296,-392.461L-184.759,-391.743L-184.315,-391.021L-183.866,-390.215L-183.328,-389.497L-182.886,-388.78L-182.347,-388.058L-181.904,-387.251L-181.367,-386.534L-180.918,-385.816L-180.475,-385.004L-179.937,-384.287L-179.495,-383.569L-178.957,-382.763L-178.514,-382.045L-177.976,-381.323L-177.527,-380.516L-177.084,-379.799L-176.546,-379.082L-176.103,-378.27L-175.566,-377.552L-175.117,-376.835L-174.585,-376.118L-174.136,-375.306L-173.694,-374.589L-173.155,-373.871L-172.707,-373.065L-172.175,-372.347L-171.726,-371.63L-171.193,-370.817L-170.746,-370.1L-170.746,-408.689L-153.522,-408.689ZM-228.571,-74.848L-280.148,-74.848L-280.148,-290.8L-247.298,-290.8L-247.298,-212.438L-228.571,-212.438C-201.86,-212.438 -188.66,-199.175 -188.66,-172.338L-188.66,-114.954C-188.66,-88.112 -201.86,-74.848 -228.571,-74.848ZM-221.51,-170.792C-221.51,-179.431 -225.497,-183.444 -233.787,-183.444L-247.298,-183.444L-247.298,-103.848L-233.787,-103.848C-225.497,-103.848 -221.51,-107.857 -221.51,-116.494L-221.51,-170.792ZM-292.193,-486.063L-200.125,-517.717L-104.139,-486.063L-292.193,-486.063ZM-229.052,-408.689L-229.41,-407.881L-229.769,-407.074L-230.121,-406.267L-230.391,-405.371L-230.75,-404.569L-231.108,-403.763L-231.462,-402.956L-232.178,-401.342L-232.531,-400.445L-232.89,-399.638L-233.16,-398.832L-233.513,-398.025L-233.871,-397.218L-234.23,-396.411L-234.588,-395.515L-234.941,-394.708L-235.3,-393.9L-235.659,-393.094L-235.922,-392.287L-236.281,-391.48L-236.64,-390.583L-236.999,-389.777L-237.352,-388.97L-237.711,-388.163L-238.069,-387.356L-238.423,-386.549L-238.691,-385.652L-239.05,-384.846L-239.404,-384.039L-239.762,-383.232L-240.121,-382.425L-240.479,-381.618L-240.833,-380.722L-241.191,-379.915L-241.46,-379.108L-241.813,-378.301L-242.172,-377.495L-242.531,-376.688L-242.889,-375.791L-243.243,-374.984L-243.602,-374.177L-243.96,-373.37L-244.224,-372.564L-244.582,-371.756L-244.941,-370.955L-245.294,-370.058L-245.653,-369.252L-246.012,-368.444L-246.37,-367.637L-246.723,-366.831L-246.993,-366.024L-247.351,-365.127L-247.704,-364.321L-248.063,-363.514L-248.421,-362.707L-248.78,-361.9L-249.134,-361.093L-249.492,-360.196L-249.761,-359.39L-250.114,-358.583L-250.473,-357.776L-250.831,-356.969L-251.184,-356.162L-251.543,-355.266L-252.261,-353.652L-252.524,-352.845L-252.883,-352.039L-253.243,-351.231L-253.595,-350.335L-253.955,-349.528L-254.313,-348.721L-254.672,-347.914L-255.025,-347.107L-255.294,-346.301L-255.652,-345.404L-256.006,-344.597L-256.365,-343.79L-256.723,-342.983L-273.234,-342.983L-273.587,-343.79L-273.946,-344.597L-274.304,-345.404L-274.574,-346.301L-274.927,-347.107L-275.285,-347.914L-275.645,-348.721L-275.997,-349.528L-276.357,-350.335L-276.716,-351.231L-277.074,-352.039L-277.338,-352.845L-278.055,-354.459L-278.409,-355.266L-278.768,-356.162L-279.126,-356.969L-279.48,-357.776L-279.838,-358.583L-280.107,-359.39L-280.465,-360.196L-280.819,-361.093L-281.177,-361.9L-281.536,-362.707L-281.89,-363.514L-282.248,-364.321L-282.607,-365.127L-282.876,-366.024L-283.229,-366.831L-283.588,-367.637L-283.946,-368.444L-284.3,-369.252L-284.658,-370.058L-285.016,-370.955L-285.37,-371.756L-285.639,-372.564L-285.998,-373.37L-286.356,-374.177L-286.709,-374.984L-287.068,-375.791L-287.427,-376.688L-287.78,-377.495L-288.139,-378.301L-288.408,-379.108L-288.766,-379.915L-289.12,-380.722L-289.478,-381.618L-289.836,-382.425L-290.19,-383.232L-290.548,-384.039L-290.907,-384.846L-291.176,-385.652L-291.529,-386.549L-292.246,-388.163L-292.6,-388.97L-292.958,-389.777L-293.317,-390.583L-293.67,-391.48L-293.939,-392.287L-294.297,-393.094L-294.656,-393.9L-295.01,-394.708L-295.368,-395.515L-295.727,-396.411L-296.08,-397.218L-296.439,-398.025L-296.707,-398.832L-297.066,-399.638L-297.419,-400.445L-297.778,-401.342L-298.137,-402.149L-298.49,-402.956L-298.848,-403.763L-299.207,-404.569L-299.476,-405.371L-299.83,-406.267L-300.188,-407.074L-300.547,-407.881L-300.9,-408.689L-282.875,-408.689L-282.516,-407.881L-282.247,-407.074L-281.889,-406.267L-281.535,-405.371L-281.266,-404.569L-280.907,-403.763L-280.554,-402.956L-280.285,-402.149L-279.926,-401.342L-279.568,-400.535L-279.304,-399.728L-278.946,-398.832L-278.587,-398.025L-278.318,-397.218L-277.965,-396.411L-252.351,-396.411L-251.992,-397.218L-251.723,-398.025L-251.364,-398.832L-251.01,-399.728L-250.742,-400.535L-250.383,-401.342L-250.025,-402.149L-249.761,-402.956L-249.402,-403.763L-249.044,-404.569L-248.78,-405.371L-248.421,-406.267L-248.063,-407.074L-247.794,-407.881L-247.44,-408.689L-229.052,-408.689ZM-257.972,-381.798L-257.615,-382.605L-272.697,-382.605L-272.344,-381.798L-272.075,-380.986L-271.716,-380.089L-271.357,-379.282L-271.094,-378.47L-270.736,-377.663L-270.377,-376.766L-270.023,-375.954L-269.755,-375.147L-269.396,-374.341L-269.038,-373.529L-268.774,-372.632L-268.415,-371.825L-268.057,-371.013L-267.787,-370.206L-267.434,-369.399L-267.075,-368.498L-266.717,-367.69L-266.453,-366.884L-266.094,-366.072L-265.735,-365.175L-265.467,-364.363L-265.114,-363.556L-264.755,-364.363L-264.486,-365.175L-264.133,-366.072L-263.774,-366.884L-263.505,-367.69L-263.147,-368.498L-262.793,-369.399L-262.525,-370.206L-262.165,-371.013L-261.806,-371.825L-261.544,-372.632L-261.184,-373.529L-260.914,-374.341L-260.562,-375.147L-260.203,-375.954L-259.933,-376.766L-259.575,-377.663L-259.222,-378.47L-258.953,-379.282L-258.594,-380.089L-258.241,-380.986L-257.972,-381.798ZM-308.135,-400.355L-307.513,-399.818L-307.513,-370.686L-336.968,-370.686L-336.968,-383.77L-323.936,-383.77L-323.936,-391.928L-324.649,-392.377L-325.276,-392.735L-326.077,-393.094L-326.794,-393.453L-327.597,-393.811L-328.398,-393.991L-329.289,-394.259L-330.186,-394.438L-331.077,-394.618L-331.968,-394.708L-332.949,-394.797L-333.936,-394.887L-335.987,-394.887L-336.968,-394.797L-337.859,-394.708L-338.75,-394.529L-339.647,-394.349L-340.538,-394.08L-341.43,-393.811L-342.236,-393.453L-343.037,-393.094L-343.84,-392.735L-344.557,-392.287L-345.268,-391.839L-345.98,-391.301L-346.698,-390.763L-347.319,-390.225L-347.858,-389.598L-348.48,-388.97L-349.018,-388.343L-349.551,-387.625L-350.447,-386.191L-350.89,-385.384L-351.248,-384.576L-351.607,-383.68L-351.871,-382.963L-352.14,-382.156L-352.319,-381.35L-352.499,-380.542L-352.678,-379.736L-352.768,-378.839L-352.857,-378.032L-352.941,-377.136L-352.941,-375.073L-352.857,-374.177L-352.768,-373.281L-352.588,-372.294L-352.409,-371.488L-352.23,-370.596L-351.961,-369.7L-351.607,-368.893L-351.338,-368.086L-350.98,-367.279L-350.531,-366.562L-350.089,-365.755L-349.641,-365.038L-349.197,-364.41L-348.659,-363.693L-348.037,-363.065L-347.499,-362.438L-346.877,-361.9L-346.249,-361.362L-345.627,-360.825L-344.909,-360.376L-344.198,-359.927L-343.481,-359.479L-342.679,-359.121L-341.877,-358.762L-341.076,-358.493L-340.269,-358.225L-339.467,-358.045L-338.576,-357.866L-337.769,-357.776L-336.878,-357.687L-335.006,-357.687L-334.02,-357.776L-333.039,-357.866L-332.147,-357.955L-331.256,-358.134L-330.364,-358.314L-329.557,-358.493L-328.756,-358.762L-327.954,-359.031L-327.237,-359.3L-326.525,-359.659L-325.809,-360.017L-325.008,-360.466L-324.294,-360.913L-323.578,-361.362L-322.866,-361.81L-322.154,-362.348L-321.437,-362.797L-320.725,-363.424L-320.008,-363.962L-319.475,-363.245L-318.848,-362.617L-318.314,-361.9L-317.687,-361.183L-317.155,-360.466L-316.617,-359.838L-315.994,-359.121L-315.457,-358.404L-314.834,-357.687L-314.296,-357.058L-313.764,-356.341L-313.136,-355.624L-312.603,-354.997L-312.065,-354.279L-311.443,-353.562L-310.905,-352.845L-310.283,-352.218L-309.745,-351.5L-310.457,-350.962L-311.174,-350.335L-311.886,-349.797L-312.602,-349.259L-313.314,-348.81L-314.026,-348.273L-314.833,-347.824L-315.545,-347.376L-316.346,-346.928L-317.064,-346.48L-317.865,-346.121L-318.667,-345.673L-319.475,-345.314L-320.275,-344.955L-321.078,-344.597L-321.885,-344.328L-322.597,-344.059L-323.397,-343.88L-324.205,-343.611L-325.008,-343.431L-325.809,-343.252L-326.614,-343.073L-327.506,-342.894L-328.398,-342.714L-329.204,-342.625L-330.186,-342.445L-331.077,-342.356L-331.968,-342.356L-332.949,-342.266L-333.936,-342.176L-337.769,-342.176L-338.666,-342.266L-339.558,-342.356L-340.448,-342.445L-341.34,-342.535L-342.236,-342.714L-343.128,-342.804L-344.019,-342.983L-344.821,-343.252L-345.717,-343.431L-346.518,-343.7L-347.319,-343.88L-348.127,-344.238L-349.018,-344.508L-349.73,-344.776L-350.622,-345.225L-351.428,-345.583L-352.23,-345.942L-353.031,-346.39L-353.838,-346.838L-354.64,-347.287L-355.351,-347.735L-356.069,-348.183L-356.781,-348.721L-357.498,-349.169L-358.21,-349.707L-358.833,-350.245L-359.55,-350.873L-360.172,-351.41L-360.799,-352.039L-361.422,-352.665L-361.96,-353.293L-362.582,-353.92L-363.12,-354.549L-363.653,-355.266L-364.191,-355.983L-364.723,-356.7L-365.172,-357.417L-365.619,-358.134L-366.063,-358.852L-366.511,-359.569L-366.959,-360.376L-367.312,-361.183L-367.671,-361.99L-368.029,-362.797L-368.383,-363.603L-368.742,-364.5L-369.011,-365.307L-369.28,-366.203L-369.543,-367.01L-369.723,-367.907L-369.992,-368.803L-370.171,-369.61L-370.26,-370.507L-370.439,-371.398L-370.53,-372.384L-370.614,-373.281L-370.614,-374.177L-370.703,-375.163L-370.703,-378.122L-370.614,-379.018L-370.53,-379.915L-370.439,-380.812L-370.351,-381.618L-370.171,-382.515L-370.081,-383.322L-369.902,-384.218L-369.633,-385.026L-369.454,-385.922L-369.19,-386.728L-369.011,-387.535L-368.652,-388.343L-368.383,-389.06L-368.029,-389.866L-367.671,-390.673L-367.312,-391.48L-366.959,-392.287L-366.511,-393.004L-366.063,-393.811L-365.619,-394.529L-365.172,-395.245L-364.639,-395.963L-364.191,-396.68L-363.653,-397.308L-363.12,-398.025L-362.582,-398.652L-361.96,-399.28L-361.332,-399.908L-360.71,-400.445L-360.082,-401.073L-359.46,-401.611L-358.833,-402.149L-358.12,-402.687L-357.408,-403.224L-356.691,-403.763L-355.979,-404.21L-355.262,-404.659L-354.46,-405.107L-353.749,-405.551L-352.941,-405.999L-352.14,-406.358L-351.338,-406.716L-350.531,-407.074L-349.641,-407.433L-348.839,-407.702L-348.037,-408.06L-347.23,-408.33L-346.339,-408.509L-345.536,-408.778L-344.64,-408.957L-343.84,-409.136L-342.948,-409.316L-342.056,-409.495L-341.16,-409.585L-340.268,-409.675L-339.377,-409.764L-338.396,-409.854L-337.505,-409.943L-333.665,-409.943L-332.685,-409.854L-331.788,-409.764L-330.807,-409.675L-329.916,-409.585L-328.935,-409.495L-328.043,-409.405L-327.147,-409.226L-326.256,-409.047L-325.454,-408.868L-324.557,-408.689L-323.756,-408.419L-322.865,-408.151L-322.063,-407.881L-321.257,-407.612L-320.454,-407.343L-319.653,-406.984L-318.756,-406.626L-317.955,-406.267L-317.064,-405.909L-316.262,-405.46L-315.456,-405.107L-314.654,-404.659L-313.852,-404.21L-313.045,-403.763L-312.333,-403.314L-311.616,-402.866L-310.904,-402.328L-310.192,-401.88L-309.475,-401.342L-308.852,-400.893L-308.135,-400.355ZM-59.766,-202.26L-59.766,-251.004C-59.766,-259.643 -63.759,-263.651 -72.044,-263.651L-78.188,-263.651C-86.783,-263.651 -90.776,-259.643 -90.776,-251.004L-90.776,-114.642C-90.776,-106.004 -86.783,-101.996 -78.188,-101.996L-72.661,-101.996C-64.371,-101.996 -60.378,-106.004 -60.378,-114.642L-60.378,-156.911L-28.145,-156.911L-28.145,-112.791C-28.145,-85.954 -41.04,-72.996 -67.745,-72.996L-83.714,-72.996C-110.42,-72.996 -123.626,-86.26 -123.626,-113.102L-123.626,-252.544C-123.626,-279.387 -110.42,-292.65 -83.714,-292.65L-67.44,-292.65C-40.728,-292.65 -27.529,-279.387 -27.529,-252.544L-27.529,-202.26L-59.766,-202.26ZM-173.841,-290.8L-140.987,-290.8L-140.987,-74.848L-173.841,-74.848L-173.841,-290.8Z" style="fill:rgb(111,111,111);"/>
    </g>
</svg>
