<?xml version="1.0" encoding="UTF-8" standalone="no"?>
<!DOCTYPE svg PUBLIC "-//W3C//DTD SVG 1.1//EN" "http://www.w3.org/Graphics/SVG/1.1/DTD/svg11.dtd">
<svg width="100%" height="100%" viewBox="0 0 2500 2500" version="1.1" xmlns="http://www.w3.org/2000/svg"
     xml:space="preserve"
     style="fill-rule:evenodd;clip-rule:evenodd;stroke-linejoin:round;stroke-miterlimit:2;">
    <g transform="matrix(1.12816,0,0,1.12816,-162.319,-160.465)">
        <g transform="matrix(1,0,0,1,248.076,482.319)">
            <path d="M1940.48,20.67C1940.48,20.67 2027.31,0 2027.31,115.767L2027.31,1455.38C2027.31,1455.38 2043.84,1823.36 1597.31,1823.36L398.271,1823.36C398.271,1823.36 9.62,1798.55 9.62,1430.58L9.62,95.093C9.62,95.093 9.62,20.67 137.791,20.67L1940.48,20.67ZM972.586,946.24L577.186,946.24L577.186,1341.64L972.586,1341.64L972.586,946.24ZM972.586,463.025L577.186,463.025L577.186,858.425L972.586,858.425L972.586,463.025ZM1455.84,463.025L1060.44,463.025L1060.44,858.425L1455.84,858.425L1455.84,463.025ZM1455.84,946.24L1060.44,946.24L1060.44,1341.64L1455.84,1341.64L1455.84,946.24Z" style="fill:rgb(111,111,111);"/>
        </g>
        <g transform="matrix(1,0,0,1,639.92,179.308)">
            <path d="M9.62,414.607C9.62,463.132 48.983,502.494 97.508,502.494C146.028,502.494 185.352,463.132 185.352,414.607L9.62,414.607ZM1063.94,414.607C1063.94,463.132 1103.27,502.494 1151.8,502.494C1200.32,502.494 1239.67,463.132 1239.67,414.607L1063.94,414.607ZM185.357,414.607L185.357,194.977L9.62,194.977L9.62,414.611L185.357,414.607ZM185.357,194.977L1063.94,194.977L1063.94,19.24L185.357,19.24L185.357,194.977ZM1063.94,194.977L1063.94,414.611L1239.67,414.611L1239.67,194.977L1063.94,194.977ZM1063.94,194.977L1239.67,194.977C1239.67,97.927 1160.99,19.24 1063.94,19.24L1063.94,194.977ZM185.357,194.977L185.357,19.24C88.307,19.24 9.62,97.927 9.62,194.977L185.357,194.977Z" style="fill:rgb(111,111,111);"/>
        </g>
        <g transform="matrix(1,0,0,1,815.676,179.322)">
            <rect x="9.62" y="19.24" width="878.586" height="175.703" style="fill:rgb(111,111,111);fill-rule:nonzero;"/>
        </g>
    </g>
</svg>
