<?xml version="1.0" encoding="UTF-8"?>
<!-- Generator: Adobe Illustrator 16.0.0, SVG Export Plug-In . SVG Version: 6.00 Build 0)  -->
<!DOCTYPE svg PUBLIC "-//W3C//DTD SVG 1.1//EN" "http://www.w3.org/Graphics/SVG/1.1/DTD/svg11.dtd">
<svg version="1.1" id="Layer_1" xmlns="http://www.w3.org/2000/svg" xmlns:xlink="http://www.w3.org/1999/xlink" x="0px" y="0px" width="1000px" height="971.733px" viewBox="-202.361 -64.922 1000 971.733" enable-background="new -202.361 -64.922 1000 971.733" xml:space="preserve">
<path d="M704.978,206.884C569.076,40.977,427.878,32.151,413.758,32.151c-81.188,0-169.437,26.476-277.099,121.783  C23.7,252.772-6.303,402.796-6.303,402.796S-43.368,535.168,14.876,656.95C73.12,778.733,228.437,851.097,228.437,851.097  c51.184,26.475,232.976,114.723,381.233-7.061c151.786-125.311,176.497-291.22,176.497-291.22  C786.167,524.577,842.646,372.791,704.978,206.884z M614.964,679.896c0,0-213.561,0-345.932,0  c-132.373,0-128.843-141.197-128.843-141.197V298.662h120.017c0,0,0,202.971,0,243.565c0,40.594,42.36,40.594,42.36,40.594  s102.368,0,151.786,0c49.42,0,45.89-45.89,45.89-45.89v-238.27h114.723V679.896z M73.12,100.985  c0,135.902-139.434,141.197-139.434,141.197s-141.196-5.295-135.902-116.487C-193.391-26.092-68.077-22.563-68.077-22.563  S73.12-26.092,73.12,100.985z M239.027-6.678c0,31.77-26.475,58.244-58.245,58.244c-31.769,0-60.008-24.709-60.008-58.244  c0-33.534,26.475-58.244,58.244-58.244C210.788-64.922,239.027-38.447,239.027-6.678z"/>
</svg>