<?xml version="1.0" encoding="UTF-8" standalone="no"?>
<!DOCTYPE svg PUBLIC "-//W3C//DTD SVG 1.1//EN" "http://www.w3.org/Graphics/SVG/1.1/DTD/svg11.dtd">
<svg width="100%" height="100%" viewBox="0 0 1000 972" version="1.1" xmlns="http://www.w3.org/2000/svg" xmlns:xlink="http://www.w3.org/1999/xlink" xml:space="preserve" xmlns:serif="http://www.serif.com/" style="fill-rule:evenodd;clip-rule:evenodd;stroke-linejoin:round;stroke-miterlimit:2;">
    <g transform="matrix(0.972708,0,0,0.972708,13.6456,13.2595)">
        <path d="M907.339,271.806C771.437,105.899 630.239,97.073 616.119,97.073C534.931,97.073 446.682,123.549 339.02,218.856C226.061,317.694 196.058,467.718 196.058,467.718C196.058,467.718 158.993,600.09 217.237,721.872C275.481,843.655 430.798,916.019 430.798,916.019C481.982,942.494 663.774,1030.74 812.031,908.958C963.817,783.647 988.528,617.738 988.528,617.738C988.528,589.499 1045.01,437.713 907.339,271.806ZM817.326,744.818L471.393,744.818C339.02,744.818 342.55,603.621 342.55,603.621L342.55,363.584L462.567,363.584L462.567,607.149C462.567,647.743 504.927,647.743 504.927,647.743L656.713,647.743C706.133,647.743 702.603,601.853 702.603,601.853L702.603,363.583L817.326,363.583L817.326,744.818ZM275.481,165.907C275.481,301.809 136.047,307.104 136.047,307.104C136.047,307.104 -5.149,301.809 0.145,190.617C8.97,38.83 134.284,42.359 134.284,42.359C134.284,42.359 275.481,38.83 275.481,165.907ZM441.388,58.244C441.388,90.014 414.913,116.488 383.143,116.488C351.374,116.488 323.135,91.779 323.135,58.244C323.135,24.71 349.61,0 381.379,0C413.149,0 441.388,26.475 441.388,58.244Z" style="fill:rgb(76,76,76);fill-rule:nonzero;"/>
    </g>
</svg>
