<?xml version="1.0" encoding="UTF-8" standalone="no"?>
<!DOCTYPE svg PUBLIC "-//W3C//DTD SVG 1.1//EN" "http://www.w3.org/Graphics/SVG/1.1/DTD/svg11.dtd">
<svg width="100%" height="100%" viewBox="0 0 800 800" version="1.1" xmlns="http://www.w3.org/2000/svg" xmlns:xlink="http://www.w3.org/1999/xlink" xml:space="preserve" xmlns:serif="http://www.serif.com/" style="fill-rule:evenodd;clip-rule:evenodd;stroke-linejoin:round;stroke-miterlimit:2;">
    <g transform="matrix(1.09746,0,0,1.09746,-38.9763,-38.9826)">
        <path d="M664.453,358.496C664.453,358.496 722.07,361.426 722.07,327.539C722.07,283.301 645.313,243.457 645.313,243.457C645.313,243.457 657.324,217.969 664.844,203.711C672.363,189.453 693.457,133.984 695.313,121.289C697.656,105.273 694.043,100.293 694.043,100.293C688.867,134.473 633.203,232.91 628.711,236.23C574.414,210.84 499.805,203.711 499.805,203.711C499.805,203.711 426.758,50 358.008,50C289.844,50 290.234,181.641 290.234,181.641C290.234,181.641 270.996,144.336 246.777,144.336C211.426,144.336 199.805,197.656 199.805,255.566C130.078,255.566 71.387,271.191 66.113,272.656C60.938,274.121 44.434,286.133 51.855,284.668C67.188,279.785 138.867,268.652 201.563,274.121C205.078,329.102 237.207,400.781 237.207,400.781C237.207,400.781 168.262,500.586 168.262,571.777C168.262,590.527 176.465,624.805 225.879,624.805C267.383,624.805 313.965,599.902 322.656,594.922C315.039,605.762 309.375,626.563 309.375,636.133C309.375,643.945 314.063,666.113 345.996,666.113C387.012,666.113 432.91,634.668 432.91,634.668C432.91,634.668 476.27,706.543 513.281,739.453C523.242,748.34 532.813,750 532.813,750C532.813,750 495.996,714.648 447.559,623.438C492.578,595.703 539.453,530.078 539.453,530.078C539.453,530.078 545.02,530.273 587.793,530.273C654.785,530.273 749.902,516.211 749.902,462.988C750,408.105 664.453,358.496 664.453,358.496ZM671.875,325.391C671.875,344.824 653.418,344.629 653.418,344.629L639.355,345.508C639.355,345.508 612.695,331.543 596.484,324.902C596.484,324.902 621.582,286.328 627.441,275.586C631.836,278.223 671.875,303.223 671.875,325.391ZM391.504,127.441C423.047,127.441 467.969,201.66 467.969,201.66C467.969,201.66 397.852,195.41 340.137,229.297C341.699,175.879 359.668,127.441 391.504,127.441ZM266.797,187.598C276.758,187.598 286.523,199.805 290.625,210.059C290.625,216.895 294.141,256.738 294.141,256.738L236.328,254.492C236.328,202.441 256.738,187.598 266.797,187.598ZM260.742,549.414C229.102,549.414 222.656,531.836 222.656,516.016C222.656,480.176 251.27,429.98 251.27,429.98C251.27,429.98 283.398,497.461 339.355,525.879C311.621,542.188 288.672,549.414 260.742,549.414ZM363.379,620.02C341.211,620.02 338.477,605.664 338.477,602.344C338.477,592.09 346.582,579.883 346.582,579.883C346.582,579.883 383.789,554.785 386.133,552.051L413.672,603.418C413.672,603.418 385.547,620.02 363.379,620.02ZM432.52,592.09C419.043,568.555 409.082,543.945 409.082,543.945C409.082,543.945 464.453,547.461 494.238,516.797C475.684,525.098 446.094,535.645 411.719,532.422C483.594,469.141 525.586,423.242 561.035,375.879C558.008,372.168 541.797,360.84 537.793,358.984C516.406,384.766 433.105,473.73 355.957,517.773C258.301,464.551 237.793,308.008 235.742,275.488L289.063,280.566C289.063,280.566 269.043,316.113 269.043,342.285C269.043,368.359 272.168,369.727 272.168,369.727C272.168,369.727 271.484,324.219 299.609,289.063C321.094,403.125 343.457,461.523 360.84,496.387C369.727,492.676 386.23,485.352 386.23,485.352C386.23,485.352 337.012,343.457 339.746,247.461C362.109,235.547 395.215,223.242 432.52,223.242C530.762,223.242 609.766,265.43 609.766,265.43L578.906,308.594C578.906,308.594 551.367,258.789 512.402,249.902C532.91,265.137 555.957,285.352 567.871,314.355C486.426,282.617 388.184,265.82 356.641,262.109C353.906,273.73 354.297,290.332 354.297,290.332C354.297,290.332 486.035,314.648 581.934,369.434C581.25,489.355 450.586,581.445 432.52,592.09ZM557.324,502.441C557.324,502.441 598.242,448.828 597.559,377.734C597.559,377.734 663.672,418.652 663.672,458.594C663.672,503.125 557.324,502.441 557.324,502.441Z" style="fill:rgb(20,142,255);fill-rule:nonzero;"/>
    </g>
</svg>
