<?xml version="1.0" encoding="UTF-8" standalone="no"?>
<!DOCTYPE svg PUBLIC "-//W3C//DTD SVG 1.1//EN" "http://www.w3.org/Graphics/SVG/1.1/DTD/svg11.dtd">
<svg width="100%" height="100%" viewBox="0 0 991 216" version="1.1" xmlns="http://www.w3.org/2000/svg"
     xml:space="preserve"
     style="fill-rule:evenodd;clip-rule:evenodd;stroke-linejoin:round;stroke-miterlimit:2;">
    <g id="ps5_logo">
        <path id="ps_logo" d="M20.79,183C-1,176.77 -4.7,163.91 5.26,156.5C14.47,149.63 30.13,144.5 30.13,144.5L94.8,121.4L94.8,147.72L48.26,164.45C40.03,167.45 38.77,171.61 45.46,173.8C52.15,175.99 64.24,175.37 72.46,172.41L94.78,164.27L94.78,187.82C93.37,188.08 91.78,188.33 90.33,188.57C67.042,192.368 43.176,190.457 20.79,183ZM157.23,185.74L229.8,159.84C238.04,156.84 239.3,152.7 232.61,150.51C225.92,148.32 213.83,148.94 205.61,151.91L157.25,168.97L157.25,141.78L160.05,140.83C170.976,137.295 182.24,134.906 193.66,133.7C213.31,131.53 237.37,134 256.25,141.16C277.54,147.9 279.94,157.83 274.53,164.67C269.12,171.51 255.86,176.38 255.86,176.38L157.25,211.87L157.23,185.74ZM165.72,17.17C203.93,30.36 216.88,46.78 216.88,83.78C216.88,119.83 194.74,133.5 166.62,119.85L166.62,52.62C166.62,44.74 165.18,37.48 157.82,35.42C152.18,33.6 148.68,38.87 148.68,46.75L148.68,215L103.56,200.6L103.56,0C122.75,3.58 150.7,12 165.72,17.13L165.72,17.17ZM262.72,201.32C262.787,201.856 262.584,202.392 262.18,202.75C261.686,203.055 261.11,203.202 260.53,203.17L257.06,203.17L257.06,199.58L260.74,199.58C261.151,199.564 261.561,199.639 261.94,199.8C262.484,200.1 262.793,200.703 262.72,201.32ZM265.21,209.5C265.01,209.378 264.874,209.172 264.84,208.94C264.767,208.612 264.733,208.276 264.74,207.94L264.67,206.31C264.699,205.715 264.545,205.125 264.23,204.62C264.019,204.37 263.765,204.16 263.48,204C263.855,203.756 264.178,203.44 264.43,203.07C264.773,202.483 264.943,201.81 264.92,201.13C265.021,199.808 264.279,198.556 263.07,198.01C262.32,197.7 261.512,197.553 260.7,197.58L254.89,197.58L254.89,210.28L257.06,210.28L257.06,205.07L260.48,205.07C260.932,205.045 261.385,205.113 261.81,205.27C262.288,205.543 262.566,206.071 262.52,206.62L262.62,208.62C262.625,208.955 262.655,209.289 262.71,209.62C262.74,209.787 262.794,209.948 262.87,210.1L262.95,210.25L265.37,210.25L265.37,209.51L265.21,209.5ZM250.32,204.2C250.312,201.69 251.297,199.277 253.06,197.49C254.797,195.708 257.182,194.702 259.67,194.702C262.158,194.702 264.543,195.708 266.28,197.49C268.028,199.27 269.009,201.667 269.009,204.162C269.009,209.316 264.823,213.582 259.67,213.68C257.183,213.682 254.798,212.679 253.06,210.9C251.3,209.116 250.314,206.706 250.32,204.2ZM259.67,215.6C262.66,215.604 265.527,214.394 267.61,212.25C271.968,207.8 271.968,200.58 267.61,196.13C265.523,193.992 262.658,192.787 259.67,192.79C253.477,192.907 248.446,198.034 248.446,204.228C248.446,207.228 249.626,210.111 251.73,212.25C253.813,214.394 256.68,215.604 259.67,215.6Z" style="fill:rgb(111,111,111);"/>
        <path id="ps5" d="M970.58,172.41L968.66,172.41L968.66,159.26L964.26,159.26L964.26,157.42L975,157.42L975,159.26L970.6,159.26L970.58,172.41ZM983.89,168.93L988,157.42L991,157.42L991,172.42L989,172.42L989,159.88L984.45,172.41L983.23,172.41L978.7,159.88L978.7,172.41L976.8,172.41L976.8,157.41L979.8,157.41L983.89,168.93ZM945,42.94L761,42.94L761,92.82C761,92.82 760.44,112.08 784.26,112.08L896.73,112.08C901.142,112.044 905.513,112.933 909.56,114.69C915.84,117.49 922.9,123.19 922.9,134.69C922.9,145.01 917.9,150.87 912.95,154.15C908.852,156.797 904.068,158.188 899.19,158.15L761,158.15L761,172.15L915.09,172.15C915.09,172.15 950.09,170.73 950.09,134.76C950.09,116.47 939.41,107.41 929.8,102.97C923.591,100.118 916.833,98.654 910,98.68L798.53,98.68C796.673,98.704 794.838,98.268 793.19,97.41C790.81,96.12 788.19,93.56 788.19,88.52L788.19,56.75L945,56.75L945,42.94ZM529.41,158.1L529.41,172.1L607.51,172.1C616.842,172.199 625.903,168.919 633.01,162.87C640.431,156.571 644.618,147.241 644.39,137.51L644.39,78C644.309,71.411 647.261,65.137 652.39,61C655.984,58.186 660.436,56.686 665,56.75L733.09,56.75L733.09,42.94L652,42.94C652,42.94 617,43.5 617,80.52L617,136.09C617.062,140.641 615.834,145.117 613.46,149C609.967,154.84 603.562,158.341 596.76,158.13L529.41,158.1ZM349.09,42.94L349.09,56.75L488.29,56.75C492.162,56.717 495.993,57.54 499.51,59.16C505.03,61.75 511.23,67.08 511.23,77.89C511.23,88.39 505.03,93.64 499.51,96.24C495.935,97.881 492.043,98.714 488.11,98.68L384.87,98.68C378.759,98.623 372.719,99.993 367.23,102.68C358.64,106.99 349.09,117.14 349.09,133.88L349.09,171.88L375.88,171.88L375.88,134.05C375.862,131.589 376.307,129.147 377.19,126.85C379.4,121.18 384.99,112.08 398.06,112.08L502.16,112.08C505.661,112.099 509.148,111.631 512.52,110.69C522.08,107.97 538.02,100.11 538.02,77.89C538.02,43.36 503.65,42.94 503.65,42.94L349.09,42.94Z" style="fill:rgb(111,111,111);fill-rule:nonzero;"/>
    </g>
</svg>
