<?xml version="1.0" encoding="UTF-8" standalone="no"?>
<!DOCTYPE svg PUBLIC "-//W3C//DTD SVG 1.1//EN" "http://www.w3.org/Graphics/SVG/1.1/DTD/svg11.dtd">
<svg width="100%" height="100%" viewBox="0 0 671 140" version="1.1" xmlns="http://www.w3.org/2000/svg" xmlns:xlink="http://www.w3.org/1999/xlink" xml:space="preserve" xmlns:serif="http://www.serif.com/" style="fill-rule:evenodd;clip-rule:evenodd;stroke-linejoin:round;stroke-miterlimit:2;">
    <g id="PS4">
        <g transform="matrix(1.33333,0,0,1.33333,0,0)">
            <path d="M496.613,82.577L496.613,88.467L495.632,88.467L495.632,81.218L496.984,81.218L499.085,87.409L501.119,81.218L502.3,81.218L502.3,88.467L501.49,88.467L501.49,82.577L499.537,88.467L498.566,88.467L496.613,82.577ZM491.427,88.467L491.427,82.049L489.103,82.049L489.103,81.218L494.73,81.218L494.73,82.049L492.408,82.049L492.408,88.467L491.427,88.467Z" style="fill:rgb(111,111,111);"/>
            <path d="M335.361,71.101C335.361,80.713 329.584,88.204 317.85,88.512L272.831,88.512C272.653,88.449 272.501,88.26 272.501,88.013L272.501,82.048C272.501,81.746 272.727,81.595 272.952,81.595L312.604,81.595C318.61,81.595 321.544,77.215 321.544,71.1L321.544,41.126C321.544,32.262 326.405,25.327 336.356,24.062L382.265,24.062C382.285,24.111 382.3,24.162 382.3,24.214L382.3,30.178C382.3,30.404 382.079,30.632 381.849,30.632L344.302,30.632C338.215,30.632 335.361,35.011 335.361,41.126L335.361,71.101ZM181.104,88.513C180.903,88.449 180.797,88.261 180.798,88.014L180.798,68.911C180.798,59.097 187.407,51.621 196.194,51.621L252.822,51.621C258.906,51.621 261.76,47.242 261.76,41.126C261.76,35.011 258.906,30.632 252.822,30.632L181.248,30.632C180.948,30.632 180.798,30.48 180.798,30.178L180.798,24.214C180.798,24.151 180.837,24.112 180.86,24.062L260.767,24.062C270.723,25.327 275.58,32.262 275.58,41.126C275.58,51.017 269.646,58.567 257.404,58.567L203.103,58.567C198.071,58.567 194.617,62.796 194.617,68.911L194.617,88.014C194.617,88.261 194.465,88.45 194.287,88.513L181.104,88.513ZM382.08,81.596C378.695,81.596 376.972,80.614 376.372,79.254C375.62,77.668 376.673,75.555 379.677,73.668L457.333,25.723C458.699,24.902 459.973,24.363 461.145,24.062L464.905,24.062C467.126,24.813 468.447,27.077 468.447,30.632L468.447,74.197C468.447,74.423 468.677,74.65 468.898,74.65L481.814,74.65C482.115,74.65 482.265,74.876 482.265,75.103L482.265,81.144C482.265,81.369 482.115,81.596 481.814,81.596L468.898,81.596C468.677,81.596 468.447,81.822 468.447,82.049L468.447,88.014C468.447,88.316 468.228,88.467 467.998,88.467L455.002,88.467C454.781,88.467 454.551,88.316 454.551,88.014L454.551,81.898C454.551,81.747 454.401,81.596 454.18,81.596L382.08,81.596ZM393.343,73.593C392.962,73.819 392.812,74.046 392.893,74.348C392.963,74.5 393.194,74.65 393.715,74.65L454.18,74.65C454.401,74.65 454.631,74.424 454.631,74.197L454.631,36.974C454.631,36.144 453.879,36.068 453.5,36.37L393.343,73.593Z" style="fill:rgb(111,111,111);"/>
        </g>
        <g transform="matrix(1.33333,0,0,1.33333,0,0)">
            <path d="M50.372,0C56.23,1.092 61.988,2.652 67.718,4.278C70.996,5.23 74.265,6.215 77.513,7.264C82.615,8.889 87.695,10.729 92.316,13.473C94.386,14.73 96.374,16.15 98.073,17.882C99.914,19.681 101.421,21.815 102.527,24.137C104.542,28.345 105.232,33.046 105.436,37.668C105.532,40.684 105.526,43.726 104.963,46.703C104.495,49.29 103.663,51.841 102.279,54.088C101.057,56.073 99.358,57.789 97.296,58.895C95.318,59.961 93.053,60.469 90.81,60.424C87.408,60.46 84.107,59.375 81.054,57.954C80.999,47.801 81.046,37.646 81.03,27.494C81.008,25.657 81.133,23.801 80.763,21.989C80.503,20.585 79.93,19.17 78.828,18.217C78.097,17.558 77.15,17.186 76.198,16.985C75.235,16.802 74.208,17.211 73.612,17.984C72.621,19.222 72.361,20.866 72.316,22.407C72.308,49.588 72.326,76.77 72.308,103.949C64.996,101.632 57.683,99.313 50.373,96.989C50.365,64.659 50.368,32.33 50.372,0ZM17.506,68.783C27.039,65.408 36.562,62.001 46.099,58.637C46.114,62.38 46.099,66.124 46.105,69.87C46.099,70.378 46.132,70.888 46.068,71.393C38.53,74.065 31.007,76.784 23.476,79.473C22.432,79.867 21.361,80.314 20.556,81.111C20.181,81.485 19.876,82.037 20.081,82.573C20.339,83.204 20.983,83.547 21.577,83.807C23.229,84.479 25.035,84.574 26.795,84.655C28.757,84.624 30.727,84.477 32.649,84.053C33.948,83.798 35.198,83.36 36.436,82.895C39.654,81.73 42.872,80.558 46.095,79.405C46.119,82.571 46.099,85.739 46.105,88.908C46.095,89.541 46.134,90.178 46.071,90.809C42.113,91.52 38.108,92.003 34.085,92.066C25.984,92.249 17.864,90.995 10.169,88.463C7.645,87.732 5.137,86.759 3.03,85.156C1.87,84.258 0.832,83.129 0.304,81.74C-0.138,80.564 -0.106,79.205 0.445,78.07C0.976,76.938 1.904,76.043 2.926,75.348C5.291,73.715 7.899,72.47 10.542,71.359C12.819,70.387 15.181,69.631 17.506,68.783ZM94.209,64.52C96.371,64.27 98.547,64.211 100.72,64.133C107.871,64.16 115.058,65.05 121.898,67.195C123.24,67.603 124.54,68.131 125.877,68.557C128.26,69.428 130.646,70.484 132.554,72.197C133.701,73.243 134.689,74.652 134.703,76.261C134.771,77.57 134.178,78.826 133.329,79.792C131.713,81.604 129.577,82.849 127.432,83.935C125.149,85.099 122.695,85.85 120.301,86.736C105.689,91.983 91.076,97.228 76.466,102.481C76.464,98.388 76.47,94.296 76.464,90.205C76.486,90.042 76.396,89.757 76.627,89.714C87.745,85.758 98.86,81.791 109.976,77.825C111.479,77.263 113.098,76.856 114.374,75.836C114.896,75.426 115.407,74.774 115.151,74.071C114.884,73.456 114.246,73.115 113.659,72.861C111.995,72.202 110.183,72.074 108.413,72.025C105.642,72.044 102.846,72.386 100.211,73.274C92.292,76.049 84.387,78.858 76.466,81.624C76.467,77.229 76.464,72.837 76.468,68.443C82.199,66.432 88.183,65.213 94.209,64.52ZM126.692,94.796C128.421,94.58 130.227,95.355 131.263,96.757C132.394,98.203 132.601,100.289 131.802,101.941C130.996,103.655 129.152,104.856 127.243,104.793C125.486,104.832 123.784,103.809 122.919,102.294C122.137,100.959 122.044,99.25 122.649,97.83C123.329,96.191 124.931,94.994 126.692,94.796ZM126.316,95.719C125.348,95.939 124.469,96.526 123.891,97.333C123.196,98.282 122.933,99.538 123.197,100.687C123.419,101.754 124.094,102.707 125.005,103.298C126.408,104.22 128.375,104.169 129.717,103.156C131.102,102.178 131.76,100.299 131.284,98.672C130.99,97.572 130.204,96.636 129.214,96.091C128.334,95.623 127.284,95.488 126.316,95.719ZM125.118,96.896C126.019,96.891 126.923,96.895 127.825,96.893C128.335,96.9 128.897,97.019 129.258,97.41C129.622,97.821 129.651,98.418 129.551,98.933C129.495,99.273 129.195,99.474 128.978,99.712C129.167,99.879 129.408,100.036 129.453,100.308C129.557,100.828 129.447,101.376 129.614,101.886C129.719,102.066 129.826,102.248 129.834,102.464C129.46,102.474 129.087,102.467 128.713,102.473C128.461,101.88 128.649,101.213 128.492,100.602C128.43,100.353 128.172,100.198 127.926,100.206C127.316,100.18 126.704,100.198 126.096,100.197C126.087,100.955 126.118,101.716 126.078,102.473C125.76,102.468 125.441,102.468 125.123,102.474C125.107,100.612 125.118,98.755 125.118,96.896ZM126.096,97.78C126.097,98.293 126.097,98.806 126.096,99.321C126.641,99.324 127.187,99.328 127.734,99.323C128.005,99.321 128.32,99.27 128.496,99.04C128.681,98.747 128.677,98.357 128.51,98.059C128.37,97.824 128.073,97.801 127.829,97.786C127.251,97.769 126.673,97.779 126.096,97.78Z" style="fill:rgb(111,111,111);"/>
        </g>
    </g>
</svg>
