<?xml version="1.0" encoding="UTF-8" standalone="no"?>
<!DOCTYPE svg PUBLIC "-//W3C//DTD SVG 1.1//EN" "http://www.w3.org/Graphics/SVG/1.1/DTD/svg11.dtd">
<svg width="100%" height="100%" viewBox="0 0 667 280" version="1.1" xmlns="http://www.w3.org/2000/svg"
     xml:space="preserve"
     style="fill-rule:evenodd;clip-rule:evenodd;stroke-linejoin:round;stroke-miterlimit:2;">
    <g>
        <path d="M520.959,224.799L520.959,218.947C526.258,219.08 531.638,217.269 531.638,211.357C531.638,207.275 528.488,204.482 524.151,204.482C518.729,204.482 516.049,209.382 516.153,214.384L508.379,214.384C508.747,204.943 514.599,197.978 524.335,197.978C531.782,197.978 539.454,202.314 539.454,210.824C539.454,215.623 537.245,219.539 532.682,221.248L532.682,221.35C538.125,222.436 541.408,227.202 541.408,233.442C541.408,242.544 533.644,248.171 524.367,248.171C513.249,248.171 507.623,241.409 507.438,231.335L515.335,231.335C515.098,237.166 518.219,241.564 524.366,241.564C529.613,241.564 533.643,238.506 533.643,233.043C533.643,225.494 527.116,224.543 520.959,224.799ZM125.468,247.252L125.468,197.981L147.255,197.981C161.329,197.981 164.035,207.085 164.035,213.231C164.035,219.317 161.329,228.452 147.255,228.389L134.152,228.389L134.152,247.252L125.468,247.252ZM134.152,204.977L134.153,221.352L146.744,221.352C150.651,221.352 155.392,219.377 155.392,213.17C155.392,206.696 151.484,204.977 146.917,204.977L134.152,204.977ZM177.077,197.98L177.077,247.251L169.186,247.251L169.186,197.98L177.077,197.98ZM215.797,221.025L215.798,239.333C215.798,241.298 216.156,242.054 217.644,242.054C218.037,242.054 218.718,242.054 219.485,241.931L219.485,247.413C218.395,247.742 215.859,248.263 214.529,248.263C211.419,248.263 209.093,247.22 208.489,243.896C205.333,246.923 200.306,248.263 196.107,248.263C189.704,248.263 183.874,244.787 183.874,237.851C183.874,228.94 191.049,227.468 197.596,226.71C203.273,225.648 208.341,226.312 208.341,221.71C208.341,217.638 204.173,216.872 200.925,216.872C196.507,216.872 193.352,218.62 193.111,222.497L185.173,222.497C185.715,213.322 193.529,210.601 201.426,210.601C208.402,210.601 215.797,213.457 215.797,221.025ZM207.793,235.293L207.793,229.433C205.405,230.988 201.605,230.988 198.168,231.601C194.767,232.092 191.729,233.318 191.729,237.492C191.729,241.043 196.178,242.055 198.966,242.055C202.443,242.055 207.793,240.256 207.793,235.293ZM232.618,247.221L219.117,211.585L227.663,211.585L236.997,238.241L237.145,238.241L246.152,211.585L254.447,211.585L240.546,249.298C237.974,255.671 236.137,261.45 227.883,261.45C226.073,261.45 224.19,261.286 222.416,261.091L222.416,254.382C223.643,254.679 224.912,254.954 226.144,254.954C229.832,254.954 230.778,252.938 231.719,249.983L232.618,247.221ZM256.103,230.875L264.723,230.876C264.723,238.475 270.328,241.442 277.243,241.442C284.843,241.442 287.707,237.719 287.707,233.903C287.707,230.221 285.64,228.708 283.61,227.899C280.142,226.58 275.647,225.649 268.881,223.807C260.406,221.578 257.956,216.412 257.956,211.297C257.956,201.397 267.08,196.793 276.015,196.793C286.33,196.793 294.902,202.255 294.902,212.607L286.33,212.607C285.891,206.162 281.589,203.82 275.646,203.82C271.596,203.82 266.568,205.273 266.568,210.275C266.568,213.751 268.956,215.625 272.495,216.646C273.257,216.873 284.15,219.673 286.687,220.361C293.202,222.406 296.281,227.898 296.281,233.043C296.281,244.039 286.508,248.469 276.694,248.469C265.401,248.469 256.282,243.148 256.103,230.875ZM299.131,211.584L305.037,211.584L305.037,200.844L312.965,200.844L312.965,211.584L320.058,211.584L320.058,217.445L312.965,217.445L312.965,236.5C312.965,239.764 313.282,241.441 316.729,241.441C317.849,241.441 318.969,241.441 320.059,241.207L320.059,247.221C318.31,247.414 316.684,247.619 314.991,247.619C306.777,247.619 305.187,244.5 305.038,238.506L305.038,217.445L299.131,217.445L299.131,211.584ZM356.309,221.025L356.308,239.333C356.308,241.298 356.718,242.054 358.16,242.054C358.589,242.054 359.285,242.054 360.118,241.931L360.118,247.413C358.917,247.742 356.426,248.263 355.199,248.263C351.941,248.263 349.66,247.22 349.041,243.896C345.896,246.923 340.858,248.263 336.629,248.263C330.261,248.263 324.436,244.787 324.436,237.851C324.436,228.94 331.561,227.468 338.158,226.71C343.866,225.648 348.904,226.312 348.904,221.71C348.904,217.638 344.705,216.872 341.549,216.872C337.069,216.872 333.991,218.62 333.663,222.497L325.736,222.497C326.278,213.322 334.133,210.601 341.948,210.601C348.934,210.601 356.309,213.457 356.309,221.025ZM348.422,235.293L348.422,229.433C346.003,230.988 342.198,230.988 338.72,231.601C335.319,232.092 332.322,233.318 332.322,237.492C332.322,241.043 336.818,242.055 339.559,242.055C343.037,242.055 348.422,240.256 348.422,235.293ZM360.876,211.584L366.803,211.584L366.803,200.844L374.73,200.844L374.73,211.584L381.824,211.584L381.824,217.445L374.73,217.445L374.73,236.5C374.73,239.764 374.996,241.441 378.504,241.441C379.582,241.441 380.703,241.441 381.823,241.207L381.823,247.221C380.125,247.414 378.427,247.619 376.723,247.619C368.479,247.619 366.95,244.5 366.802,238.506L366.802,217.445L360.875,217.445L360.876,211.584ZM396.477,211.584L396.477,247.252L388.59,247.252L388.59,211.584L396.477,211.584ZM420.432,248.264C408.935,248.264 402.389,240.408 402.389,229.434C402.389,218.489 408.935,210.602 420.432,210.602C431.898,210.602 438.455,218.489 438.455,229.434C438.455,240.409 431.899,248.264 420.432,248.264ZM420.432,242.055C427.449,242.055 430.568,235.672 430.569,229.434C430.569,223.254 427.45,216.873 420.432,216.873C413.334,216.873 410.265,223.254 410.265,229.434C410.265,235.672 413.334,242.055 420.432,242.055ZM444.397,247.252L444.397,211.584L451.802,211.584L451.802,216.873L451.976,217.016C454.309,213.036 458.431,210.602 463.085,210.602C470.859,210.602 475.768,214.785 475.768,222.764L475.768,247.252L467.851,247.252L467.851,224.799C467.729,219.244 465.519,216.873 460.916,216.873C455.618,216.873 452.252,221.026 452.252,226.221L452.252,247.252L444.397,247.252ZM396.477,197.98L396.477,205.435L388.59,205.435L388.59,197.98L396.477,197.98Z" style="fill:rgb(111,111,111);"/>
        <path d="M421.659,19.551C422.232,19.551 422.683,19.991 422.683,20.482L422.683,32.991C422.683,33.503 422.233,33.912 421.66,33.912L348.643,33.912C335.929,33.912 329.986,43.036 329.986,55.73L329.986,117.858C329.986,138.306 317.471,153.976 292.007,153.976L210.239,153.976C209.733,153.976 209.314,153.547 209.314,153.035L209.314,140.505C209.314,140.024 209.733,139.605 210.239,139.605L282.479,139.605C295.121,139.605 301.11,130.501 301.11,117.817L301.11,55.73C301.11,35.292 313.594,19.551 339.068,19.551L421.659,19.551ZM178.54,19.551C203.963,19.551 216.427,35.324 216.427,55.739C216.427,76.186 203.963,91.806 178.54,91.806L65.264,91.806C54.749,91.806 47.502,100.705 47.502,113.317L47.502,153.004C47.502,153.547 47.062,153.977 46.535,153.977L19.608,153.977C19.029,153.977 18.61,153.547 18.61,153.004L18.61,113.317C18.61,92.87 32.459,77.455 50.81,77.455L168.981,77.455C181.608,77.455 187.602,68.372 187.602,55.729C187.602,43.036 181.608,33.932 168.981,33.932L19.607,33.932C19.028,33.932 18.609,33.503 18.609,32.991L18.609,20.482C18.609,19.991 19.029,19.551 19.607,19.551L178.54,19.551ZM636.409,85.086C644.326,92.246 648.244,103.968 648.245,116.242L648.245,117.786C648.245,137.036 635.828,153.975 610.307,153.975L451.414,153.975C450.872,153.975 450.474,153.546 450.474,153.034L450.474,140.544C450.474,140.033 450.872,139.645 451.414,139.645L600.764,139.645C613.355,139.645 619.431,130.5 619.431,117.786L619.4,116.242C619.4,108.038 617.232,92 600.764,91.806L451.414,91.806C450.872,91.806 450.474,91.407 450.474,90.906L450.474,78.447C450.474,77.875 450.872,77.486 451.414,77.486L600.579,77.455L600.764,77.455C613.396,77.455 619.431,68.372 619.431,55.729C619.431,43.036 613.355,33.932 600.764,33.932L451.414,33.932C450.872,33.932 450.474,33.503 450.474,32.991L450.474,20.523C450.474,19.991 450.872,19.551 451.414,19.551L610.306,19.551C635.806,19.551 648.244,35.323 648.244,55.739C648.244,67.175 644.326,77.056 636.409,83.613C636.053,84.002 636.053,84.687 636.409,85.086Z" style="fill:rgb(111,111,111);"/>
    </g>
</svg>
